<?xml version="1.0" encoding="utf-8"?>
<svg viewBox="1100.208 219.504 89.743 89.743" xmlns="http://www.w3.org/2000/svg">
  <defs>
    <radialGradient gradientUnits="userSpaceOnUse" cx="248.453" cy="40.947" r="52.5" id="gradient-28" gradientTransform="matrix(-0.00441, 1.296723, -0.999993, -0.003401, 291.220184, -280.752882)" spreadMethod="pad">
      <stop offset="0" style="stop-color: rgb(216, 32, 32);"/>
      <stop offset="1" style="stop-color: rgb(48, 18, 18);"/>
    </radialGradient>
  </defs>
  <g style="" transform="matrix(0.854692, 0, 0, 0.854692, 1085.494873, 208.749008)">
    <title>+1 attacks</title>
    <circle style="paint-order: fill; fill: url(#gradient-28);" cx="250.028" cy="82.284" r="52.5" transform="matrix(1, 0, 0, 0.999999, -180.313995, -17.200153)">
      <title>Background</title>
    </circle>
    <g data-name="11" transform="matrix(2.246521, 0, 0, 2.246521, 33.769669, 29.709629)" style="filter: none;">
      <title>Swords</title>
      <path d="M30,1H24.24a1,1,0,0,0-.76.36L8.53,19.12,6.71,17.29a1,1,0,0,0-1.42,1.42l1.88,1.88L2.39,25.36a3,3,0,0,0,0,4.25h0a3,3,0,0,0,4.25,0l4.77-4.78,1.88,1.88a1,1,0,0,0,1.42,0,1,1,0,0,0,0-1.42l-1.83-1.82L30.64,8.52A1,1,0,0,0,31,7.76V2A1,1,0,0,0,30,1Z" style="fill-opacity: 0.5;"/>
      <path d="M14.69,8.68,8.52,1.36A1,1,0,0,0,7.76,1H2A1,1,0,0,0,1,2V7.76a1,1,0,0,0,.36.76l7.88,6.64Z" style="fill-opacity: 0.5;"/>
      <path d="M24.83,20.59l1.88-1.88a1,1,0,0,0-1.42-1.42l-1.82,1.83-1-1.14-5,4.18,1.56,1.31-1.83,1.82a1,1,0,0,0,0,1.42,1,1,0,0,0,1.42,0l1.88-1.88,4.77,4.78a3,3,0,0,0,4.25-4.25Z" style="fill-opacity: 0.5;"/>
    </g>
    <path d="M 46.863 88.392 C 46.19 88.392 45.567 88.232 44.993 87.912 C 44.413 87.592 43.953 87.132 43.613 86.532 C 43.267 85.939 43.093 85.242 43.093 84.442 C 43.093 83.655 43.243 82.969 43.543 82.382 C 43.843 81.789 44.273 81.329 44.833 81.002 C 45.393 80.675 46.05 80.512 46.803 80.512 C 47.237 80.512 47.647 80.589 48.033 80.742 C 48.413 80.889 48.737 81.075 49.003 81.302 C 49.263 81.529 49.437 81.752 49.523 81.972 L 49.553 80.702 L 51.243 80.702 L 51.243 88.232 L 49.573 88.232 L 49.543 86.902 C 49.357 87.295 49.017 87.642 48.523 87.942 C 48.03 88.242 47.477 88.392 46.863 88.392 Z M 47.163 86.922 C 47.783 86.922 48.307 86.705 48.733 86.272 C 49.16 85.839 49.373 85.272 49.373 84.572 L 49.373 84.462 C 49.373 83.989 49.277 83.569 49.083 83.202 C 48.883 82.829 48.613 82.539 48.273 82.332 C 47.94 82.119 47.57 82.012 47.163 82.012 C 46.463 82.012 45.923 82.242 45.543 82.702 C 45.157 83.155 44.963 83.742 44.963 84.462 C 44.963 85.195 45.153 85.789 45.533 86.242 C 45.907 86.695 46.45 86.922 47.163 86.922 ZM 54.279 88.232 L 54.279 82.152 L 52.949 82.152 L 52.949 80.702 L 54.279 80.702 L 54.279 77.642 L 56.069 77.242 L 56.069 80.702 L 57.809 80.702 L 57.809 82.152 L 56.069 82.152 L 56.069 88.232 L 54.279 88.232 ZM 59.904 88.232 L 59.904 82.152 L 58.574 82.152 L 58.574 80.702 L 59.904 80.702 L 59.904 77.642 L 61.694 77.242 L 61.694 80.702 L 63.434 80.702 L 63.434 82.152 L 61.694 82.152 L 61.694 88.232 L 59.904 88.232 ZM 68.199 88.392 C 67.525 88.392 66.902 88.232 66.329 87.912 C 65.749 87.592 65.289 87.132 64.949 86.532 C 64.602 85.939 64.429 85.242 64.429 84.442 C 64.429 83.655 64.579 82.969 64.879 82.382 C 65.179 81.789 65.609 81.329 66.169 81.002 C 66.729 80.675 67.385 80.512 68.139 80.512 C 68.572 80.512 68.982 80.589 69.369 80.742 C 69.749 80.889 70.072 81.075 70.339 81.302 C 70.599 81.529 70.772 81.752 70.859 81.972 L 70.889 80.702 L 72.579 80.702 L 72.579 88.232 L 70.909 88.232 L 70.879 86.902 C 70.692 87.295 70.352 87.642 69.859 87.942 C 69.365 88.242 68.812 88.392 68.199 88.392 Z M 68.499 86.922 C 69.119 86.922 69.642 86.705 70.069 86.272 C 70.495 85.839 70.709 85.272 70.709 84.572 L 70.709 84.462 C 70.709 83.989 70.612 83.569 70.419 83.202 C 70.219 82.829 69.949 82.539 69.609 82.332 C 69.275 82.119 68.905 82.012 68.499 82.012 C 67.799 82.012 67.259 82.242 66.879 82.702 C 66.492 83.155 66.299 83.742 66.299 84.462 C 66.299 85.195 66.489 85.789 66.869 86.242 C 67.242 86.695 67.785 86.922 68.499 86.922 ZM 78.464 88.392 C 77.724 88.392 77.054 88.232 76.454 87.912 C 75.861 87.592 75.391 87.129 75.044 86.522 C 74.691 85.915 74.514 85.202 74.514 84.382 C 74.514 83.602 74.678 82.919 75.004 82.332 C 75.324 81.752 75.778 81.302 76.364 80.982 C 76.944 80.669 77.618 80.512 78.384 80.512 C 78.964 80.512 79.464 80.585 79.884 80.732 C 80.304 80.879 80.634 81.062 80.874 81.282 L 80.094 82.702 C 79.634 82.242 79.114 82.012 78.534 82.012 C 77.834 82.012 77.301 82.225 76.934 82.652 C 76.568 83.079 76.384 83.649 76.384 84.362 C 76.384 85.169 76.574 85.799 76.954 86.252 C 77.328 86.699 77.854 86.922 78.534 86.922 C 78.874 86.922 79.204 86.872 79.524 86.772 C 79.851 86.672 80.101 86.559 80.274 86.432 L 80.914 87.672 C 80.674 87.859 80.338 88.025 79.904 88.172 C 79.471 88.319 78.991 88.392 78.464 88.392 ZM 86.556 83.852 L 89.406 88.232 L 87.326 88.232 L 85.796 85.772 L 85.376 84.932 L 84.386 86.002 L 84.386 88.232 L 82.686 88.232 L 82.686 76.182 L 84.376 76.182 L 84.376 82.792 L 84.336 84.062 L 87.206 80.702 L 89.386 80.702 L 86.556 83.852 ZM 93.412 88.392 C 92.886 88.392 92.339 88.325 91.772 88.192 C 91.212 88.052 90.812 87.892 90.572 87.712 L 91.162 86.312 C 91.816 86.772 92.566 87.002 93.412 87.002 C 94.252 87.002 94.672 86.755 94.672 86.262 C 94.672 86.042 94.586 85.872 94.412 85.752 C 94.232 85.632 93.919 85.492 93.472 85.332 L 92.852 85.102 C 92.192 84.835 91.672 84.519 91.292 84.152 C 90.912 83.792 90.722 83.309 90.722 82.702 C 90.722 82.015 90.992 81.479 91.532 81.092 C 92.072 80.705 92.796 80.512 93.702 80.512 C 94.149 80.512 94.589 80.559 95.022 80.652 C 95.456 80.752 95.786 80.879 96.012 81.032 L 95.372 82.442 C 95.232 82.302 95.006 82.179 94.692 82.072 C 94.386 81.972 94.039 81.922 93.652 81.922 C 92.879 81.922 92.492 82.155 92.492 82.622 C 92.492 82.882 92.596 83.082 92.802 83.222 C 93.009 83.355 93.349 83.505 93.822 83.672 C 93.862 83.685 94.029 83.745 94.322 83.852 C 95.022 84.125 95.542 84.439 95.882 84.792 C 96.222 85.139 96.392 85.585 96.392 86.132 C 96.392 86.879 96.112 87.442 95.552 87.822 C 94.986 88.202 94.272 88.392 93.412 88.392 Z" transform="matrix(1, 0, 0, 1, 0, 0)" style="fill: rgb(255, 255, 255); white-space: pre;"/>
    <path d="M 60.386 63.298 L 60.386 55.978 L 52.856 55.978 L 52.856 52.308 L 60.386 52.308 L 60.386 44.988 L 64.246 44.988 L 64.246 52.308 L 71.806 52.308 L 71.806 55.978 L 64.246 55.978 L 64.246 63.298 L 60.386 63.298 ZM 80.354 66.958 L 80.354 38.138 L 84.854 36.868 L 84.854 66.958 L 80.354 66.958 Z" transform="matrix(1, 0, 0, 1, 0, 0)" style="fill: rgb(255, 255, 255); line-height: 71.1367px; white-space: pre;"/>
  </g>
</svg>