<?xml version="1.0" encoding="utf-8"?>
<svg viewBox="903.848 217.993 89.743 89.743" xmlns="http://www.w3.org/2000/svg">
  <defs>
    <radialGradient gradientUnits="userSpaceOnUse" cx="248.453" cy="40.947" r="52.5" id="gradient-26" gradientTransform="matrix(-0.00441, 1.296723, -0.999993, -0.003401, 291.220184, -280.752852)" spreadMethod="pad">
      <stop offset="0" style="stop-color: rgb(214, 145, 17);"/>
      <stop offset="1" style="stop-color: rgb(65, 53, 33);"/>
    </radialGradient>
  </defs>
  <g transform="matrix(0.854692, 0, 0, 0.854692, 687.890259, 207.081131)" style="">
    <title>+1 bravery</title>
    <circle style="paint-order: fill; fill: url(#gradient-26);" cx="250.028" cy="82.284" r="52.5" transform="matrix(1, 0, 0, 0.999999, 55.145081, -17.016562)">
      <title>Background</title>
    </circle>
    <path d="M 340.526 78.361 C 342.169 93.547 326.756 104.817 312.782 98.646 C 307.775 100.839 302.084 100.864 297.057 98.716 C 290.497 101.4 283.003 100.381 277.398 96.041 C 265.321 86.691 267.895 67.774 282.031 61.991 L 274.712 38.216 C 273.474 34.204 276.488 30.143 280.687 30.167 L 329.339 30.167 C 333.539 30.143 336.553 34.204 335.314 38.216 L 327.964 61.991 C 334.882 64.669 339.728 70.984 340.526 78.361 Z M 329.339 36.406 L 319.666 36.406 C 319.666 37.025 319.574 37.64 319.394 38.232 L 316.038 49.109 L 319.588 60.654 C 319.954 60.654 320.365 60.654 320.73 60.654 C 321.096 60.654 321.492 60.654 321.873 60.654 Z M 312.075 61.991 L 312.782 62.285 L 313.497 62.006 L 312.782 59.675 Z M 296.226 36.359 L 300.041 48.79 L 303.692 60.654 C 304.058 60.654 304.469 60.654 304.835 60.654 C 305.2 60.654 305.596 60.654 305.977 60.654 L 313.443 36.367 L 296.249 36.367 Z M 297.065 60.273 L 296.537 62.006 L 297.065 62.224 L 297.601 62.006 Z M 288.153 60.654 C 288.518 60.654 288.93 60.654 289.295 60.654 C 289.66 60.654 290.057 60.654 290.437 60.654 L 293.809 49.699 L 290.251 38.216 C 290.079 37.616 289.998 36.992 290.01 36.367 L 280.687 36.367 Z M 289.295 94.125 C 289.66 94.125 290.026 94.078 290.383 94.078 C 283.169 86.449 283.169 74.514 290.383 66.885 C 290.026 66.839 289.66 66.839 289.295 66.839 C 281.773 66.847 275.676 72.943 275.668 80.466 C 275.659 88.001 281.76 94.116 289.295 94.125 Z M 304.835 94.094 C 307.226 94.094 309.576 93.464 311.648 92.268 C 320.733 87.022 320.733 73.91 311.648 68.664 C 302.563 63.419 291.207 69.976 291.207 80.466 C 291.215 87.989 297.312 94.085 304.835 94.094 Z M 320.73 94.063 C 325.599 94.063 330.098 91.465 332.532 87.249 C 337.778 78.164 331.221 66.808 320.73 66.808 C 320.256 66.81 319.781 66.835 319.309 66.885 C 326.464 74.501 326.464 86.369 319.309 93.985 C 319.78 94.045 320.255 94.082 320.73 94.094 Z M 313.171 77.21 C 313.209 77.216 313.247 77.224 313.285 77.234 C 314.03 77.436 314.277 78.368 313.73 78.912 L 310.11 82.44 L 310.964 87.419 C 311.031 87.795 310.877 88.175 310.568 88.399 C 310.258 88.62 309.851 88.65 309.511 88.477 L 305.044 86.146 L 300.569 88.477 C 300.522 88.502 300.474 88.523 300.423 88.541 C 299.701 88.795 298.975 88.173 299.116 87.419 L 299.97 82.44 L 296.35 78.912 C 296.324 78.887 296.299 78.859 296.276 78.83 C 295.792 78.229 296.14 77.33 296.902 77.21 L 301.905 76.481 L 304.096 71.951 C 304.265 71.614 304.612 71.403 304.99 71.407 C 305.367 71.403 305.714 71.614 305.883 71.951 L 308.121 76.481 L 313.148 77.21 Z" style="fill-opacity: 0.5;"/>
    <path d="M 239.559 154.502 C 238.786 154.502 238.089 154.312 237.469 153.932 C 236.849 153.546 236.423 153.102 236.189 152.602 L 236.149 154.292 L 233.979 154.292 L 233.979 138.982 L 236.189 138.982 L 236.189 144.882 L 236.079 146.502 C 236.319 145.949 236.783 145.476 237.469 145.082 C 238.156 144.682 238.903 144.482 239.709 144.482 C 240.649 144.482 241.473 144.696 242.179 145.122 C 242.879 145.542 243.416 146.132 243.789 146.892 C 244.163 147.646 244.349 148.522 244.349 149.522 C 244.349 150.536 244.133 151.419 243.699 152.172 C 243.259 152.919 242.676 153.492 241.949 153.892 C 241.216 154.299 240.419 154.502 239.559 154.502 Z M 239.189 152.622 C 240.089 152.622 240.783 152.336 241.269 151.762 C 241.756 151.189 241.999 150.442 241.999 149.522 C 241.999 148.596 241.759 147.842 241.279 147.262 C 240.799 146.689 240.103 146.402 239.189 146.402 C 238.396 146.402 237.729 146.676 237.189 147.222 C 236.649 147.769 236.379 148.489 236.379 149.382 L 236.379 149.522 C 236.379 150.122 236.506 150.656 236.759 151.122 C 237.019 151.596 237.359 151.966 237.779 152.232 C 238.206 152.492 238.676 152.622 239.189 152.622 ZM 246.684 154.292 L 246.684 144.732 L 248.924 144.732 L 248.924 146.612 C 249.151 145.972 249.514 145.459 250.014 145.072 C 250.514 144.679 251.084 144.482 251.724 144.482 C 252.164 144.482 252.467 144.526 252.634 144.612 L 252.324 146.882 C 252.197 146.796 251.927 146.752 251.514 146.752 C 250.861 146.752 250.267 146.962 249.734 147.382 C 249.194 147.796 248.924 148.462 248.924 149.382 L 248.924 154.292 L 246.684 154.292 ZM 258.448 154.502 C 257.581 154.502 256.784 154.296 256.058 153.882 C 255.331 153.476 254.748 152.892 254.308 152.132 C 253.874 151.379 253.658 150.496 253.658 149.482 C 253.658 148.482 253.848 147.609 254.228 146.862 C 254.608 146.109 255.151 145.526 255.858 145.112 C 256.571 144.692 257.404 144.482 258.358 144.482 C 258.918 144.482 259.438 144.579 259.918 144.772 C 260.404 144.972 260.814 145.212 261.148 145.492 C 261.481 145.779 261.704 146.062 261.818 146.342 L 261.858 144.732 L 264.008 144.732 L 264.008 154.292 L 261.878 154.292 L 261.838 152.602 C 261.604 153.102 261.174 153.546 260.548 153.932 C 259.921 154.312 259.221 154.502 258.448 154.502 Z M 258.818 152.622 C 259.611 152.622 260.278 152.349 260.818 151.802 C 261.358 151.256 261.628 150.539 261.628 149.652 L 261.628 149.502 C 261.628 148.909 261.504 148.376 261.258 147.902 C 261.004 147.429 260.664 147.059 260.238 146.792 C 259.804 146.532 259.331 146.402 258.818 146.402 C 257.931 146.402 257.244 146.689 256.758 147.262 C 256.271 147.842 256.028 148.589 256.028 149.502 C 256.028 150.436 256.268 151.189 256.748 151.762 C 257.228 152.336 257.918 152.622 258.818 152.622 ZM 270.54 154.292 L 265.5 144.732 L 268.06 144.732 L 270.12 149.042 L 270.79 150.772 L 271.45 149.042 L 273.49 144.732 L 275.99 144.732 L 270.97 154.292 L 270.54 154.292 ZM 281.7 154.502 C 280.56 154.502 279.606 154.276 278.84 153.822 C 278.08 153.369 277.52 152.766 277.16 152.012 C 276.8 151.252 276.62 150.422 276.62 149.522 C 276.62 148.509 276.83 147.622 277.25 146.862 C 277.676 146.096 278.263 145.509 279.01 145.102 C 279.763 144.689 280.61 144.482 281.55 144.482 C 283.023 144.482 284.116 144.889 284.83 145.702 C 285.543 146.516 285.9 147.659 285.9 149.132 C 285.9 149.506 285.88 149.892 285.84 150.292 L 278.97 150.292 C 279.123 151.139 279.426 151.749 279.88 152.122 C 280.326 152.502 280.953 152.692 281.76 152.692 C 282.426 152.692 282.973 152.636 283.4 152.522 C 283.833 152.409 284.23 152.256 284.59 152.062 L 285.28 153.672 C 284.933 153.892 284.46 154.086 283.86 154.252 C 283.266 154.419 282.546 154.502 281.7 154.502 Z M 278.97 148.732 L 283.72 148.732 C 283.733 147.872 283.543 147.266 283.15 146.912 C 282.763 146.559 282.21 146.382 281.49 146.382 C 280.03 146.382 279.19 147.166 278.97 148.732 ZM 288.195 154.292 L 288.195 144.732 L 290.435 144.732 L 290.435 146.612 C 290.661 145.972 291.025 145.459 291.525 145.072 C 292.025 144.679 292.595 144.482 293.235 144.482 C 293.675 144.482 293.978 144.526 294.145 144.612 L 293.835 146.882 C 293.708 146.796 293.438 146.752 293.025 146.752 C 292.371 146.752 291.778 146.962 291.245 147.382 C 290.705 147.796 290.435 148.462 290.435 149.382 L 290.435 154.292 L 288.195 154.292 ZM 296.418 159.542 L 298.478 154.582 L 294.518 144.732 L 297.058 144.732 L 299.098 150.812 L 299.558 152.292 L 300.018 150.812 L 302.158 144.732 L 304.618 144.732 L 298.748 159.542 L 296.418 159.542 Z" transform="matrix(0.7866309285163879, 0, 0, 0.7866309285163879, 93.95037841796875, -33.39335632324219)" style="fill: rgb(255, 255, 255); line-height: 38.0767px; white-space: pre;"/>
    <path d="M 297.526 64.044 L 297.526 56.724 L 289.996 56.724 L 289.996 53.054 L 297.526 53.054 L 297.526 45.734 L 301.386 45.734 L 301.386 53.054 L 308.946 53.054 L 308.946 56.724 L 301.386 56.724 L 301.386 64.044 L 297.526 64.044 ZM 317.494 67.704 L 317.494 38.884 L 321.994 37.614 L 321.994 67.704 L 317.494 67.704 Z" transform="matrix(1, 0, 0, 1, 0, 0)" style="fill: rgb(255, 255, 255); line-height: 71.1367px; white-space: pre;"/>
  </g>
</svg>