<?xml version="1.0" encoding="utf-8"?>
<svg viewBox="504.349 219.504 89.743 89.743" xmlns="http://www.w3.org/2000/svg">
  <defs>
    <radialGradient gradientUnits="userSpaceOnUse" cx="248.453" cy="40.947" r="52.5" id="gradient-8" gradientTransform="matrix(-0.00441, 1.296723, -0.999993, -0.003401, 291.220184, -280.752943)" spreadMethod="pad">
      <stop offset="0" style="stop-color: rgb(161, 96, 204);"/>
      <stop offset="1" style="stop-color: rgb(57, 15, 83);"/>
    </radialGradient>
  </defs>
  <g transform="matrix(0.854692, 0, 0, 0.854692, 489.636536, 208.15654)" style="">
    <title>+1 to prayer</title>
    <circle style="paint-order: fill; fill: url(#gradient-8);" cx="250.028" cy="82.284" r="52.5" transform="matrix(1, 0, 0, 0.999999, -180.313995, -16.506966)">
      <title>Background</title>
    </circle>
    <g stroke="none" stroke-width="1" fill="none" fill-rule="evenodd" transform="matrix(1.042987, 0, 0, 1.042987, 17.101128, 12.9458)">
      <title>prayer</title>
      <path d="M66.7669231,38.6812401 C59.8469231,56.0404709 62.4176923,83.9962401 62.4476923,84.307394 L58.2361538,84.307394 C58.1188462,83.0839324 55.89,59.184317 61.4603846,41.0581632 C57.9734615,43.3554709 54.2615385,44.5650863 50.445,44.5650863 C46.7715385,44.5650863 43.1953846,43.4439324 39.8230769,41.3120094 C45.5242308,59.3362401 43.2607692,83.0981632 43.1423077,84.307394 L38.9315385,84.307394 C38.9646154,83.9689324 42.1130769,50.3200863 32.0438462,34.127394 C29.02,30.334317 26.2992308,25.577394 24,19.9520094 L27.9165385,18.3512401 C33.6265385,32.3216247 41.8376923,40.334317 50.445,40.334317 C55.8876923,40.334317 61.1715385,37.1270094 65.7653846,31.2389324 C65.7711538,31.229317 65.7765385,31.219317 65.7826923,31.2100863 L65.7857692,31.2120094 C68.4480769,27.7931632 70.8792308,23.4758555 72.9730769,18.3539324 L76.8888462,19.9547017 C75.0273077,24.5089324 72.8903846,28.4954709 70.5392308,31.8612401 C69.0465385,33.9981632 67.7323077,36.2600863 66.7669231,38.6812401 M46.5626923,22.7512401 C47.5438462,21.7700863 48.8626923,21.2304709 50.245,21.2304709 C50.4192308,21.2304709 50.5953846,21.239317 50.7715385,21.2570094 C53.1723077,21.4947017 55.1623077,23.484317 55.4,25.8850863 C55.5553846,27.4547017 55.0107692,28.9889324 53.9057692,30.0939324 C52.8007692,31.1985478 51.2673077,31.7435478 49.6969231,31.5877786 C47.2961538,31.3500863 45.3065385,29.3600863 45.0688462,26.959317 C44.9134615,25.3897017 45.4576923,23.8562401 46.5626923,22.7512401 M49.28,35.7981632 C49.5976923,35.8297017 49.9138462,35.8454709 50.2288462,35.8454709 C52.7276923,35.8450863 55.1173077,34.8662401 56.8976923,33.0854709 C58.9026923,31.0808555 59.8911538,28.304317 59.61,25.4681632 C59.1703846,21.0281632 55.6284615,17.4862401 51.1884615,17.0466247 C48.3503846,16.7670094 45.5757692,17.754317 43.5711538,19.759317 C41.5665385,21.764317 40.5776923,24.5404709 40.8584615,27.3762401 C41.2980769,31.8162401 44.84,35.3585478 49.28,35.7981632" style="fill: rgb(0, 0, 0); fill-opacity: 0.5;"/>
    </g>
    <path d="M 227.839 154.292 L 227.839 146.562 L 226.149 146.562 L 226.149 144.732 L 227.839 144.732 L 227.839 140.842 L 230.109 140.342 L 230.109 144.732 L 232.319 144.732 L 232.319 146.562 L 230.109 146.562 L 230.109 154.292 L 227.839 154.292 ZM 238.599 154.502 C 237.619 154.502 236.746 154.279 235.979 153.832 C 235.219 153.392 234.629 152.789 234.209 152.022 C 233.796 151.256 233.589 150.409 233.589 149.482 C 233.589 148.569 233.793 147.729 234.199 146.962 C 234.606 146.196 235.193 145.592 235.959 145.152 C 236.726 144.706 237.606 144.482 238.599 144.482 C 239.599 144.482 240.479 144.706 241.239 145.152 C 241.993 145.592 242.576 146.196 242.989 146.962 C 243.396 147.729 243.599 148.569 243.599 149.482 C 243.599 150.409 243.393 151.256 242.979 152.022 C 242.559 152.789 241.973 153.392 241.219 153.832 C 240.459 154.279 239.586 154.502 238.599 154.502 Z M 238.669 152.672 C 239.469 152.672 240.103 152.372 240.569 151.772 C 241.036 151.172 241.269 150.422 241.269 149.522 C 241.269 148.622 241.019 147.862 240.519 147.242 C 240.019 146.622 239.359 146.312 238.539 146.312 C 237.753 146.312 237.119 146.619 236.639 147.232 C 236.159 147.846 235.919 148.609 235.919 149.522 C 235.919 150.409 236.176 151.156 236.689 151.762 C 237.203 152.369 237.863 152.672 238.669 152.672 ZM 251.135 159.352 L 251.135 144.732 L 253.305 144.732 L 253.305 146.502 C 254.065 145.156 255.258 144.482 256.885 144.482 C 258.232 144.482 259.322 144.909 260.155 145.762 C 260.988 146.616 261.405 147.849 261.405 149.462 C 261.405 150.462 261.198 151.342 260.785 152.102 C 260.378 152.869 259.825 153.459 259.125 153.872 C 258.418 154.292 257.635 154.502 256.775 154.502 C 255.975 154.502 255.278 154.359 254.685 154.072 C 254.098 153.786 253.638 153.379 253.305 152.852 L 253.325 159.352 L 251.135 159.352 Z M 256.255 152.602 C 257.162 152.602 257.855 152.316 258.335 151.742 C 258.822 151.162 259.065 150.422 259.065 149.522 C 259.065 148.582 258.828 147.829 258.355 147.262 C 257.875 146.702 257.175 146.422 256.255 146.422 C 255.755 146.422 255.288 146.542 254.855 146.782 C 254.415 147.029 254.068 147.376 253.815 147.822 C 253.555 148.276 253.425 148.802 253.425 149.402 L 253.425 149.542 C 253.425 150.142 253.555 150.676 253.815 151.142 C 254.068 151.602 254.412 151.962 254.845 152.222 C 255.272 152.476 255.742 152.602 256.255 152.602 ZM 263.734 154.292 L 263.734 144.732 L 265.974 144.732 L 265.974 146.612 C 266.2 145.972 266.564 145.459 267.064 145.072 C 267.564 144.679 268.134 144.482 268.774 144.482 C 269.214 144.482 269.517 144.526 269.684 144.612 L 269.374 146.882 C 269.247 146.796 268.977 146.752 268.564 146.752 C 267.91 146.752 267.317 146.962 266.784 147.382 C 266.244 147.796 265.974 148.462 265.974 149.382 L 265.974 154.292 L 263.734 154.292 ZM 275.497 154.502 C 274.631 154.502 273.834 154.296 273.107 153.882 C 272.381 153.476 271.797 152.892 271.357 152.132 C 270.924 151.379 270.707 150.496 270.707 149.482 C 270.707 148.482 270.897 147.609 271.277 146.862 C 271.657 146.109 272.201 145.526 272.907 145.112 C 273.621 144.692 274.454 144.482 275.407 144.482 C 275.967 144.482 276.487 144.579 276.967 144.772 C 277.454 144.972 277.864 145.212 278.197 145.492 C 278.531 145.779 278.754 146.062 278.867 146.342 L 278.907 144.732 L 281.057 144.732 L 281.057 154.292 L 278.927 154.292 L 278.887 152.602 C 278.654 153.102 278.224 153.546 277.597 153.932 C 276.971 154.312 276.271 154.502 275.497 154.502 Z M 275.867 152.622 C 276.661 152.622 277.327 152.349 277.867 151.802 C 278.407 151.256 278.677 150.539 278.677 149.652 L 278.677 149.502 C 278.677 148.909 278.554 148.376 278.307 147.902 C 278.054 147.429 277.714 147.059 277.287 146.792 C 276.854 146.532 276.381 146.402 275.867 146.402 C 274.981 146.402 274.294 146.689 273.807 147.262 C 273.321 147.842 273.077 148.589 273.077 149.502 C 273.077 150.436 273.317 151.189 273.797 151.762 C 274.277 152.336 274.967 152.622 275.867 152.622 ZM 284.76 159.542 L 286.82 154.582 L 282.86 144.732 L 285.4 144.732 L 287.44 150.812 L 287.9 152.292 L 288.36 150.812 L 290.5 144.732 L 292.96 144.732 L 287.09 159.542 L 284.76 159.542 ZM 298.937 154.502 C 297.797 154.502 296.843 154.276 296.077 153.822 C 295.317 153.369 294.757 152.766 294.397 152.012 C 294.037 151.252 293.857 150.422 293.857 149.522 C 293.857 148.509 294.067 147.622 294.487 146.862 C 294.913 146.096 295.5 145.509 296.247 145.102 C 297 144.689 297.847 144.482 298.787 144.482 C 300.26 144.482 301.353 144.889 302.067 145.702 C 302.78 146.516 303.137 147.659 303.137 149.132 C 303.137 149.506 303.117 149.892 303.077 150.292 L 296.207 150.292 C 296.36 151.139 296.663 151.749 297.117 152.122 C 297.563 152.502 298.19 152.692 298.997 152.692 C 299.663 152.692 300.21 152.636 300.637 152.522 C 301.07 152.409 301.467 152.256 301.827 152.062 L 302.517 153.672 C 302.17 153.892 301.697 154.086 301.097 154.252 C 300.503 154.419 299.783 154.502 298.937 154.502 Z M 296.207 148.732 L 300.957 148.732 C 300.97 147.872 300.78 147.266 300.387 146.912 C 300 146.559 299.447 146.382 298.727 146.382 C 297.267 146.382 296.427 147.166 296.207 148.732 ZM 305.432 154.292 L 305.432 144.732 L 307.672 144.732 L 307.672 146.612 C 307.898 145.972 308.262 145.459 308.762 145.072 C 309.262 144.679 309.832 144.482 310.472 144.482 C 310.912 144.482 311.215 144.526 311.382 144.612 L 311.072 146.882 C 310.945 146.796 310.675 146.752 310.262 146.752 C 309.608 146.752 309.015 146.962 308.482 147.382 C 307.942 147.796 307.672 148.462 307.672 149.382 L 307.672 154.292 L 305.432 154.292 Z" transform="matrix(0.7866309285163879, 0, 0, 0.7866309285163879, -141.50254821777344, -34.0242919921875)" style="fill: rgb(255, 255, 255); line-height: 38.0767px; white-space: pre;"/>
    <path d="M 60.396 63.402 L 60.396 56.082 L 52.866 56.082 L 52.866 52.412 L 60.396 52.412 L 60.396 45.092 L 64.256 45.092 L 64.256 52.412 L 71.816 52.412 L 71.816 56.082 L 64.256 56.082 L 64.256 63.402 L 60.396 63.402 ZM 80.364 67.062 L 80.364 38.242 L 84.864 36.972 L 84.864 67.062 L 80.364 67.062 Z" transform="matrix(1, 0, 0, 1, 0, 0)" style="fill: rgb(255, 255, 255); line-height: 65.5207px; white-space: pre;"/>
  </g>
</svg>