<?xml version="1.0" encoding="utf-8"?>
<svg viewBox="303.992 218.429 89.743 89.743" xmlns="http://www.w3.org/2000/svg">
  <defs>
    <radialGradient gradientUnits="userSpaceOnUse" cx="248.453" cy="40.947" r="52.5" id="gradient-3" gradientTransform="matrix(-0.00441, 1.296723, -0.999993, -0.003401, 291.220184, -280.752943)" spreadMethod="pad">
      <stop offset="0" style="stop-color: rgb(161, 96, 204);"/>
      <stop offset="1" style="stop-color: rgb(57, 15, 83);"/>
    </radialGradient>
  </defs>
  <g transform="matrix(0.854692, 0, 0, 0.854692, 289.278961, 207.081131)" style="">
    <title>+1 to cast</title>
    <circle style="paint-order: fill; fill: url(#gradient-3);" cx="250.028" cy="82.284" r="52.5" transform="matrix(1, 0, 0, 0.999999, -180.313995, -16.506966)">
      <title>Background</title>
    </circle>
    <path style="fill-opacity: 0.5;" d="M 80.068 65.755 C 80.045 69.416 78.099 72.785 74.947 74.634 C 68.067 78.654 59.412 73.728 59.36 65.755 C 59.36 60.155 63.814 55.573 69.414 55.408 C 75.246 55.236 80.068 59.923 80.068 65.755 Z M 61.299 65.755 C 61.254 68.847 62.908 71.714 65.604 73.219 C 71.263 76.386 78.226 72.238 78.136 65.755 C 78.136 61.008 74.213 57.198 69.474 57.34 C 64.915 57.475 61.299 61.203 61.299 65.755 Z M 104.235 65.755 C 104.235 78.093 97.661 89.488 86.978 95.657 C 63.964 108.945 35.193 92.333 35.193 65.755 C 35.193 47.083 50.039 31.795 68.71 31.249 C 88.161 30.68 104.235 46.297 104.235 65.755 Z M 42.38 48.012 L 59.472 48.012 L 68.014 33.21 C 57.593 33.757 48.062 39.26 42.38 48.012 Z M 79.963 48.012 L 97.048 48.012 C 91.365 39.26 81.835 33.757 71.413 33.21 Z M 61.703 48.012 L 77.732 48.012 L 69.714 34.131 Z M 50.346 63.823 L 58.356 49.943 L 42.327 49.943 Z M 51.454 65.755 L 60.587 81.567 L 78.847 81.567 L 87.974 65.755 L 78.847 49.943 L 60.587 49.943 Z M 89.089 63.823 L 97.1 49.943 L 81.071 49.943 Z M 40.68 80.556 L 49.223 65.755 L 40.68 50.954 C 35.941 60.252 35.941 71.258 40.68 80.556 Z M 90.205 65.755 L 98.754 80.556 C 103.494 71.258 103.494 60.252 98.754 50.954 Z M 42.327 81.567 L 58.356 81.567 L 50.346 67.686 Z M 81.071 81.567 L 97.1 81.567 L 89.089 67.686 Z M 68.014 98.299 L 59.472 83.498 L 42.38 83.498 C 48.062 92.25 57.593 97.753 68.014 98.299 Z M 69.714 97.379 L 77.732 83.498 L 61.703 83.498 Z M 71.413 98.299 C 81.835 97.753 91.365 92.25 97.048 83.498 L 79.963 83.498 Z M 113.196 65.755 C 113.241 81.372 104.901 95.814 91.35 103.593 C 62.317 120.25 26.141 99.228 26.231 65.755 C 26.194 42.179 44.948 22.864 68.523 22.212 C 93.027 21.546 113.241 41.244 113.196 65.755 Z M 28.17 65.755 C 28.095 80.758 36.106 94.646 49.14 102.073 C 76.923 117.915 111.444 97.738 111.272 65.755 C 111.355 42.337 92.069 23.47 68.658 24.069 C 46.071 24.653 28.095 43.168 28.17 65.755 Z" stroke="none"/>
    <path d="M 46.666 88.403 L 46.666 82.323 L 45.336 82.323 L 45.336 80.873 L 46.666 80.873 L 46.666 77.813 L 48.456 77.413 L 48.456 80.873 L 50.196 80.873 L 50.196 82.323 L 48.456 82.323 L 48.456 88.403 L 46.666 88.403 ZM 55.141 88.563 C 54.368 88.563 53.681 88.39 53.081 88.043 C 52.481 87.69 52.015 87.213 51.681 86.613 C 51.355 86.013 51.191 85.346 51.191 84.613 C 51.191 83.893 51.355 83.233 51.681 82.633 C 52.001 82.033 52.461 81.556 53.061 81.203 C 53.661 80.856 54.355 80.683 55.141 80.683 C 55.928 80.683 56.621 80.856 57.221 81.203 C 57.815 81.556 58.275 82.033 58.601 82.633 C 58.921 83.233 59.081 83.893 59.081 84.613 C 59.081 85.346 58.918 86.013 58.591 86.613 C 58.265 87.213 57.801 87.69 57.201 88.043 C 56.608 88.39 55.921 88.563 55.141 88.563 Z M 55.191 87.123 C 55.825 87.123 56.325 86.89 56.691 86.423 C 57.058 85.95 57.241 85.356 57.241 84.643 C 57.241 83.936 57.045 83.34 56.651 82.853 C 56.258 82.366 55.738 82.123 55.091 82.123 C 54.471 82.123 53.971 82.363 53.591 82.843 C 53.218 83.323 53.031 83.923 53.031 84.643 C 53.031 85.343 53.235 85.933 53.641 86.413 C 54.041 86.886 54.558 87.123 55.191 87.123 ZM 68.49 88.563 C 67.75 88.563 67.08 88.403 66.48 88.083 C 65.887 87.763 65.417 87.3 65.07 86.693 C 64.717 86.086 64.54 85.373 64.54 84.553 C 64.54 83.773 64.704 83.09 65.03 82.503 C 65.35 81.923 65.804 81.473 66.39 81.153 C 66.97 80.84 67.644 80.683 68.41 80.683 C 68.99 80.683 69.49 80.756 69.91 80.903 C 70.33 81.05 70.66 81.233 70.9 81.453 L 70.12 82.873 C 69.66 82.413 69.14 82.183 68.56 82.183 C 67.86 82.183 67.327 82.396 66.96 82.823 C 66.594 83.25 66.41 83.82 66.41 84.533 C 66.41 85.34 66.6 85.97 66.98 86.423 C 67.354 86.87 67.88 87.093 68.56 87.093 C 68.9 87.093 69.23 87.043 69.55 86.943 C 69.877 86.843 70.127 86.73 70.3 86.603 L 70.94 87.843 C 70.7 88.03 70.364 88.196 69.93 88.343 C 69.497 88.49 69.017 88.563 68.49 88.563 ZM 75.953 88.563 C 75.279 88.563 74.656 88.403 74.083 88.083 C 73.503 87.763 73.043 87.303 72.703 86.703 C 72.356 86.11 72.183 85.413 72.183 84.613 C 72.183 83.826 72.333 83.14 72.633 82.553 C 72.933 81.96 73.363 81.5 73.923 81.173 C 74.483 80.846 75.139 80.683 75.893 80.683 C 76.326 80.683 76.736 80.76 77.123 80.913 C 77.503 81.06 77.826 81.246 78.093 81.473 C 78.353 81.7 78.526 81.923 78.613 82.143 L 78.643 80.873 L 80.333 80.873 L 80.333 88.403 L 78.663 88.403 L 78.633 87.073 C 78.446 87.466 78.106 87.813 77.613 88.113 C 77.119 88.413 76.566 88.563 75.953 88.563 Z M 76.253 87.093 C 76.873 87.093 77.396 86.876 77.823 86.443 C 78.249 86.01 78.463 85.443 78.463 84.743 L 78.463 84.633 C 78.463 84.16 78.366 83.74 78.173 83.373 C 77.973 83 77.703 82.71 77.363 82.503 C 77.029 82.29 76.659 82.183 76.253 82.183 C 75.553 82.183 75.013 82.413 74.633 82.873 C 74.246 83.326 74.053 83.913 74.053 84.633 C 74.053 85.366 74.243 85.96 74.623 86.413 C 74.996 86.866 75.539 87.093 76.253 87.093 ZM 85.308 88.563 C 84.781 88.563 84.235 88.496 83.668 88.363 C 83.108 88.223 82.708 88.063 82.468 87.883 L 83.058 86.483 C 83.711 86.943 84.461 87.173 85.308 87.173 C 86.148 87.173 86.568 86.926 86.568 86.433 C 86.568 86.213 86.481 86.043 86.308 85.923 C 86.128 85.803 85.815 85.663 85.368 85.503 L 84.748 85.273 C 84.088 85.006 83.568 84.69 83.188 84.323 C 82.808 83.963 82.618 83.48 82.618 82.873 C 82.618 82.186 82.888 81.65 83.428 81.263 C 83.968 80.876 84.691 80.683 85.598 80.683 C 86.045 80.683 86.485 80.73 86.918 80.823 C 87.351 80.923 87.681 81.05 87.908 81.203 L 87.268 82.613 C 87.128 82.473 86.901 82.35 86.588 82.243 C 86.281 82.143 85.935 82.093 85.548 82.093 C 84.775 82.093 84.388 82.326 84.388 82.793 C 84.388 83.053 84.491 83.253 84.698 83.393 C 84.905 83.526 85.245 83.676 85.718 83.843 C 85.758 83.856 85.925 83.916 86.218 84.023 C 86.918 84.296 87.438 84.61 87.778 84.963 C 88.118 85.31 88.288 85.756 88.288 86.303 C 88.288 87.05 88.008 87.613 87.448 87.993 C 86.881 88.373 86.168 88.563 85.308 88.563 ZM 90.781 88.403 L 90.781 82.323 L 89.451 82.323 L 89.451 80.873 L 90.781 80.873 L 90.781 77.813 L 92.571 77.413 L 92.571 80.873 L 94.311 80.873 L 94.311 82.323 L 92.571 82.323 L 92.571 88.403 L 90.781 88.403 Z" transform="matrix(1, 0, 0, 1, 0, 0)" style="fill: rgb(255, 255, 255); white-space: pre;"/>
    <path d="M 60.397 64.077 L 60.397 56.757 L 52.867 56.757 L 52.867 53.087 L 60.397 53.087 L 60.397 45.767 L 64.257 45.767 L 64.257 53.087 L 71.817 53.087 L 71.817 56.757 L 64.257 56.757 L 64.257 64.077 L 60.397 64.077 ZM 80.365 67.737 L 80.365 38.917 L 84.865 37.647 L 84.865 67.737 L 80.365 67.737 Z" transform="matrix(1, 0, 0, 1, 0, 0)" style="fill: rgb(255, 255, 255); line-height: 71.1367px; white-space: pre;"/>
  </g>
</svg>