<?xml version="1.0" encoding="utf-8"?>
<svg viewBox="602.465 219.504 89.743 89.743" xmlns="http://www.w3.org/2000/svg">
  <defs>
    <radialGradient gradientUnits="userSpaceOnUse" cx="248.453" cy="40.947" r="52.5" id="gradient-10" gradientTransform="matrix(-0.00441, 1.296723, -0.999993, -0.003401, 291.220184, -280.752974)" spreadMethod="pad">
      <stop offset="0" style="stop-color: rgb(74, 204, 48);"/>
      <stop offset="1" style="stop-color: rgb(23, 68, 14);"/>
    </radialGradient>
  </defs>
  <g transform="matrix(0.854692, 0, 0, 0.854692, 587.752075, 208.15654)" style="">
    <title>+1 to run</title>
    <circle style="paint-order: fill; fill: url(#gradient-10);" cx="250.028" cy="82.284" r="52.5" transform="matrix(1, 0, 0, 0.999999, -180.313995, -16.506966)">
      <title>Background</title>
    </circle>
    <path d="M 47.436 99.019 C 47.982 99.184 48.55 99.268 49.121 99.269 C 51.563 99.261 53.746 97.747 54.612 95.463 L 59.496 82.432 L 73.361 76.678 L 77.646 82.39 C 79.438 84.762 82.374 85.983 85.321 85.581 L 98.173 83.959 C 102.647 83.372 104.808 78.161 102.061 74.58 C 100.949 73.131 99.223 72.282 97.395 72.286 C 97.139 72.285 96.885 72.303 96.631 72.336 L 85.836 73.693 L 80.145 66.196 L 71.463 53.079 C 75.223 53.347 79.001 53.153 82.715 52.501 L 84.814 52.13 C 88.722 51.456 90.436 46.805 87.899 43.757 C 86.721 42.342 84.878 41.664 83.065 41.975 L 81.494 42.255 C 76.618 43.121 71.627 43.121 66.749 42.255 L 60.623 41.126 C 60.402 41.083 60.18 41.054 59.953 41.027 L 59.474 40.976 C 58.472 40.848 57.456 40.889 56.469 41.098 C 55.08 41.409 53.783 42.043 52.683 42.947 C 49.087 46.019 48.357 51.296 50.984 55.229 L 60.346 69.387 L 53.598 72.186 C 51.496 73.061 49.85 74.767 49.049 76.899 L 43.238 92.415 C 42.608 93.923 42.769 95.646 43.666 97.012 C 44.543 98.228 45.937 98.968 47.436 99.019 Z M 47.25 93.921 L 53.062 78.398 C 53.445 77.378 54.233 76.561 55.24 76.142 L 64.387 72.351 C 65.652 71.837 66.12 70.286 65.35 69.159 L 54.555 52.864 C 53.122 50.767 53.491 47.929 55.411 46.268 C 55.997 45.782 56.69 45.443 57.431 45.276 C 57.705 45.216 57.987 45.188 58.267 45.189 C 58.505 45.19 58.745 45.205 58.981 45.232 L 59.452 45.282 L 59.838 45.339 L 65.964 46.446 C 71.34 47.401 76.84 47.401 82.215 46.446 L 83.772 46.167 C 84.429 46.057 84.958 46.7 84.725 47.323 C 84.617 47.612 84.362 47.823 84.058 47.874 L 81.916 48.245 C 77.122 49.082 72.22 49.082 67.428 48.245 C 65.802 47.972 64.49 49.563 65.067 51.108 C 65.124 51.259 65.198 51.403 65.286 51.536 L 76.568 68.58 L 76.646 68.688 L 83.072 77.255 C 83.535 77.869 84.289 78.187 85.05 78.091 L 97.103 76.577 C 98.306 76.412 99.236 77.612 98.778 78.737 C 98.565 79.259 98.089 79.628 97.532 79.705 L 84.679 81.326 C 83.311 81.467 81.968 80.898 81.116 79.819 L 75.804 72.772 C 75.222 71.98 74.178 71.686 73.269 72.058 L 56.996 78.827 C 56.448 79.054 56.019 79.498 55.811 80.055 L 50.598 93.956 C 50.277 94.755 49.38 95.156 48.571 94.863 C 48.331 94.774 48.077 94.728 47.821 94.728 C 47.595 94.755 47.366 94.693 47.186 94.556 C 47.124 94.345 47.144 94.118 47.244 93.921 Z M 52.648 37.65 C 52.648 31.053 45.508 26.931 39.796 30.228 C 34.084 33.527 34.084 41.772 39.796 45.069 C 41.097 45.821 42.575 46.217 44.08 46.217 C 48.812 46.213 52.644 42.374 52.641 37.642 Z M 39.76 37.65 C 39.76 34.351 43.33 32.29 46.186 33.939 C 49.042 35.587 49.042 39.71 46.186 41.359 C 45.535 41.736 44.795 41.934 44.044 41.934 C 41.672 41.937 39.749 40.013 39.753 37.642 Z M 95.96 56.042 C 97.609 56.042 98.64 57.828 97.816 59.255 C 97.432 59.918 96.725 60.326 95.96 60.326 L 81.937 60.326 C 80.287 60.326 79.257 58.541 80.082 57.113 C 80.464 56.451 81.171 56.042 81.937 56.042 Z M 101.772 67.609 L 87.756 67.609 C 86.107 67.609 85.077 65.824 85.901 64.396 C 86.284 63.734 86.991 63.325 87.756 63.325 L 101.772 63.325 C 103.421 63.325 104.451 65.11 103.627 66.539 C 103.244 67.2 102.537 67.609 101.772 67.609 Z" style="fill-opacity: 0.5;"/>
    <path d="M 243.265 154.292 L 243.265 146.562 L 241.575 146.562 L 241.575 144.732 L 243.265 144.732 L 243.265 140.842 L 245.535 140.342 L 245.535 144.732 L 247.745 144.732 L 247.745 146.562 L 245.535 146.562 L 245.535 154.292 L 243.265 154.292 ZM 254.025 154.502 C 253.045 154.502 252.172 154.279 251.405 153.832 C 250.645 153.392 250.055 152.789 249.635 152.022 C 249.222 151.256 249.015 150.409 249.015 149.482 C 249.015 148.569 249.219 147.729 249.625 146.962 C 250.032 146.196 250.619 145.592 251.385 145.152 C 252.152 144.706 253.032 144.482 254.025 144.482 C 255.025 144.482 255.905 144.706 256.665 145.152 C 257.419 145.592 258.002 146.196 258.415 146.962 C 258.822 147.729 259.025 148.569 259.025 149.482 C 259.025 150.409 258.819 151.256 258.405 152.022 C 257.985 152.789 257.399 153.392 256.645 153.832 C 255.885 154.279 255.012 154.502 254.025 154.502 Z M 254.095 152.672 C 254.895 152.672 255.529 152.372 255.995 151.772 C 256.462 151.172 256.695 150.422 256.695 149.522 C 256.695 148.622 256.445 147.862 255.945 147.242 C 255.445 146.622 254.785 146.312 253.965 146.312 C 253.179 146.312 252.545 146.619 252.065 147.232 C 251.585 147.846 251.345 148.609 251.345 149.522 C 251.345 150.409 251.602 151.156 252.115 151.762 C 252.629 152.369 253.289 152.672 254.095 152.672 ZM 266.461 154.292 L 266.461 144.732 L 268.701 144.732 L 268.701 146.612 C 268.927 145.972 269.291 145.459 269.791 145.072 C 270.291 144.679 270.861 144.482 271.501 144.482 C 271.941 144.482 272.244 144.526 272.411 144.612 L 272.101 146.882 C 271.974 146.796 271.704 146.752 271.291 146.752 C 270.637 146.752 270.044 146.962 269.511 147.382 C 268.971 147.796 268.701 148.462 268.701 149.382 L 268.701 154.292 L 266.461 154.292 ZM 277.304 154.502 C 275.984 154.502 275.078 154.112 274.584 153.332 C 274.091 152.559 273.844 151.476 273.844 150.082 L 273.844 144.732 L 276.094 144.732 L 276.094 149.522 C 276.094 150.316 276.141 150.929 276.234 151.362 C 276.321 151.802 276.501 152.126 276.774 152.332 C 277.041 152.539 277.448 152.642 277.994 152.642 C 278.381 152.642 278.754 152.532 279.114 152.312 C 279.474 152.092 279.771 151.792 280.004 151.412 C 280.231 151.026 280.344 150.606 280.344 150.152 L 280.344 144.732 L 282.574 144.732 L 282.574 154.292 L 280.744 154.292 L 280.494 152.892 C 280.141 153.439 279.704 153.842 279.184 154.102 C 278.664 154.369 278.038 154.502 277.304 154.502 ZM 285.569 154.292 L 285.569 144.732 L 287.779 144.732 L 287.799 146.482 C 288.059 145.902 288.476 145.422 289.049 145.042 C 289.616 144.669 290.279 144.482 291.039 144.482 C 292.026 144.482 292.782 144.689 293.309 145.102 C 293.842 145.509 294.199 146.079 294.379 146.812 C 294.559 147.552 294.649 148.512 294.649 149.692 L 294.649 154.292 L 292.399 154.292 L 292.399 149.752 C 292.399 148.546 292.279 147.676 292.039 147.142 C 291.806 146.609 291.322 146.342 290.589 146.342 C 290.169 146.342 289.746 146.469 289.319 146.722 C 288.886 146.982 288.526 147.352 288.239 147.832 C 287.959 148.319 287.819 148.889 287.819 149.542 L 287.819 154.292 L 285.569 154.292 Z" transform="matrix(0.7866309285163879, 0, 0, 0.7866309285163879, -141.50254821777344, -33.865718841552734)" style="fill: rgb(255, 255, 255); line-height: 38.0767px; white-space: pre;"/>
    <path d="M 60.392 63.274 L 60.392 55.954 L 52.862 55.954 L 52.862 52.284 L 60.392 52.284 L 60.392 44.964 L 64.252 44.964 L 64.252 52.284 L 71.812 52.284 L 71.812 55.954 L 64.252 55.954 L 64.252 63.274 L 60.392 63.274 ZM 80.36 66.934 L 80.36 38.114 L 84.86 36.844 L 84.86 66.934 L 80.36 66.934 Z" transform="matrix(1, 0, 0, 1, 0, 0)" style="fill: rgb(255, 255, 255); line-height: 63.6487px; white-space: pre;"/>
  </g>
</svg>