<?xml version="1.0" encoding="utf-8"?>
<svg viewBox="401.145 218.092 89.743 89.743" xmlns="http://www.w3.org/2000/svg">
  <defs>
    <radialGradient gradientUnits="userSpaceOnUse" cx="248.453" cy="40.947" r="52.5" id="gradient-21" gradientTransform="matrix(-0.00441, 1.296722, -0.999993, -0.003401, 110.908241, -297.952515)" spreadMethod="pad">
      <stop offset="0" style="stop-color: rgb(216, 32, 32);"/>
      <stop offset="1" style="stop-color: rgb(48, 18, 18);"/>
    </radialGradient>
  </defs>
  <g style="" transform="matrix(0.854692, 0, 0, 0.854692, 386.430725, 207.336838)">
    <title>+1 to wound</title>
    <circle style="paint-order: fill; fill: url(#gradient-21);" cx="69.716" cy="65.084" r="52.5">
      <title>Background</title>
    </circle>
    <g transform="matrix(1.463582, 0, 0, 1.463582, -477.099274, -74.264618)">
      <title>drops</title>
      <path d="M 379.613 104.193 C 379.613 96.283 366.053 72.693 365.483 71.693 C 365.123 71.073 364.103 71.073 363.743 71.693 C 363.173 72.693 349.613 96.283 349.613 104.193 C 349.613 112.463 356.343 119.193 364.613 119.193 C 372.883 119.193 379.613 112.463 379.613 104.193 Z M 363.613 112.193 C 363.613 111.633 364.063 111.193 364.613 111.193 C 368.473 111.193 371.613 108.053 371.613 104.193 C 371.613 103.633 372.063 103.193 372.613 103.193 C 373.163 103.193 373.613 103.633 373.613 104.193 C 373.613 109.153 369.573 113.193 364.613 113.193 C 364.063 113.193 363.613 112.743 363.613 112.193 Z" style="fill-opacity: 0.5;"/>
      <path d="M 384.743 81.553 C 384.703 81.613 381.503 87.183 378.563 93.233 C 380.363 97.603 381.613 101.583 381.613 104.193 C 381.613 108.613 379.913 112.653 377.123 115.673 C 379.333 117.893 382.373 119.193 385.613 119.193 C 392.233 119.193 397.613 113.803 397.613 107.193 C 397.613 100.913 386.933 82.333 386.483 81.553 C 386.123 80.933 385.103 80.933 384.743 81.553 Z M 390.613 107.193 C 390.613 106.633 391.063 106.193 391.613 106.193 C 392.163 106.193 392.613 106.633 392.613 107.193 C 392.613 111.053 389.473 114.193 385.613 114.193 C 385.063 114.193 384.613 113.743 384.613 113.193 C 384.613 112.633 385.063 112.193 385.613 112.193 C 388.373 112.193 390.613 109.943 390.613 107.193 Z" style="fill-opacity: 0.5;"/>
    </g>
    <path d="M 37.419 88.104 L 37.419 82.024 L 36.089 82.024 L 36.089 80.574 L 37.419 80.574 L 37.419 77.514 L 39.209 77.114 L 39.209 80.574 L 40.949 80.574 L 40.949 82.024 L 39.209 82.024 L 39.209 88.104 L 37.419 88.104 ZM 45.894 88.264 C 45.121 88.264 44.434 88.091 43.834 87.744 C 43.234 87.391 42.768 86.914 42.434 86.314 C 42.108 85.714 41.944 85.047 41.944 84.314 C 41.944 83.594 42.108 82.934 42.434 82.334 C 42.754 81.734 43.214 81.257 43.814 80.904 C 44.414 80.557 45.108 80.384 45.894 80.384 C 46.681 80.384 47.374 80.557 47.974 80.904 C 48.568 81.257 49.028 81.734 49.354 82.334 C 49.674 82.934 49.834 83.594 49.834 84.314 C 49.834 85.047 49.671 85.714 49.344 86.314 C 49.018 86.914 48.554 87.391 47.954 87.744 C 47.361 88.091 46.674 88.264 45.894 88.264 Z M 45.944 86.824 C 46.578 86.824 47.078 86.591 47.444 86.124 C 47.811 85.651 47.994 85.057 47.994 84.344 C 47.994 83.637 47.798 83.041 47.404 82.554 C 47.011 82.067 46.491 81.824 45.844 81.824 C 45.224 81.824 44.724 82.064 44.344 82.544 C 43.971 83.024 43.784 83.624 43.784 84.344 C 43.784 85.044 43.988 85.634 44.394 86.114 C 44.794 86.587 45.311 86.824 45.944 86.824 ZM 62.563 88.104 L 60.333 83.924 L 58.103 88.104 L 57.783 88.104 L 54.623 80.574 L 56.523 80.574 L 58.153 84.954 L 60.293 80.574 L 60.363 80.574 L 62.523 84.924 L 64.153 80.574 L 66.023 80.574 L 62.873 88.104 L 62.563 88.104 ZM 70.543 88.264 C 69.769 88.264 69.083 88.091 68.483 87.744 C 67.883 87.391 67.416 86.914 67.083 86.314 C 66.756 85.714 66.593 85.047 66.593 84.314 C 66.593 83.594 66.756 82.934 67.083 82.334 C 67.403 81.734 67.863 81.257 68.463 80.904 C 69.063 80.557 69.756 80.384 70.543 80.384 C 71.329 80.384 72.023 80.557 72.623 80.904 C 73.216 81.257 73.676 81.734 74.003 82.334 C 74.323 82.934 74.483 83.594 74.483 84.314 C 74.483 85.047 74.319 85.714 73.993 86.314 C 73.666 86.914 73.203 87.391 72.603 87.744 C 72.009 88.091 71.323 88.264 70.543 88.264 Z M 70.593 86.824 C 71.226 86.824 71.726 86.591 72.093 86.124 C 72.459 85.651 72.643 85.057 72.643 84.344 C 72.643 83.637 72.446 83.041 72.053 82.554 C 71.659 82.067 71.139 81.824 70.493 81.824 C 69.873 81.824 69.373 82.064 68.993 82.544 C 68.619 83.024 68.433 83.624 68.433 84.344 C 68.433 85.044 68.636 85.634 69.043 86.114 C 69.443 86.587 69.959 86.824 70.593 86.824 ZM 78.974 88.264 C 77.934 88.264 77.22 87.961 76.834 87.354 C 76.447 86.741 76.254 85.887 76.254 84.794 L 76.254 80.574 L 78.024 80.574 L 78.024 84.344 C 78.024 84.971 78.06 85.457 78.134 85.804 C 78.2 86.144 78.34 86.397 78.554 86.564 C 78.767 86.724 79.087 86.804 79.514 86.804 C 79.82 86.804 80.117 86.717 80.404 86.544 C 80.69 86.371 80.924 86.134 81.104 85.834 C 81.284 85.534 81.374 85.204 81.374 84.844 L 81.374 80.574 L 83.124 80.574 L 83.124 88.104 L 81.684 88.104 L 81.484 87.004 C 81.21 87.431 80.87 87.747 80.464 87.954 C 80.05 88.161 79.554 88.264 78.974 88.264 ZM 85.482 88.104 L 85.482 80.574 L 87.222 80.574 L 87.242 81.954 C 87.448 81.494 87.775 81.117 88.222 80.824 C 88.675 80.531 89.202 80.384 89.802 80.384 C 90.575 80.384 91.172 80.544 91.592 80.864 C 92.005 81.184 92.282 81.634 92.422 82.214 C 92.562 82.794 92.632 83.551 92.632 84.484 L 92.632 88.104 L 90.862 88.104 L 90.862 84.524 C 90.862 83.577 90.768 82.894 90.582 82.474 C 90.402 82.054 90.022 81.844 89.442 81.844 C 89.108 81.844 88.775 81.944 88.442 82.144 C 88.102 82.344 87.818 82.637 87.592 83.024 C 87.372 83.404 87.262 83.851 87.262 84.364 L 87.262 88.104 L 85.482 88.104 ZM 98.241 88.264 C 97.568 88.264 96.945 88.104 96.371 87.784 C 95.791 87.464 95.331 87.004 94.991 86.404 C 94.645 85.811 94.471 85.114 94.471 84.314 C 94.471 83.121 94.805 82.167 95.471 81.454 C 96.138 80.741 97.041 80.384 98.181 80.384 C 98.815 80.384 99.395 80.537 99.921 80.844 C 100.441 81.157 100.795 81.534 100.981 81.974 L 100.901 80.694 L 100.901 76.054 L 102.641 76.054 L 102.641 88.104 L 100.951 88.104 L 100.921 86.774 C 100.735 87.167 100.395 87.514 99.901 87.814 C 99.408 88.114 98.855 88.264 98.241 88.264 Z M 98.541 86.774 C 99.161 86.774 99.685 86.557 100.111 86.124 C 100.538 85.697 100.751 85.134 100.751 84.434 L 100.751 84.314 C 100.751 83.847 100.655 83.427 100.461 83.054 C 100.261 82.681 99.991 82.391 99.651 82.184 C 99.318 81.977 98.948 81.874 98.541 81.874 C 97.841 81.874 97.301 82.101 96.921 82.554 C 96.535 83.007 96.341 83.594 96.341 84.314 C 96.341 85.047 96.531 85.641 96.911 86.094 C 97.285 86.547 97.828 86.774 98.541 86.774 Z" transform="matrix(1, 0, 0, 1, 0, 0)" style="fill: rgb(255, 255, 255); white-space: pre;"/>
    <path d="M 60.389 64.478 L 60.389 57.158 L 52.859 57.158 L 52.859 53.488 L 60.389 53.488 L 60.389 46.168 L 64.249 46.168 L 64.249 53.488 L 71.809 53.488 L 71.809 57.158 L 64.249 57.158 L 64.249 64.478 L 60.389 64.478 ZM 80.357 68.138 L 80.357 39.318 L 84.857 38.048 L 84.857 68.138 L 80.357 68.138 Z" transform="matrix(1, 0, 0, 1, 0, 0)" style="fill: rgb(255, 255, 255); line-height: 71.1367px; white-space: pre;"/>
  </g>
</svg>