<?xml version="1.0" encoding="utf-8"?>
<svg viewBox="106.039 218.092 89.743 89.743" xmlns="http://www.w3.org/2000/svg">
  <defs>
    <radialGradient gradientUnits="userSpaceOnUse" cx="248.453" cy="40.947" r="52.5" id="gradient-13" gradientTransform="matrix(-0.00441, 1.296723, -0.999993, -0.003401, 291.220184, -280.752913)" spreadMethod="pad">
      <stop offset="0" style="stop-color: rgb(48, 61, 204);"/>
      <stop offset="1" style="stop-color: rgb(10, 21, 98);"/>
    </radialGradient>
  </defs>
  <g transform="matrix(0.854692, 0, 0, 0.854692, 91.325912, 206.744385)" style="">
    <title>+1 to save</title>
    <circle style="paint-order: fill; fill: url(#gradient-13);" cx="250.028" cy="82.284" r="52.5" transform="matrix(1, 0, 0, 0.999999, -180.313995, -16.506966)">
      <title>Background</title>
    </circle>
    <g transform="matrix(0.794868, 0, 0, 0.794868, -196.593338, -26.20508)" style="">
      <title>Shield</title>
      <path d="M 335.256 71.905 L 335.056 71.885 Z" style="fill-opacity: 0.5;"/>
      <path d="M 335.056 117.545 L 335.056 117.545 L 335.056 117.545 L 335.056 117.545 L 335.056 117.545 L 335.056 117.545 Z" style="fill-opacity: 0.5;"/>
      <path d="M 375.056 83.315 C 362.043 77.555 349.043 71.769 336.056 65.955 C 335.459 65.652 334.754 65.652 334.156 65.955 C 321.096 71.802 308.033 77.599 294.966 83.345 C 294.31 83.52 293.884 84.152 293.966 84.825 C 294.056 93.725 293.956 102.635 294.056 111.545 C 294.075 114.462 294.312 117.374 294.766 120.255 C 296.227 129.426 299.892 138.104 305.446 145.545 C 312.546 155.115 321.626 161.955 333.126 165.415 C 334.369 165.811 335.704 165.811 336.946 165.415 C 347.567 162.243 356.902 155.77 363.596 146.935 C 371.741 136.709 376.151 124.009 376.096 110.935 C 376.096 107.085 376.096 103.245 376.096 99.395 C 376.096 94.585 376.096 89.775 376.096 84.965 C 376.199 84.235 375.759 83.538 375.056 83.315 Z M 335.056 117.565 L 335.056 117.565 L 335.056 117.565 L 335.056 117.565 L 335.056 117.565 Z M 335.256 71.905 L 335.056 71.885 Z M 309.056 141.875 C 304.199 135.355 300.994 127.755 299.716 119.725 C 299.304 117.189 299.083 114.625 299.056 112.055 C 299.056 104.245 299.056 96.435 299.056 88.625 C 298.98 88.038 299.346 87.484 299.916 87.325 C 311.343 82.259 322.786 77.172 334.246 72.065 C 334.482 71.957 334.737 71.896 334.996 71.885 L 334.996 159.575 C 334.444 159.566 333.895 159.478 333.366 159.315 C 323.558 156.35 315.009 150.217 309.056 141.875 Z" style="fill-opacity: 0.5;"/>
    </g>
    <path d="M 44.937 88.878 L 44.937 82.798 L 43.607 82.798 L 43.607 81.348 L 44.937 81.348 L 44.937 78.288 L 46.727 77.888 L 46.727 81.348 L 48.467 81.348 L 48.467 82.798 L 46.727 82.798 L 46.727 88.878 L 44.937 88.878 ZM 53.412 89.038 C 52.639 89.038 51.952 88.865 51.352 88.518 C 50.752 88.165 50.286 87.688 49.952 87.088 C 49.626 86.488 49.462 85.821 49.462 85.088 C 49.462 84.368 49.626 83.708 49.952 83.108 C 50.272 82.508 50.732 82.031 51.332 81.678 C 51.932 81.331 52.626 81.158 53.412 81.158 C 54.199 81.158 54.892 81.331 55.492 81.678 C 56.086 82.031 56.546 82.508 56.872 83.108 C 57.192 83.708 57.352 84.368 57.352 85.088 C 57.352 85.821 57.189 86.488 56.862 87.088 C 56.536 87.688 56.072 88.165 55.472 88.518 C 54.879 88.865 54.192 89.038 53.412 89.038 Z M 53.462 87.598 C 54.096 87.598 54.596 87.365 54.962 86.898 C 55.329 86.425 55.512 85.831 55.512 85.118 C 55.512 84.411 55.316 83.815 54.922 83.328 C 54.529 82.841 54.009 82.598 53.362 82.598 C 52.742 82.598 52.242 82.838 51.862 83.318 C 51.489 83.798 51.302 84.398 51.302 85.118 C 51.302 85.818 51.506 86.408 51.912 86.888 C 52.312 87.361 52.829 87.598 53.462 87.598 ZM 65.851 89.038 C 65.325 89.038 64.778 88.971 64.211 88.838 C 63.651 88.698 63.251 88.538 63.011 88.358 L 63.601 86.958 C 64.255 87.418 65.005 87.648 65.851 87.648 C 66.691 87.648 67.111 87.401 67.111 86.908 C 67.111 86.688 67.025 86.518 66.851 86.398 C 66.671 86.278 66.358 86.138 65.911 85.978 L 65.291 85.748 C 64.631 85.481 64.111 85.165 63.731 84.798 C 63.351 84.438 63.161 83.955 63.161 83.348 C 63.161 82.661 63.431 82.125 63.971 81.738 C 64.511 81.351 65.235 81.158 66.141 81.158 C 66.588 81.158 67.028 81.205 67.461 81.298 C 67.895 81.398 68.225 81.525 68.451 81.678 L 67.811 83.088 C 67.671 82.948 67.445 82.825 67.131 82.718 C 66.825 82.618 66.478 82.568 66.091 82.568 C 65.318 82.568 64.931 82.801 64.931 83.268 C 64.931 83.528 65.035 83.728 65.241 83.868 C 65.448 84.001 65.788 84.151 66.261 84.318 C 66.301 84.331 66.468 84.391 66.761 84.498 C 67.461 84.771 67.981 85.085 68.321 85.438 C 68.661 85.785 68.831 86.231 68.831 86.778 C 68.831 87.525 68.551 88.088 67.991 88.468 C 67.425 88.848 66.711 89.038 65.851 89.038 ZM 73.994 89.038 C 73.32 89.038 72.697 88.878 72.124 88.558 C 71.544 88.238 71.084 87.778 70.744 87.178 C 70.397 86.585 70.224 85.888 70.224 85.088 C 70.224 84.301 70.374 83.615 70.674 83.028 C 70.974 82.435 71.404 81.975 71.964 81.648 C 72.524 81.321 73.18 81.158 73.934 81.158 C 74.367 81.158 74.777 81.235 75.164 81.388 C 75.544 81.535 75.867 81.721 76.134 81.948 C 76.394 82.175 76.567 82.398 76.654 82.618 L 76.684 81.348 L 78.374 81.348 L 78.374 88.878 L 76.704 88.878 L 76.674 87.548 C 76.487 87.941 76.147 88.288 75.654 88.588 C 75.16 88.888 74.607 89.038 73.994 89.038 Z M 74.294 87.568 C 74.914 87.568 75.437 87.351 75.864 86.918 C 76.29 86.485 76.504 85.918 76.504 85.218 L 76.504 85.108 C 76.504 84.635 76.407 84.215 76.214 83.848 C 76.014 83.475 75.744 83.185 75.404 82.978 C 75.07 82.765 74.7 82.658 74.294 82.658 C 73.594 82.658 73.054 82.888 72.674 83.348 C 72.287 83.801 72.094 84.388 72.094 85.108 C 72.094 85.841 72.284 86.435 72.664 86.888 C 73.037 87.341 73.58 87.568 74.294 87.568 ZM 83.529 88.878 L 79.559 81.348 L 81.569 81.348 L 83.199 84.748 L 83.719 86.108 L 84.249 84.748 L 85.849 81.348 L 87.819 81.348 L 83.869 88.878 L 83.529 88.878 ZM 92.312 89.038 C 91.419 89.038 90.672 88.861 90.072 88.508 C 89.466 88.155 89.022 87.678 88.742 87.078 C 88.456 86.485 88.312 85.831 88.312 85.118 C 88.312 84.325 88.479 83.628 88.812 83.028 C 89.146 82.421 89.609 81.958 90.202 81.638 C 90.789 81.318 91.456 81.158 92.202 81.158 C 93.362 81.158 94.222 81.478 94.782 82.118 C 95.349 82.751 95.632 83.648 95.632 84.808 C 95.632 85.108 95.616 85.415 95.582 85.728 L 90.162 85.728 C 90.289 86.395 90.529 86.875 90.882 87.168 C 91.236 87.468 91.729 87.618 92.362 87.618 C 92.889 87.618 93.322 87.575 93.662 87.488 C 94.002 87.395 94.312 87.275 94.592 87.128 L 95.132 88.388 C 94.859 88.561 94.489 88.715 94.022 88.848 C 93.549 88.975 92.979 89.038 92.312 89.038 Z M 90.162 84.498 L 93.902 84.498 C 93.916 83.818 93.769 83.341 93.462 83.068 C 93.156 82.788 92.719 82.648 92.152 82.648 C 91.006 82.648 90.342 83.265 90.162 84.498 Z" transform="matrix(1, 0, 0, 1, 0, 0)" style="fill: rgb(255, 255, 255); white-space: pre;"/>
    <path d="M 60.391 64.801 L 60.391 57.481 L 52.861 57.481 L 52.861 53.811 L 60.391 53.811 L 60.391 46.491 L 64.251 46.491 L 64.251 53.811 L 71.811 53.811 L 71.811 57.481 L 64.251 57.481 L 64.251 64.801 L 60.391 64.801 ZM 80.359 68.461 L 80.359 39.641 L 84.859 38.371 L 84.859 68.461 L 80.359 68.461 Z" transform="matrix(1, 0, 0, 1, 0, 0)" style="fill: rgb(255, 255, 255); line-height: 71.1367px; white-space: pre;"/>
  </g>
</svg>