<?xml version="1.0" encoding="utf-8"?>
<svg viewBox="800.718 219.504 89.743 89.743" xmlns="http://www.w3.org/2000/svg">
  <defs>
    <radialGradient gradientUnits="userSpaceOnUse" cx="248.453" cy="40.947" r="52.5" id="gradient-22" gradientTransform="matrix(-0.00441, 1.296723, -0.999993, -0.003401, 291.220184, -280.752974)" spreadMethod="pad">
      <stop offset="0" style="stop-color: rgb(74, 204, 48);"/>
      <stop offset="1" style="stop-color: rgb(23, 68, 14);"/>
    </radialGradient>
  </defs>
  <g transform="matrix(0.854692, 0, 0, 0.854692, 786.005737, 208.15654)" style="">
    <title>+1 to charge</title>
    <circle style="paint-order: fill; fill: url(#gradient-22);" cx="250.028" cy="82.284" r="52.5" transform="matrix(1, 0, 0, 0.999999, -180.313995, -16.506966)">
      <title>Background</title>
    </circle>
    <path d="M 47.436 99.019 C 47.982 99.184 48.55 99.268 49.121 99.269 C 51.563 99.261 53.746 97.747 54.612 95.463 L 59.496 82.432 L 73.361 76.678 L 77.646 82.39 C 79.438 84.762 82.374 85.983 85.321 85.581 L 98.173 83.959 C 102.647 83.372 104.808 78.161 102.061 74.58 C 100.949 73.131 99.223 72.282 97.395 72.286 C 97.139 72.285 96.885 72.303 96.631 72.336 L 85.836 73.693 L 80.145 66.196 L 71.463 53.079 C 75.223 53.347 79.001 53.153 82.715 52.501 L 84.814 52.13 C 88.722 51.456 90.436 46.805 87.899 43.757 C 86.721 42.342 84.878 41.664 83.065 41.975 L 81.494 42.255 C 76.618 43.121 71.627 43.121 66.749 42.255 L 60.623 41.126 C 60.402 41.083 60.18 41.054 59.953 41.027 L 59.474 40.976 C 58.472 40.848 57.456 40.889 56.469 41.098 C 55.08 41.409 53.783 42.043 52.683 42.947 C 49.087 46.019 48.357 51.296 50.984 55.229 L 60.346 69.387 L 53.598 72.186 C 51.496 73.061 49.85 74.767 49.049 76.899 L 43.238 92.415 C 42.608 93.923 42.769 95.646 43.666 97.012 C 44.543 98.228 45.937 98.968 47.436 99.019 Z M 47.25 93.921 L 53.062 78.398 C 53.445 77.378 54.233 76.561 55.24 76.142 L 64.387 72.351 C 65.652 71.837 66.12 70.286 65.35 69.159 L 54.555 52.864 C 53.122 50.767 53.491 47.929 55.411 46.268 C 55.997 45.782 56.69 45.443 57.431 45.276 C 57.705 45.216 57.987 45.188 58.267 45.189 C 58.505 45.19 58.745 45.205 58.981 45.232 L 59.452 45.282 L 59.838 45.339 L 65.964 46.446 C 71.34 47.401 76.84 47.401 82.215 46.446 L 83.772 46.167 C 84.429 46.057 84.958 46.7 84.725 47.323 C 84.617 47.612 84.362 47.823 84.058 47.874 L 81.916 48.245 C 77.122 49.082 72.22 49.082 67.428 48.245 C 65.802 47.972 64.49 49.563 65.067 51.108 C 65.124 51.259 65.198 51.403 65.286 51.536 L 76.568 68.58 L 76.646 68.688 L 83.072 77.255 C 83.535 77.869 84.289 78.187 85.05 78.091 L 97.103 76.577 C 98.306 76.412 99.236 77.612 98.778 78.737 C 98.565 79.259 98.089 79.628 97.532 79.705 L 84.679 81.326 C 83.311 81.467 81.968 80.898 81.116 79.819 L 75.804 72.772 C 75.222 71.98 74.178 71.686 73.269 72.058 L 56.996 78.827 C 56.448 79.054 56.019 79.498 55.811 80.055 L 50.598 93.956 C 50.277 94.755 49.38 95.156 48.571 94.863 C 48.331 94.774 48.077 94.728 47.821 94.728 C 47.595 94.755 47.366 94.693 47.186 94.556 C 47.124 94.345 47.144 94.118 47.244 93.921 Z M 52.648 37.65 C 52.648 31.053 45.508 26.931 39.796 30.228 C 34.084 33.527 34.084 41.772 39.796 45.069 C 41.097 45.821 42.575 46.217 44.08 46.217 C 48.812 46.213 52.644 42.374 52.641 37.642 Z M 39.76 37.65 C 39.76 34.351 43.33 32.29 46.186 33.939 C 49.042 35.587 49.042 39.71 46.186 41.359 C 45.535 41.736 44.795 41.934 44.044 41.934 C 41.672 41.937 39.749 40.013 39.753 37.642 Z M 95.96 56.042 C 97.609 56.042 98.64 57.828 97.816 59.255 C 97.432 59.918 96.725 60.326 95.96 60.326 L 81.937 60.326 C 80.287 60.326 79.257 58.541 80.082 57.113 C 80.464 56.451 81.171 56.042 81.937 56.042 Z M 101.772 67.609 L 87.756 67.609 C 86.107 67.609 85.077 65.824 85.901 64.396 C 86.284 63.734 86.991 63.325 87.756 63.325 L 101.772 63.325 C 103.421 63.325 104.451 65.11 103.627 66.539 C 103.244 67.2 102.537 67.609 101.772 67.609 Z" style="fill-opacity: 0.5;"/>
    <path d="M 225.944 154.292 L 225.944 146.562 L 224.254 146.562 L 224.254 144.732 L 225.944 144.732 L 225.944 140.842 L 228.214 140.342 L 228.214 144.732 L 230.424 144.732 L 230.424 146.562 L 228.214 146.562 L 228.214 154.292 L 225.944 154.292 ZM 236.705 154.502 C 235.725 154.502 234.851 154.279 234.085 153.832 C 233.325 153.392 232.735 152.789 232.315 152.022 C 231.901 151.256 231.695 150.409 231.695 149.482 C 231.695 148.569 231.898 147.729 232.305 146.962 C 232.711 146.196 233.298 145.592 234.065 145.152 C 234.831 144.706 235.711 144.482 236.705 144.482 C 237.705 144.482 238.585 144.706 239.345 145.152 C 240.098 145.592 240.681 146.196 241.095 146.962 C 241.501 147.729 241.705 148.569 241.705 149.482 C 241.705 150.409 241.498 151.256 241.085 152.022 C 240.665 152.789 240.078 153.392 239.325 153.832 C 238.565 154.279 237.691 154.502 236.705 154.502 Z M 236.775 152.672 C 237.575 152.672 238.208 152.372 238.675 151.772 C 239.141 151.172 239.375 150.422 239.375 149.522 C 239.375 148.622 239.125 147.862 238.625 147.242 C 238.125 146.622 237.465 146.312 236.645 146.312 C 235.858 146.312 235.225 146.619 234.745 147.232 C 234.265 147.846 234.025 148.609 234.025 149.522 C 234.025 150.409 234.281 151.156 234.795 151.762 C 235.308 152.369 235.968 152.672 236.775 152.672 ZM 253.65 154.502 C 252.71 154.502 251.86 154.296 251.1 153.882 C 250.347 153.476 249.747 152.886 249.3 152.112 C 248.86 151.346 248.64 150.442 248.64 149.402 C 248.64 148.416 248.844 147.549 249.25 146.802 C 249.657 146.062 250.234 145.492 250.98 145.092 C 251.72 144.686 252.577 144.482 253.55 144.482 C 254.284 144.482 254.92 144.576 255.46 144.762 C 255.994 144.949 256.414 145.182 256.72 145.462 L 255.72 147.272 C 255.134 146.692 254.474 146.402 253.74 146.402 C 252.854 146.402 252.177 146.672 251.71 147.212 C 251.244 147.752 251.01 148.476 251.01 149.382 C 251.01 150.409 251.25 151.206 251.73 151.772 C 252.21 152.339 252.88 152.622 253.74 152.622 C 254.167 152.622 254.587 152.562 255 152.442 C 255.407 152.316 255.724 152.169 255.95 152.002 L 256.76 153.582 C 256.454 153.822 256.027 154.036 255.48 154.222 C 254.927 154.409 254.317 154.502 253.65 154.502 ZM 259.002 154.292 L 259.002 138.982 L 261.192 138.982 L 261.192 144.732 L 261.112 146.502 C 261.372 145.922 261.795 145.439 262.382 145.052 C 262.962 144.672 263.642 144.482 264.422 144.482 C 265.408 144.482 266.165 144.689 266.692 145.102 C 267.218 145.509 267.572 146.079 267.752 146.812 C 267.932 147.552 268.022 148.512 268.022 149.692 L 268.022 154.292 L 265.792 154.292 L 265.792 149.672 C 265.792 148.866 265.748 148.232 265.662 147.772 C 265.568 147.319 265.385 146.972 265.112 146.732 C 264.845 146.499 264.455 146.382 263.942 146.382 C 263.522 146.382 263.102 146.506 262.682 146.752 C 262.255 147.006 261.905 147.372 261.632 147.852 C 261.352 148.326 261.212 148.889 261.212 149.542 L 261.212 154.292 L 259.002 154.292 ZM 275.102 154.502 C 274.235 154.502 273.438 154.296 272.712 153.882 C 271.985 153.476 271.402 152.892 270.962 152.132 C 270.528 151.379 270.312 150.496 270.312 149.482 C 270.312 148.482 270.502 147.609 270.882 146.862 C 271.262 146.109 271.805 145.526 272.512 145.112 C 273.225 144.692 274.058 144.482 275.012 144.482 C 275.572 144.482 276.092 144.579 276.572 144.772 C 277.058 144.972 277.468 145.212 277.802 145.492 C 278.135 145.779 278.358 146.062 278.472 146.342 L 278.512 144.732 L 280.662 144.732 L 280.662 154.292 L 278.532 154.292 L 278.492 152.602 C 278.258 153.102 277.828 153.546 277.202 153.932 C 276.575 154.312 275.875 154.502 275.102 154.502 Z M 275.472 152.622 C 276.265 152.622 276.932 152.349 277.472 151.802 C 278.012 151.256 278.282 150.539 278.282 149.652 L 278.282 149.502 C 278.282 148.909 278.158 148.376 277.912 147.902 C 277.658 147.429 277.318 147.059 276.892 146.792 C 276.458 146.532 275.985 146.402 275.472 146.402 C 274.585 146.402 273.898 146.689 273.412 147.262 C 272.925 147.842 272.682 148.589 272.682 149.502 C 272.682 150.436 272.922 151.189 273.402 151.762 C 273.882 152.336 274.572 152.622 275.472 152.622 ZM 283.615 154.292 L 283.615 144.732 L 285.855 144.732 L 285.855 146.612 C 286.081 145.972 286.445 145.459 286.945 145.072 C 287.445 144.679 288.015 144.482 288.655 144.482 C 289.095 144.482 289.398 144.526 289.565 144.612 L 289.255 146.882 C 289.128 146.796 288.858 146.752 288.445 146.752 C 287.791 146.752 287.198 146.962 286.665 147.382 C 286.125 147.796 285.855 148.462 285.855 149.382 L 285.855 154.292 L 283.615 154.292 ZM 295.788 159.292 C 295.082 159.292 294.385 159.196 293.698 159.002 C 293.012 158.802 292.522 158.619 292.228 158.452 L 292.728 156.372 C 293.648 156.972 294.648 157.272 295.728 157.272 C 296.562 157.272 297.262 157.069 297.828 156.662 C 298.402 156.262 298.695 155.479 298.708 154.312 L 298.708 152.602 C 298.415 153.149 297.942 153.602 297.288 153.962 C 296.635 154.322 295.915 154.502 295.128 154.502 C 294.295 154.502 293.532 154.296 292.838 153.882 C 292.138 153.476 291.588 152.889 291.188 152.122 C 290.788 151.362 290.588 150.476 290.588 149.462 C 290.588 148.489 290.778 147.626 291.158 146.872 C 291.538 146.112 292.082 145.526 292.788 145.112 C 293.502 144.692 294.328 144.482 295.268 144.482 C 295.822 144.482 296.342 144.579 296.828 144.772 C 297.315 144.972 297.728 145.212 298.068 145.492 C 298.408 145.779 298.635 146.062 298.748 146.342 L 298.788 144.732 L 300.908 144.732 L 300.908 154.232 C 300.908 155.852 300.495 157.102 299.668 157.982 C 298.835 158.856 297.542 159.292 295.788 159.292 Z M 295.748 152.602 C 296.542 152.602 297.208 152.329 297.748 151.782 C 298.288 151.236 298.558 150.519 298.558 149.632 L 298.558 149.482 C 298.558 148.882 298.435 148.349 298.188 147.882 C 297.935 147.409 297.595 147.039 297.168 146.772 C 296.735 146.512 296.262 146.382 295.748 146.382 C 294.862 146.382 294.175 146.669 293.688 147.242 C 293.202 147.822 292.958 148.569 292.958 149.482 C 292.958 150.409 293.198 151.162 293.678 151.742 C 294.158 152.316 294.848 152.602 295.748 152.602 ZM 308.305 154.502 C 307.165 154.502 306.211 154.276 305.445 153.822 C 304.685 153.369 304.125 152.766 303.765 152.012 C 303.405 151.252 303.225 150.422 303.225 149.522 C 303.225 148.509 303.435 147.622 303.855 146.862 C 304.281 146.096 304.868 145.509 305.615 145.102 C 306.368 144.689 307.215 144.482 308.155 144.482 C 309.628 144.482 310.721 144.889 311.435 145.702 C 312.148 146.516 312.505 147.659 312.505 149.132 C 312.505 149.506 312.485 149.892 312.445 150.292 L 305.575 150.292 C 305.728 151.139 306.031 151.749 306.485 152.122 C 306.931 152.502 307.558 152.692 308.365 152.692 C 309.031 152.692 309.578 152.636 310.005 152.522 C 310.438 152.409 310.835 152.256 311.195 152.062 L 311.885 153.672 C 311.538 153.892 311.065 154.086 310.465 154.252 C 309.871 154.419 309.151 154.502 308.305 154.502 Z M 305.575 148.732 L 310.325 148.732 C 310.338 147.872 310.148 147.266 309.755 146.912 C 309.368 146.559 308.815 146.382 308.095 146.382 C 306.635 146.382 305.795 147.166 305.575 148.732 Z" transform="matrix(0.7866309285163879, 0, 0, 0.7866309285163879, -141.49639892578125, -33.865718841552734)" style="fill: rgb(255, 255, 255); line-height: 38.0767px; white-space: pre;"/>
    <path d="M 60.392 63.274 L 60.392 55.954 L 52.862 55.954 L 52.862 52.284 L 60.392 52.284 L 60.392 44.964 L 64.252 44.964 L 64.252 52.284 L 71.812 52.284 L 71.812 55.954 L 64.252 55.954 L 64.252 63.274 L 60.392 63.274 ZM 80.36 66.934 L 80.36 38.114 L 84.86 36.844 L 84.86 66.934 L 80.36 66.934 Z" transform="matrix(1, 0, 0, 1, 0, 0)" style="fill: rgb(255, 255, 255); line-height: 63.6487px; white-space: pre;"/>
  </g>
</svg>