<?xml version="1.0" encoding="utf-8"?>
<svg viewBox="702.603 218.429 89.743 89.743" xmlns="http://www.w3.org/2000/svg">
  <defs>
    <radialGradient gradientUnits="userSpaceOnUse" cx="248.453" cy="40.947" r="52.5" id="gradient-11" gradientTransform="matrix(-0.00441, 1.296723, -0.999993, -0.003401, 291.220184, -280.752913)" spreadMethod="pad">
      <stop offset="0" style="stop-color: rgb(214, 145, 17);"/>
      <stop offset="1" style="stop-color: rgb(65, 53, 33);"/>
    </radialGradient>
  </defs>
  <g transform="matrix(0.854692, 0, 0, 0.854692, 687.890259, 207.081131)" style="">
    <title>-1 bravery</title>
    <circle style="paint-order: fill; fill: url(#gradient-11);" cx="250.028" cy="82.284" r="52.5" transform="matrix(1, 0, 0, 0.999999, -180.313995, -16.506966)">
      <title>Background</title>
    </circle>
    <path d="M 105.067 78.871 C 106.71 94.057 91.297 105.327 77.323 99.156 C 72.316 101.349 66.625 101.374 61.598 99.226 C 55.038 101.91 47.544 100.891 41.939 96.551 C 29.862 87.201 32.436 68.284 46.572 62.501 L 39.253 38.726 C 38.015 34.714 41.029 30.653 45.228 30.677 L 93.88 30.677 C 98.08 30.653 101.094 34.714 99.855 38.726 L 92.505 62.501 C 99.423 65.179 104.269 71.494 105.067 78.871 Z M 93.88 36.916 L 84.207 36.916 C 84.207 37.535 84.115 38.15 83.935 38.742 L 80.579 49.619 L 84.129 61.164 C 84.495 61.164 84.906 61.164 85.271 61.164 C 85.637 61.164 86.033 61.164 86.414 61.164 Z M 76.616 62.501 L 77.323 62.795 L 78.038 62.516 L 77.323 60.185 Z M 60.767 36.869 L 64.582 49.3 L 68.233 61.164 C 68.599 61.164 69.01 61.164 69.376 61.164 C 69.741 61.164 70.137 61.164 70.518 61.164 L 77.984 36.877 L 60.79 36.877 Z M 61.606 60.783 L 61.078 62.516 L 61.606 62.734 L 62.142 62.516 Z M 52.694 61.164 C 53.059 61.164 53.471 61.164 53.836 61.164 C 54.201 61.164 54.598 61.164 54.978 61.164 L 58.35 50.209 L 54.792 38.726 C 54.62 38.126 54.539 37.502 54.551 36.877 L 45.228 36.877 Z M 53.836 94.635 C 54.201 94.635 54.567 94.588 54.924 94.588 C 47.71 86.959 47.71 75.024 54.924 67.395 C 54.567 67.349 54.201 67.349 53.836 67.349 C 46.314 67.357 40.217 73.453 40.209 80.976 C 40.2 88.511 46.301 94.626 53.836 94.635 Z M 69.376 94.604 C 71.767 94.604 74.117 93.974 76.189 92.778 C 85.274 87.532 85.274 74.42 76.189 69.174 C 67.104 63.929 55.748 70.486 55.748 80.976 C 55.756 88.499 61.853 94.595 69.376 94.604 Z M 85.271 94.573 C 90.14 94.573 94.639 91.975 97.073 87.759 C 102.319 78.674 95.762 67.318 85.271 67.318 C 84.797 67.32 84.322 67.345 83.85 67.395 C 91.005 75.011 91.005 86.879 83.85 94.495 C 84.321 94.555 84.796 94.592 85.271 94.604 Z M 77.712 77.72 C 77.75 77.726 77.788 77.734 77.826 77.744 C 78.571 77.946 78.818 78.878 78.271 79.422 L 74.651 82.95 L 75.505 87.929 C 75.572 88.305 75.418 88.685 75.109 88.909 C 74.799 89.13 74.392 89.16 74.052 88.987 L 69.585 86.656 L 65.11 88.987 C 65.063 89.012 65.015 89.033 64.964 89.051 C 64.242 89.305 63.516 88.683 63.657 87.929 L 64.511 82.95 L 60.891 79.422 C 60.865 79.397 60.84 79.369 60.817 79.34 C 60.333 78.739 60.681 77.84 61.443 77.72 L 66.446 76.991 L 68.637 72.461 C 68.806 72.124 69.153 71.913 69.531 71.917 C 69.908 71.913 70.255 72.124 70.424 72.461 L 72.662 76.991 L 77.689 77.72 Z" style="fill-opacity: 0.5;"/>
    <path d="M 239.559 154.502 C 238.786 154.502 238.089 154.312 237.469 153.932 C 236.849 153.546 236.423 153.102 236.189 152.602 L 236.149 154.292 L 233.979 154.292 L 233.979 138.982 L 236.189 138.982 L 236.189 144.882 L 236.079 146.502 C 236.319 145.949 236.783 145.476 237.469 145.082 C 238.156 144.682 238.903 144.482 239.709 144.482 C 240.649 144.482 241.473 144.696 242.179 145.122 C 242.879 145.542 243.416 146.132 243.789 146.892 C 244.163 147.646 244.349 148.522 244.349 149.522 C 244.349 150.536 244.133 151.419 243.699 152.172 C 243.259 152.919 242.676 153.492 241.949 153.892 C 241.216 154.299 240.419 154.502 239.559 154.502 Z M 239.189 152.622 C 240.089 152.622 240.783 152.336 241.269 151.762 C 241.756 151.189 241.999 150.442 241.999 149.522 C 241.999 148.596 241.759 147.842 241.279 147.262 C 240.799 146.689 240.103 146.402 239.189 146.402 C 238.396 146.402 237.729 146.676 237.189 147.222 C 236.649 147.769 236.379 148.489 236.379 149.382 L 236.379 149.522 C 236.379 150.122 236.506 150.656 236.759 151.122 C 237.019 151.596 237.359 151.966 237.779 152.232 C 238.206 152.492 238.676 152.622 239.189 152.622 ZM 246.684 154.292 L 246.684 144.732 L 248.924 144.732 L 248.924 146.612 C 249.151 145.972 249.514 145.459 250.014 145.072 C 250.514 144.679 251.084 144.482 251.724 144.482 C 252.164 144.482 252.467 144.526 252.634 144.612 L 252.324 146.882 C 252.197 146.796 251.927 146.752 251.514 146.752 C 250.861 146.752 250.267 146.962 249.734 147.382 C 249.194 147.796 248.924 148.462 248.924 149.382 L 248.924 154.292 L 246.684 154.292 ZM 258.448 154.502 C 257.581 154.502 256.784 154.296 256.058 153.882 C 255.331 153.476 254.748 152.892 254.308 152.132 C 253.874 151.379 253.658 150.496 253.658 149.482 C 253.658 148.482 253.848 147.609 254.228 146.862 C 254.608 146.109 255.151 145.526 255.858 145.112 C 256.571 144.692 257.404 144.482 258.358 144.482 C 258.918 144.482 259.438 144.579 259.918 144.772 C 260.404 144.972 260.814 145.212 261.148 145.492 C 261.481 145.779 261.704 146.062 261.818 146.342 L 261.858 144.732 L 264.008 144.732 L 264.008 154.292 L 261.878 154.292 L 261.838 152.602 C 261.604 153.102 261.174 153.546 260.548 153.932 C 259.921 154.312 259.221 154.502 258.448 154.502 Z M 258.818 152.622 C 259.611 152.622 260.278 152.349 260.818 151.802 C 261.358 151.256 261.628 150.539 261.628 149.652 L 261.628 149.502 C 261.628 148.909 261.504 148.376 261.258 147.902 C 261.004 147.429 260.664 147.059 260.238 146.792 C 259.804 146.532 259.331 146.402 258.818 146.402 C 257.931 146.402 257.244 146.689 256.758 147.262 C 256.271 147.842 256.028 148.589 256.028 149.502 C 256.028 150.436 256.268 151.189 256.748 151.762 C 257.228 152.336 257.918 152.622 258.818 152.622 ZM 270.54 154.292 L 265.5 144.732 L 268.06 144.732 L 270.12 149.042 L 270.79 150.772 L 271.45 149.042 L 273.49 144.732 L 275.99 144.732 L 270.97 154.292 L 270.54 154.292 ZM 281.7 154.502 C 280.56 154.502 279.606 154.276 278.84 153.822 C 278.08 153.369 277.52 152.766 277.16 152.012 C 276.8 151.252 276.62 150.422 276.62 149.522 C 276.62 148.509 276.83 147.622 277.25 146.862 C 277.676 146.096 278.263 145.509 279.01 145.102 C 279.763 144.689 280.61 144.482 281.55 144.482 C 283.023 144.482 284.116 144.889 284.83 145.702 C 285.543 146.516 285.9 147.659 285.9 149.132 C 285.9 149.506 285.88 149.892 285.84 150.292 L 278.97 150.292 C 279.123 151.139 279.426 151.749 279.88 152.122 C 280.326 152.502 280.953 152.692 281.76 152.692 C 282.426 152.692 282.973 152.636 283.4 152.522 C 283.833 152.409 284.23 152.256 284.59 152.062 L 285.28 153.672 C 284.933 153.892 284.46 154.086 283.86 154.252 C 283.266 154.419 282.546 154.502 281.7 154.502 Z M 278.97 148.732 L 283.72 148.732 C 283.733 147.872 283.543 147.266 283.15 146.912 C 282.763 146.559 282.21 146.382 281.49 146.382 C 280.03 146.382 279.19 147.166 278.97 148.732 ZM 288.195 154.292 L 288.195 144.732 L 290.435 144.732 L 290.435 146.612 C 290.661 145.972 291.025 145.459 291.525 145.072 C 292.025 144.679 292.595 144.482 293.235 144.482 C 293.675 144.482 293.978 144.526 294.145 144.612 L 293.835 146.882 C 293.708 146.796 293.438 146.752 293.025 146.752 C 292.371 146.752 291.778 146.962 291.245 147.382 C 290.705 147.796 290.435 148.462 290.435 149.382 L 290.435 154.292 L 288.195 154.292 ZM 296.418 159.542 L 298.478 154.582 L 294.518 144.732 L 297.058 144.732 L 299.098 150.812 L 299.558 152.292 L 300.018 150.812 L 302.158 144.732 L 304.618 144.732 L 298.748 159.542 L 296.418 159.542 Z" transform="matrix(0.7866309285163879, 0, 0, 0.7866309285163879, -141.50869750976562, -32.88376235961914)" style="fill: rgb(255, 255, 255); line-height: 38.0767px; white-space: pre;"/>
    <path d="M 55.537 60.134 L 55.537 56.314 L 69.187 56.314 L 69.187 60.134 L 55.537 60.134 ZM 78.692 68.214 L 78.692 39.394 L 83.192 38.124 L 83.192 68.214 L 78.692 68.214 Z" transform="matrix(1, 0, 0, 1, 0, 0)" style="fill: rgb(255, 255, 255); line-height: 71.1367px; white-space: pre;"/>
  </g>
</svg>