<?xml version="1.0" encoding="utf-8"?>
<svg viewBox="205.876 218.429 89.743 89.743" xmlns="http://www.w3.org/2000/svg">
  <defs>
    <radialGradient gradientUnits="userSpaceOnUse" cx="248.453" cy="40.947" r="52.5" id="gradient-15" gradientTransform="matrix(-0.00441, 1.296723, -0.999993, -0.003401, 291.220184, -280.752913)" spreadMethod="pad">
      <stop offset="0" style="stop-color: rgb(216, 32, 32);"/>
      <stop offset="1" style="stop-color: rgb(48, 18, 18);"/>
    </radialGradient>
  </defs>
  <g style="" transform="matrix(0.854692, 0, 0, 0.854692, 191.163467, 207.673584)">
    <title>-1 extra rend</title>
    <circle style="paint-order: fill; fill: url(#gradient-15);" cx="250.028" cy="82.284" r="52.5" transform="matrix(1, 0, 0, 0.999999, -180.313995, -17.200153)">
      <title>Background</title>
    </circle>
    <g data-name="11" transform="matrix(2.246521, 0, 0, 2.246521, 33.769669, 29.709629)" style="filter: none;">
      <title>Swords</title>
      <path d="M30,1H24.24a1,1,0,0,0-.76.36L8.53,19.12,6.71,17.29a1,1,0,0,0-1.42,1.42l1.88,1.88L2.39,25.36a3,3,0,0,0,0,4.25h0a3,3,0,0,0,4.25,0l4.77-4.78,1.88,1.88a1,1,0,0,0,1.42,0,1,1,0,0,0,0-1.42l-1.83-1.82L30.64,8.52A1,1,0,0,0,31,7.76V2A1,1,0,0,0,30,1Z" style="fill-opacity: 0.5;"/>
      <path d="M14.69,8.68,8.52,1.36A1,1,0,0,0,7.76,1H2A1,1,0,0,0,1,2V7.76a1,1,0,0,0,.36.76l7.88,6.64Z" style="fill-opacity: 0.5;"/>
      <path d="M24.83,20.59l1.88-1.88a1,1,0,0,0-1.42-1.42l-1.82,1.83-1-1.14-5,4.18,1.56,1.31-1.83,1.82a1,1,0,0,0,0,1.42,1,1,0,0,0,1.42,0l1.88-1.88,4.77,4.78a3,3,0,0,0,4.25-4.25Z" style="fill-opacity: 0.5;"/>
    </g>
    <path d="M 38.132 88.392 C 37.238 88.392 36.492 88.215 35.892 87.862 C 35.285 87.509 34.842 87.032 34.562 86.432 C 34.275 85.839 34.132 85.185 34.132 84.472 C 34.132 83.679 34.298 82.982 34.632 82.382 C 34.965 81.775 35.428 81.312 36.022 80.992 C 36.608 80.672 37.275 80.512 38.022 80.512 C 39.182 80.512 40.042 80.832 40.602 81.472 C 41.168 82.105 41.452 83.002 41.452 84.162 C 41.452 84.462 41.435 84.769 41.402 85.082 L 35.982 85.082 C 36.108 85.749 36.348 86.229 36.702 86.522 C 37.055 86.822 37.548 86.972 38.182 86.972 C 38.708 86.972 39.142 86.929 39.482 86.842 C 39.822 86.749 40.132 86.629 40.412 86.482 L 40.952 87.742 C 40.678 87.915 40.308 88.069 39.842 88.202 C 39.368 88.329 38.798 88.392 38.132 88.392 Z M 35.982 83.852 L 39.722 83.852 C 39.735 83.172 39.588 82.695 39.282 82.422 C 38.975 82.142 38.538 82.002 37.972 82.002 C 36.825 82.002 36.162 82.619 35.982 83.852 ZM 42.316 88.232 L 45.136 84.332 L 42.496 80.702 L 44.596 80.702 L 46.136 83.032 L 47.596 80.702 L 49.746 80.702 L 47.086 84.232 L 49.976 88.232 L 47.946 88.232 L 46.156 85.572 L 44.446 88.232 L 42.316 88.232 ZM 51.992 88.232 L 51.992 82.152 L 50.662 82.152 L 50.662 80.702 L 51.992 80.702 L 51.992 77.642 L 53.782 77.242 L 53.782 80.702 L 55.522 80.702 L 55.522 82.152 L 53.782 82.152 L 53.782 88.232 L 51.992 88.232 ZM 56.917 88.232 L 56.917 80.702 L 58.687 80.702 L 58.687 82.182 C 58.86 81.675 59.143 81.269 59.537 80.962 C 59.93 80.662 60.377 80.512 60.877 80.512 C 61.23 80.512 61.473 80.542 61.607 80.602 L 61.357 82.392 C 61.257 82.325 61.043 82.292 60.717 82.292 C 60.203 82.292 59.737 82.459 59.317 82.792 C 58.897 83.119 58.687 83.642 58.687 84.362 L 58.687 88.232 L 56.917 88.232 ZM 66.174 88.392 C 65.501 88.392 64.877 88.232 64.304 87.912 C 63.724 87.592 63.264 87.132 62.924 86.532 C 62.577 85.939 62.404 85.242 62.404 84.442 C 62.404 83.655 62.554 82.969 62.854 82.382 C 63.154 81.789 63.584 81.329 64.144 81.002 C 64.704 80.675 65.361 80.512 66.114 80.512 C 66.547 80.512 66.957 80.589 67.344 80.742 C 67.724 80.889 68.047 81.075 68.314 81.302 C 68.574 81.529 68.747 81.752 68.834 81.972 L 68.864 80.702 L 70.554 80.702 L 70.554 88.232 L 68.884 88.232 L 68.854 86.902 C 68.667 87.295 68.327 87.642 67.834 87.942 C 67.341 88.242 66.787 88.392 66.174 88.392 Z M 66.474 86.922 C 67.094 86.922 67.617 86.705 68.044 86.272 C 68.471 85.839 68.684 85.272 68.684 84.572 L 68.684 84.462 C 68.684 83.989 68.587 83.569 68.394 83.202 C 68.194 82.829 67.924 82.539 67.584 82.332 C 67.251 82.119 66.881 82.012 66.474 82.012 C 65.774 82.012 65.234 82.242 64.854 82.702 C 64.467 83.155 64.274 83.742 64.274 84.462 C 64.274 85.195 64.464 85.789 64.844 86.242 C 65.217 86.695 65.761 86.922 66.474 86.922 ZM 76.908 88.232 L 76.908 80.702 L 78.678 80.702 L 78.678 82.182 C 78.851 81.675 79.134 81.269 79.528 80.962 C 79.921 80.662 80.368 80.512 80.868 80.512 C 81.221 80.512 81.464 80.542 81.598 80.602 L 81.348 82.392 C 81.248 82.325 81.034 82.292 80.708 82.292 C 80.194 82.292 79.728 82.459 79.308 82.792 C 78.888 83.119 78.678 83.642 78.678 84.362 L 78.678 88.232 L 76.908 88.232 ZM 86.395 88.392 C 85.502 88.392 84.755 88.215 84.155 87.862 C 83.548 87.509 83.105 87.032 82.825 86.432 C 82.538 85.839 82.395 85.185 82.395 84.472 C 82.395 83.679 82.562 82.982 82.895 82.382 C 83.228 81.775 83.692 81.312 84.285 80.992 C 84.872 80.672 85.538 80.512 86.285 80.512 C 87.445 80.512 88.305 80.832 88.865 81.472 C 89.432 82.105 89.715 83.002 89.715 84.162 C 89.715 84.462 89.698 84.769 89.665 85.082 L 84.245 85.082 C 84.372 85.749 84.612 86.229 84.965 86.522 C 85.318 86.822 85.812 86.972 86.445 86.972 C 86.972 86.972 87.405 86.929 87.745 86.842 C 88.085 86.749 88.395 86.629 88.675 86.482 L 89.215 87.742 C 88.942 87.915 88.572 88.069 88.105 88.202 C 87.632 88.329 87.062 88.392 86.395 88.392 Z M 84.245 83.852 L 87.985 83.852 C 87.998 83.172 87.852 82.695 87.545 82.422 C 87.238 82.142 86.802 82.002 86.235 82.002 C 85.088 82.002 84.425 82.619 84.245 83.852 ZM 91.559 88.232 L 91.559 80.702 L 93.299 80.702 L 93.319 82.082 C 93.526 81.622 93.853 81.245 94.299 80.952 C 94.753 80.659 95.279 80.512 95.879 80.512 C 96.653 80.512 97.249 80.672 97.669 80.992 C 98.083 81.312 98.359 81.762 98.499 82.342 C 98.639 82.922 98.709 83.679 98.709 84.612 L 98.709 88.232 L 96.939 88.232 L 96.939 84.652 C 96.939 83.705 96.846 83.022 96.659 82.602 C 96.479 82.182 96.099 81.972 95.519 81.972 C 95.186 81.972 94.853 82.072 94.519 82.272 C 94.179 82.472 93.896 82.765 93.669 83.152 C 93.449 83.532 93.339 83.979 93.339 84.492 L 93.339 88.232 L 91.559 88.232 ZM 104.319 88.392 C 103.646 88.392 103.022 88.232 102.449 87.912 C 101.869 87.592 101.409 87.132 101.069 86.532 C 100.722 85.939 100.549 85.242 100.549 84.442 C 100.549 83.249 100.882 82.295 101.549 81.582 C 102.216 80.869 103.119 80.512 104.259 80.512 C 104.892 80.512 105.472 80.665 105.999 80.972 C 106.519 81.285 106.872 81.662 107.059 82.102 L 106.979 80.822 L 106.979 76.182 L 108.719 76.182 L 108.719 88.232 L 107.029 88.232 L 106.999 86.902 C 106.812 87.295 106.472 87.642 105.979 87.942 C 105.486 88.242 104.932 88.392 104.319 88.392 Z M 104.619 86.902 C 105.239 86.902 105.762 86.685 106.189 86.252 C 106.616 85.825 106.829 85.262 106.829 84.562 L 106.829 84.442 C 106.829 83.975 106.732 83.555 106.539 83.182 C 106.339 82.809 106.069 82.519 105.729 82.312 C 105.396 82.105 105.026 82.002 104.619 82.002 C 103.919 82.002 103.379 82.229 102.999 82.682 C 102.612 83.135 102.419 83.722 102.419 84.442 C 102.419 85.175 102.609 85.769 102.989 86.222 C 103.362 86.675 103.906 86.902 104.619 86.902 Z" transform="matrix(1, 0, 0, 1, 0, 0)" style="fill: rgb(255, 255, 255); white-space: pre;"/>
    <path d="M 51.883 58.878 L 51.883 55.058 L 65.533 55.058 L 65.533 58.878 L 51.883 58.878 ZM 75.038 66.958 L 75.038 38.138 L 79.538 36.868 L 79.538 66.958 L 75.038 66.958 Z" transform="matrix(1, 0, 0, 1, 0, 0)" style="fill: rgb(255, 255, 255); line-height: 71.1367px; white-space: pre;"/>
  </g>
</svg>