<?xml version="1.0" encoding="utf-8"?>
<svg viewBox="1197.281 219.504 89.743 89.743" xmlns="http://www.w3.org/2000/svg">
  <defs>
    <radialGradient gradientUnits="userSpaceOnUse" cx="248.453" cy="40.947" r="52.5" id="gradient-29" gradientTransform="matrix(-0.00441, 1.296723, -0.999993, -0.003401, 291.220184, -280.752882)" spreadMethod="pad">
      <stop offset="0" style="stop-color: rgb(216, 32, 32);"/>
      <stop offset="1" style="stop-color: rgb(48, 18, 18);"/>
    </radialGradient>
  </defs>
  <g style="" transform="matrix(0.854692, 0, 0, 0.854692, 1182.568115, 208.749008)">
    <title>-1 to hit</title>
    <circle style="paint-order: fill; fill: url(#gradient-29);" cx="250.028" cy="82.284" r="52.5" transform="matrix(1, 0, 0, 0.999999, -180.313995, -17.200153)">
      <title>Background</title>
    </circle>
    <g data-name="11" transform="matrix(2.246521, 0, 0, 2.246521, 33.769669, 29.709629)" style="filter: none;">
      <title>Swords</title>
      <path d="M30,1H24.24a1,1,0,0,0-.76.36L8.53,19.12,6.71,17.29a1,1,0,0,0-1.42,1.42l1.88,1.88L2.39,25.36a3,3,0,0,0,0,4.25h0a3,3,0,0,0,4.25,0l4.77-4.78,1.88,1.88a1,1,0,0,0,1.42,0,1,1,0,0,0,0-1.42l-1.83-1.82L30.64,8.52A1,1,0,0,0,31,7.76V2A1,1,0,0,0,30,1Z" style="fill-opacity: 0.5;"/>
      <path d="M14.69,8.68,8.52,1.36A1,1,0,0,0,7.76,1H2A1,1,0,0,0,1,2V7.76a1,1,0,0,0,.36.76l7.88,6.64Z" style="fill-opacity: 0.5;"/>
      <path d="M24.83,20.59l1.88-1.88a1,1,0,0,0-1.42-1.42l-1.82,1.83-1-1.14-5,4.18,1.56,1.31-1.83,1.82a1,1,0,0,0,0,1.42,1,1,0,0,0,1.42,0l1.88-1.88,4.77,4.78a3,3,0,0,0,4.25-4.25Z" style="fill-opacity: 0.5;"/>
    </g>
    <path d="M 52.311 88.232 L 52.311 82.152 L 50.981 82.152 L 50.981 80.702 L 52.311 80.702 L 52.311 77.642 L 54.101 77.242 L 54.101 80.702 L 55.841 80.702 L 55.841 82.152 L 54.101 82.152 L 54.101 88.232 L 52.311 88.232 ZM 60.786 88.392 C 60.012 88.392 59.326 88.219 58.726 87.872 C 58.126 87.519 57.659 87.042 57.326 86.442 C 56.999 85.842 56.836 85.175 56.836 84.442 C 56.836 83.722 56.999 83.062 57.326 82.462 C 57.646 81.862 58.106 81.385 58.706 81.032 C 59.306 80.685 59.999 80.512 60.786 80.512 C 61.572 80.512 62.266 80.685 62.866 81.032 C 63.459 81.385 63.919 81.862 64.246 82.462 C 64.566 83.062 64.726 83.722 64.726 84.442 C 64.726 85.175 64.562 85.842 64.236 86.442 C 63.909 87.042 63.446 87.519 62.846 87.872 C 62.252 88.219 61.566 88.392 60.786 88.392 Z M 60.836 86.952 C 61.469 86.952 61.969 86.719 62.336 86.252 C 62.702 85.779 62.886 85.185 62.886 84.472 C 62.886 83.765 62.689 83.169 62.296 82.682 C 61.902 82.195 61.382 81.952 60.736 81.952 C 60.116 81.952 59.616 82.192 59.236 82.672 C 58.862 83.152 58.676 83.752 58.676 84.472 C 58.676 85.172 58.879 85.762 59.286 86.242 C 59.686 86.715 60.202 86.952 60.836 86.952 ZM 70.715 88.232 L 70.715 76.182 L 72.435 76.182 L 72.435 80.702 L 72.365 82.102 C 72.571 81.642 72.905 81.262 73.365 80.962 C 73.825 80.662 74.361 80.512 74.975 80.512 C 75.748 80.512 76.345 80.672 76.765 80.992 C 77.178 81.312 77.455 81.762 77.595 82.342 C 77.741 82.922 77.815 83.679 77.815 84.612 L 77.815 88.232 L 76.055 88.232 L 76.055 84.592 C 76.055 83.959 76.021 83.462 75.955 83.102 C 75.881 82.742 75.738 82.469 75.525 82.282 C 75.311 82.095 75.001 82.002 74.595 82.002 C 74.268 82.002 73.938 82.099 73.605 82.292 C 73.271 82.492 72.995 82.779 72.775 83.152 C 72.555 83.532 72.445 83.979 72.445 84.492 L 72.445 88.232 L 70.715 88.232 ZM 80.194 88.232 L 80.194 80.702 L 82.024 80.702 L 82.024 88.232 L 80.194 88.232 Z M 81.094 79.292 C 80.754 79.292 80.468 79.179 80.234 78.952 C 80.008 78.719 79.894 78.432 79.894 78.092 C 79.894 77.792 80.008 77.532 80.234 77.312 C 80.468 77.092 80.754 76.982 81.094 76.982 C 81.421 76.982 81.698 77.092 81.924 77.312 C 82.158 77.532 82.274 77.792 82.274 78.092 C 82.274 78.432 82.161 78.719 81.934 78.952 C 81.714 79.179 81.434 79.292 81.094 79.292 ZM 85.142 88.232 L 85.142 82.152 L 83.812 82.152 L 83.812 80.702 L 85.142 80.702 L 85.142 77.642 L 86.932 77.242 L 86.932 80.702 L 88.672 80.702 L 88.672 82.152 L 86.932 82.152 L 86.932 88.232 L 85.142 88.232 Z" transform="matrix(1, 0, 0, 1, 0, 0)" style="fill: rgb(255, 255, 255); white-space: pre;"/>
    <path d="M 55.527 58.878 L 55.527 55.058 L 69.177 55.058 L 69.177 58.878 L 55.527 58.878 ZM 78.682 66.958 L 78.682 38.138 L 83.182 36.868 L 83.182 66.958 L 78.682 66.958 Z" transform="matrix(1, 0, 0, 1, 0, 0)" style="fill: rgb(255, 255, 255); line-height: 71.1367px; white-space: pre;"/>
  </g>
</svg>