<?xml version="1.0" encoding="utf-8"?>
<svg viewBox="6.911 215.666 89.743 89.743" xmlns="http://www.w3.org/2000/svg">
  <defs>
    <radialGradient gradientUnits="userSpaceOnUse" cx="248.453" cy="40.947" r="52.5" id="gradient-9" gradientTransform="matrix(-0.00441, 1.296723, -0.999993, -0.003401, 291.220184, -280.752882)" spreadMethod="pad">
      <stop offset="0" style="stop-color: rgb(216, 32, 32);"/>
      <stop offset="1" style="stop-color: rgb(48, 18, 18);"/>
    </radialGradient>
  </defs>
  <g style="" transform="matrix(0.854692, 0, 0, 0.854692, -7.801674, 204.911118)">
    <title>-1 to wound</title>
    <circle style="paint-order: fill; fill: url(#gradient-9);" cx="250.028" cy="82.284" r="52.5" transform="matrix(1, 0, 0, 0.999999, -180.313995, -17.200153)">
      <title>Background</title>
    </circle>
    <g transform="matrix(1.463582, 0, 0, 1.463582, -477.099274, -74.264618)">
      <title>drops</title>
      <path d="M 379.613 104.193 C 379.613 96.283 366.053 72.693 365.483 71.693 C 365.123 71.073 364.103 71.073 363.743 71.693 C 363.173 72.693 349.613 96.283 349.613 104.193 C 349.613 112.463 356.343 119.193 364.613 119.193 C 372.883 119.193 379.613 112.463 379.613 104.193 Z M 363.613 112.193 C 363.613 111.633 364.063 111.193 364.613 111.193 C 368.473 111.193 371.613 108.053 371.613 104.193 C 371.613 103.633 372.063 103.193 372.613 103.193 C 373.163 103.193 373.613 103.633 373.613 104.193 C 373.613 109.153 369.573 113.193 364.613 113.193 C 364.063 113.193 363.613 112.743 363.613 112.193 Z" style="fill-opacity: 0.5;"/>
      <path d="M 384.743 81.553 C 384.703 81.613 381.503 87.183 378.563 93.233 C 380.363 97.603 381.613 101.583 381.613 104.193 C 381.613 108.613 379.913 112.653 377.123 115.673 C 379.333 117.893 382.373 119.193 385.613 119.193 C 392.233 119.193 397.613 113.803 397.613 107.193 C 397.613 100.913 386.933 82.333 386.483 81.553 C 386.123 80.933 385.103 80.933 384.743 81.553 Z M 390.613 107.193 C 390.613 106.633 391.063 106.193 391.613 106.193 C 392.163 106.193 392.613 106.633 392.613 107.193 C 392.613 111.053 389.473 114.193 385.613 114.193 C 385.063 114.193 384.613 113.743 384.613 113.193 C 384.613 112.633 385.063 112.193 385.613 112.193 C 388.373 112.193 390.613 109.943 390.613 107.193 Z" style="fill-opacity: 0.5;"/>
    </g>
    <g transform="matrix(1, 0, 0, 1, 0.184782, -2.36842)">
      <path d="M 37.238 92.94 L 37.238 86.86 L 35.908 86.86 L 35.908 85.41 L 37.238 85.41 L 37.238 82.35 L 39.028 81.95 L 39.028 85.41 L 40.768 85.41 L 40.768 86.86 L 39.028 86.86 L 39.028 92.94 L 37.238 92.94 ZM 45.713 93.1 C 44.94 93.1 44.253 92.927 43.653 92.58 C 43.053 92.227 42.587 91.75 42.253 91.15 C 41.927 90.55 41.763 89.883 41.763 89.15 C 41.763 88.43 41.927 87.77 42.253 87.17 C 42.573 86.57 43.033 86.093 43.633 85.74 C 44.233 85.393 44.927 85.22 45.713 85.22 C 46.5 85.22 47.193 85.393 47.793 85.74 C 48.387 86.093 48.847 86.57 49.173 87.17 C 49.493 87.77 49.653 88.43 49.653 89.15 C 49.653 89.883 49.49 90.55 49.163 91.15 C 48.837 91.75 48.373 92.227 47.773 92.58 C 47.18 92.927 46.493 93.1 45.713 93.1 Z M 45.763 91.66 C 46.397 91.66 46.897 91.427 47.263 90.96 C 47.63 90.487 47.813 89.893 47.813 89.18 C 47.813 88.473 47.617 87.877 47.223 87.39 C 46.83 86.903 46.31 86.66 45.663 86.66 C 45.043 86.66 44.543 86.9 44.163 87.38 C 43.79 87.86 43.603 88.46 43.603 89.18 C 43.603 89.88 43.807 90.47 44.213 90.95 C 44.613 91.423 45.13 91.66 45.763 91.66 ZM 62.382 92.94 L 60.152 88.76 L 57.922 92.94 L 57.602 92.94 L 54.442 85.41 L 56.342 85.41 L 57.972 89.79 L 60.112 85.41 L 60.182 85.41 L 62.342 89.76 L 63.972 85.41 L 65.842 85.41 L 62.692 92.94 L 62.382 92.94 ZM 70.362 93.1 C 69.588 93.1 68.902 92.927 68.302 92.58 C 67.702 92.227 67.235 91.75 66.902 91.15 C 66.575 90.55 66.412 89.883 66.412 89.15 C 66.412 88.43 66.575 87.77 66.902 87.17 C 67.222 86.57 67.682 86.093 68.282 85.74 C 68.882 85.393 69.575 85.22 70.362 85.22 C 71.148 85.22 71.842 85.393 72.442 85.74 C 73.035 86.093 73.495 86.57 73.822 87.17 C 74.142 87.77 74.302 88.43 74.302 89.15 C 74.302 89.883 74.138 90.55 73.812 91.15 C 73.485 91.75 73.022 92.227 72.422 92.58 C 71.828 92.927 71.142 93.1 70.362 93.1 Z M 70.412 91.66 C 71.045 91.66 71.545 91.427 71.912 90.96 C 72.278 90.487 72.462 89.893 72.462 89.18 C 72.462 88.473 72.265 87.877 71.872 87.39 C 71.478 86.903 70.958 86.66 70.312 86.66 C 69.692 86.66 69.192 86.9 68.812 87.38 C 68.438 87.86 68.252 88.46 68.252 89.18 C 68.252 89.88 68.455 90.47 68.862 90.95 C 69.262 91.423 69.778 91.66 70.412 91.66 ZM 78.793 93.1 C 77.753 93.1 77.039 92.797 76.653 92.19 C 76.266 91.577 76.073 90.723 76.073 89.63 L 76.073 85.41 L 77.843 85.41 L 77.843 89.18 C 77.843 89.807 77.879 90.293 77.953 90.64 C 78.019 90.98 78.159 91.233 78.373 91.4 C 78.586 91.56 78.906 91.64 79.333 91.64 C 79.639 91.64 79.936 91.553 80.223 91.38 C 80.509 91.207 80.743 90.97 80.923 90.67 C 81.103 90.37 81.193 90.04 81.193 89.68 L 81.193 85.41 L 82.943 85.41 L 82.943 92.94 L 81.503 92.94 L 81.303 91.84 C 81.029 92.267 80.689 92.583 80.283 92.79 C 79.869 92.997 79.373 93.1 78.793 93.1 ZM 85.301 92.94 L 85.301 85.41 L 87.041 85.41 L 87.061 86.79 C 87.267 86.33 87.594 85.953 88.041 85.66 C 88.494 85.367 89.021 85.22 89.621 85.22 C 90.394 85.22 90.991 85.38 91.411 85.7 C 91.824 86.02 92.101 86.47 92.241 87.05 C 92.381 87.63 92.451 88.387 92.451 89.32 L 92.451 92.94 L 90.681 92.94 L 90.681 89.36 C 90.681 88.413 90.587 87.73 90.401 87.31 C 90.221 86.89 89.841 86.68 89.261 86.68 C 88.927 86.68 88.594 86.78 88.261 86.98 C 87.921 87.18 87.637 87.473 87.411 87.86 C 87.191 88.24 87.081 88.687 87.081 89.2 L 87.081 92.94 L 85.301 92.94 ZM 98.06 93.1 C 97.387 93.1 96.764 92.94 96.19 92.62 C 95.61 92.3 95.15 91.84 94.81 91.24 C 94.464 90.647 94.29 89.95 94.29 89.15 C 94.29 87.957 94.624 87.003 95.29 86.29 C 95.957 85.577 96.86 85.22 98 85.22 C 98.634 85.22 99.214 85.373 99.74 85.68 C 100.26 85.993 100.614 86.37 100.8 86.81 L 100.72 85.53 L 100.72 80.89 L 102.46 80.89 L 102.46 92.94 L 100.77 92.94 L 100.74 91.61 C 100.554 92.003 100.214 92.35 99.72 92.65 C 99.227 92.95 98.674 93.1 98.06 93.1 Z M 98.36 91.61 C 98.98 91.61 99.504 91.393 99.93 90.96 C 100.357 90.533 100.57 89.97 100.57 89.27 L 100.57 89.15 C 100.57 88.683 100.474 88.263 100.28 87.89 C 100.08 87.517 99.81 87.227 99.47 87.02 C 99.137 86.813 98.767 86.71 98.36 86.71 C 97.66 86.71 97.12 86.937 96.74 87.39 C 96.354 87.843 96.16 88.43 96.16 89.15 C 96.16 89.883 96.35 90.477 96.73 90.93 C 97.104 91.383 97.647 91.61 98.36 91.61 Z" transform="matrix(1, 0, 0, 1, 0, 0)" style="fill: rgb(255, 255, 255); white-space: pre;"/>
      <path d="M 55.344 64.976 L 55.344 61.156 L 68.994 61.156 L 68.994 64.976 L 55.344 64.976 ZM 78.499 73.056 L 78.499 44.236 L 82.999 42.966 L 82.999 73.056 L 78.499 73.056 Z" transform="matrix(1, 0, 0, 1, 0, 0)" style="fill: rgb(255, 255, 255); line-height: 71.1367px; white-space: pre;"/>
    </g>
  </g>
</svg>