<?xml version="1.0" encoding="utf-8"?>
<svg viewBox="303.992 319.32 89.743 89.743" xmlns="http://www.w3.org/2000/svg">
  <defs>
    <radialGradient gradientUnits="userSpaceOnUse" cx="248.453" cy="40.947" r="52.5" id="gradient-12" gradientTransform="matrix(-0.00441, 1.296723, -0.999993, -0.003401, 291.220184, -280.752913)" spreadMethod="pad">
      <stop offset="0" style="stop-color: rgb(48, 168, 204);"/>
      <stop offset="1" style="stop-color: rgb(10, 21, 98);"/>
    </radialGradient>
  </defs>
  <g transform="matrix(0.854692, 0, 0, 0.854692, 289.278961, 310.769043)" style="">
    <title>6+ ignore wounds</title>
    <circle style="paint-order: fill; fill: url(#gradient-12);" cx="250.028" cy="82.284" r="52.5" transform="matrix(1, 0, 0, 0.999999, -180.313995, -19.778896)">
      <title>Background</title>
    </circle>
    <g transform="matrix(0.816265, 0, 0, 0.816265, 28.891851, -755.676514)" style="">
      <title>muscle</title>
      <path style="font: medium Sans; text-indent: 0px; text-align: start; text-decoration: none; letter-spacing: normal; word-spacing: normal; text-transform: none; direction: ltr; writing-mode: lr-tb; text-anchor: start; baseline-shift: baseline; opacity: 1; color: rgb(0, 0, 0); stroke: none; stroke-width: 6; marker: none; visibility: visible; display: inline; overflow: visible; fill-opacity: 0.5;" d="M 43.65625 7 C 38.786645 7.1953839 34.238859 9.2174325 30.6875 12.09375 C 21.958861 19.16307 18.06416 29.54384 14.0625 39.65625 A 3.0003 3.0003 0 0 0 14.03125 39.78125 C 11.532771 47.06495 9.6888925 53.85955 10.0625 61.46875 A 3.0003 3.0003 0 0 0 10.0625 61.5 C 10.302878 66.2751 12.004907 70.4023 15 73.375 C 17.803144 76.1572 21.656741 77.7919 26 78.5 C 41.209251 88.9849 60.976118 89.8459 74.9375 88.375 C 76.43114 88.2176 76.682345 88.64575 78.375 89.96875 C 80.067655 91.29165 82.975963 93.19345 87.15625 92.96875 A 3.0040663 3.0040663 0 1 0 86.84375 86.96875 C 84.295135 87.10575 83.590811 86.4445 82.0625 85.25 C 80.534189 84.0555 77.935959 82.02445 74.3125 82.40625 C 61.071344 83.80135 42.29741 82.71375 28.96875 73.28125 A 3.0003 3.0003 0 0 0 27.625 72.75 C 23.889715 72.2661 21.128396 70.9894 19.25 69.125 C 17.371604 67.2606 16.210787 64.7539 16.03125 61.1875 C 15.715977 54.7664 17.268224 48.8584 19.65625 41.875 C 23.670728 31.73019 27.334031 22.5284 34.46875 16.75 C 37.26956 14.48157 40.854329 13.0722 44.40625 13.0625 C 46.364949 14.70155 47.371691 16.27023 47.625 17.5 C 47.911709 18.89192 47.58572 20.09401 46.625 21.34375 C 44.70357 23.84323 39.929243 25.86708 34.5625 24.6875 A 3.0003 3.0003 0 0 0 31.0625 26.71875 C 27.012081 39.35848 29.139478 47.67975 30.40625 57.90625 A 3.0003 3.0003 0 1 0 36.34375 57.15625 C 35.122637 47.29837 33.598271 40.74635 36.25 30.8125 C 42.499706 31.29473 48.192414 29.14005 51.375 25 C 53.219451 22.60065 54.153108 19.45198 53.5 16.28125 C 52.846892 13.11052 50.73346 10.10815 47.3125 7.59375 A 3.0003 3.0003 0 0 0 45.75 7.03125 C 45.042625 6.981785 44.351908 6.972088 43.65625 7 z M 73.84375 19.46875 A 3.0003 3.0003 0 0 0 71.0625 21.28125 L 64.65625 35.5 A 3.0003 3.0003 0 1 0 70.125 37.96875 L 76.53125 23.75 A 3.0003 3.0003 0 0 0 73.84375 19.46875 z M 55.8125 25.875 A 3.0003 3.0003 0 0 0 52.96875 29.03125 L 53.3125 39.09375 A 3.0019932 3.0019932 0 1 0 59.3125 38.875 L 58.96875 28.8125 A 3.0003 3.0003 0 0 0 55.8125 25.875 z M 81.875 35.1875 A 3.0003 3.0003 0 0 0 80.09375 36.03125 L 72.84375 42.90625 A 3.0003 3.0003 0 1 0 76.96875 47.25 L 84.21875 40.375 A 3.0003 3.0003 0 0 0 81.875 35.1875 z M 55.1875 46.625 C 50.786457 46.808763 45.997516 48.27665 41.25 51.875 A 3.0003 3.0003 0 1 0 44.875 56.65625 C 50.780916 52.17995 55.757214 51.99025 60.3125 53.09375 C 64.867786 54.19715 68.785979 56.8249 71.75 58.5 A 3.0003 3.0003 0 0 0 74.46875 58.59375 C 77.722117 57.11365 81.981152 56.9153 85.53125 58.3125 A 3.0003 3.0003 0 1 0 87.71875 52.75 C 83.070065 50.9204 77.990917 51.0324 73.53125 52.625 C 70.910983 51.0649 66.93867 48.5458 61.71875 47.28125 C 60.251772 46.92568 58.691684 46.68784 57.0625 46.625 C 56.451556 46.601436 55.81622 46.598748 55.1875 46.625 z " transform="translate(0,952.36218)"/>
    </g>
    <g transform="matrix(1, 0, 0, 1, -1.809641, -2.069718)">
      <path d="M 236.637 133.469 L 236.637 123.909 L 238.847 123.909 L 238.867 125.659 C 239.127 125.079 239.544 124.599 240.117 124.219 C 240.684 123.846 241.347 123.659 242.107 123.659 C 243.094 123.659 243.85 123.866 244.377 124.279 C 244.91 124.686 245.267 125.256 245.447 125.989 C 245.627 126.729 245.717 127.689 245.717 128.869 L 245.717 133.469 L 243.467 133.469 L 243.467 128.929 C 243.467 127.722 243.347 126.852 243.107 126.319 C 242.874 125.786 242.39 125.519 241.657 125.519 C 241.237 125.519 240.814 125.646 240.387 125.899 C 239.954 126.159 239.594 126.529 239.307 127.009 C 239.027 127.496 238.887 128.066 238.887 128.719 L 238.887 133.469 L 236.637 133.469 ZM 253.127 133.679 C 251.987 133.679 251.034 133.452 250.267 132.999 C 249.507 132.546 248.947 131.942 248.587 131.189 C 248.227 130.429 248.047 129.599 248.047 128.699 C 248.047 127.686 248.257 126.799 248.677 126.039 C 249.104 125.272 249.69 124.686 250.437 124.279 C 251.19 123.866 252.037 123.659 252.977 123.659 C 254.45 123.659 255.544 124.066 256.257 124.879 C 256.97 125.692 257.327 126.836 257.327 128.309 C 257.327 128.682 257.307 129.069 257.267 129.469 L 250.397 129.469 C 250.55 130.316 250.854 130.926 251.307 131.299 C 251.754 131.679 252.38 131.869 253.187 131.869 C 253.854 131.869 254.4 131.812 254.827 131.699 C 255.26 131.586 255.657 131.432 256.017 131.239 L 256.707 132.849 C 256.36 133.069 255.887 133.262 255.287 133.429 C 254.694 133.596 253.974 133.679 253.127 133.679 Z M 250.397 127.909 L 255.147 127.909 C 255.16 127.049 254.97 126.442 254.577 126.089 C 254.19 125.736 253.637 125.559 252.917 125.559 C 251.457 125.559 250.617 126.342 250.397 127.909 ZM 264.322 138.469 C 263.616 138.469 262.919 138.372 262.232 138.179 C 261.546 137.979 261.056 137.796 260.762 137.629 L 261.262 135.549 C 262.182 136.149 263.182 136.449 264.262 136.449 C 265.096 136.449 265.796 136.246 266.362 135.839 C 266.936 135.439 267.229 134.656 267.242 133.489 L 267.242 131.779 C 266.949 132.326 266.476 132.779 265.822 133.139 C 265.169 133.499 264.449 133.679 263.662 133.679 C 262.829 133.679 262.066 133.472 261.372 133.059 C 260.672 132.652 260.122 132.066 259.722 131.299 C 259.322 130.539 259.122 129.652 259.122 128.639 C 259.122 127.666 259.312 126.802 259.692 126.049 C 260.072 125.289 260.616 124.702 261.322 124.289 C 262.036 123.869 262.862 123.659 263.802 123.659 C 264.356 123.659 264.876 123.756 265.362 123.949 C 265.849 124.149 266.262 124.389 266.602 124.669 C 266.942 124.956 267.169 125.239 267.282 125.519 L 267.322 123.909 L 269.442 123.909 L 269.442 133.409 C 269.442 135.029 269.029 136.279 268.202 137.159 C 267.369 138.032 266.076 138.469 264.322 138.469 Z M 264.282 131.779 C 265.076 131.779 265.742 131.506 266.282 130.959 C 266.822 130.412 267.092 129.696 267.092 128.809 L 267.092 128.659 C 267.092 128.059 266.969 127.526 266.722 127.059 C 266.469 126.586 266.129 126.216 265.702 125.949 C 265.269 125.689 264.796 125.559 264.282 125.559 C 263.396 125.559 262.709 125.846 262.222 126.419 C 261.736 126.999 261.492 127.746 261.492 128.659 C 261.492 129.586 261.732 130.339 262.212 130.919 C 262.692 131.492 263.382 131.779 264.282 131.779 ZM 276.549 133.679 C 275.682 133.679 274.885 133.472 274.159 133.059 C 273.432 132.652 272.849 132.069 272.409 131.309 C 271.975 130.556 271.759 129.672 271.759 128.659 C 271.759 127.659 271.949 126.786 272.329 126.039 C 272.709 125.286 273.252 124.702 273.959 124.289 C 274.672 123.869 275.505 123.659 276.459 123.659 C 277.019 123.659 277.539 123.756 278.019 123.949 C 278.505 124.149 278.915 124.389 279.249 124.669 C 279.582 124.956 279.805 125.239 279.919 125.519 L 279.959 123.909 L 282.109 123.909 L 282.109 133.469 L 279.979 133.469 L 279.939 131.779 C 279.705 132.279 279.275 132.722 278.649 133.109 C 278.022 133.489 277.322 133.679 276.549 133.679 Z M 276.919 131.799 C 277.712 131.799 278.379 131.526 278.919 130.979 C 279.459 130.432 279.729 129.716 279.729 128.829 L 279.729 128.679 C 279.729 128.086 279.605 127.552 279.359 127.079 C 279.105 126.606 278.765 126.236 278.339 125.969 C 277.905 125.709 277.432 125.579 276.919 125.579 C 276.032 125.579 275.345 125.866 274.859 126.439 C 274.372 127.019 274.129 127.766 274.129 128.679 C 274.129 129.612 274.369 130.366 274.849 130.939 C 275.329 131.512 276.019 131.799 276.919 131.799 ZM 285.951 133.469 L 285.951 125.739 L 284.261 125.739 L 284.261 123.909 L 285.951 123.909 L 285.951 120.019 L 288.221 119.519 L 288.221 123.909 L 290.431 123.909 L 290.431 125.739 L 288.221 125.739 L 288.221 133.469 L 285.951 133.469 ZM 296.782 133.679 C 295.642 133.679 294.689 133.452 293.922 132.999 C 293.162 132.546 292.602 131.942 292.242 131.189 C 291.882 130.429 291.702 129.599 291.702 128.699 C 291.702 127.686 291.912 126.799 292.332 126.039 C 292.759 125.272 293.345 124.686 294.092 124.279 C 294.845 123.866 295.692 123.659 296.632 123.659 C 298.105 123.659 299.199 124.066 299.912 124.879 C 300.625 125.692 300.982 126.836 300.982 128.309 C 300.982 128.682 300.962 129.069 300.922 129.469 L 294.052 129.469 C 294.205 130.316 294.509 130.926 294.962 131.299 C 295.409 131.679 296.035 131.869 296.842 131.869 C 297.509 131.869 298.055 131.812 298.482 131.699 C 298.915 131.586 299.312 131.432 299.672 131.239 L 300.362 132.849 C 300.015 133.069 299.542 133.262 298.942 133.429 C 298.349 133.596 297.629 133.679 296.782 133.679 Z M 294.052 127.909 L 298.802 127.909 C 298.815 127.049 298.625 126.442 298.232 126.089 C 297.845 125.736 297.292 125.559 296.572 125.559 C 295.112 125.559 294.272 126.342 294.052 127.909 Z" transform="matrix(0.7866309285163879, 0, 0, 0.7866309285163879, -139.99667358398438, -29.04966926574707)" style="fill: rgb(255, 255, 255); line-height: 38.0767px; white-space: pre;"/>
      <path d="M 247.389 154.292 L 244.559 148.982 L 241.729 154.292 L 241.329 154.292 L 237.309 144.732 L 239.729 144.732 L 241.789 150.292 L 244.519 144.732 L 244.599 144.732 L 247.349 150.252 L 249.409 144.732 L 251.779 144.732 L 247.789 154.292 L 247.389 154.292 ZM 257.523 154.502 C 256.543 154.502 255.669 154.279 254.903 153.832 C 254.143 153.392 253.553 152.789 253.133 152.022 C 252.719 151.256 252.513 150.409 252.513 149.482 C 252.513 148.569 252.716 147.729 253.123 146.962 C 253.529 146.196 254.116 145.592 254.883 145.152 C 255.649 144.706 256.529 144.482 257.523 144.482 C 258.523 144.482 259.403 144.706 260.163 145.152 C 260.916 145.592 261.499 146.196 261.913 146.962 C 262.319 147.729 262.523 148.569 262.523 149.482 C 262.523 150.409 262.316 151.256 261.903 152.022 C 261.483 152.789 260.896 153.392 260.143 153.832 C 259.383 154.279 258.509 154.502 257.523 154.502 Z M 257.593 152.672 C 258.393 152.672 259.026 152.372 259.493 151.772 C 259.959 151.172 260.193 150.422 260.193 149.522 C 260.193 148.622 259.943 147.862 259.443 147.242 C 258.943 146.622 258.283 146.312 257.463 146.312 C 256.676 146.312 256.043 146.619 255.563 147.232 C 255.083 147.846 254.843 148.609 254.843 149.522 C 254.843 150.409 255.099 151.156 255.613 151.762 C 256.126 152.369 256.786 152.672 257.593 152.672 ZM 268.228 154.502 C 266.908 154.502 266.001 154.112 265.508 153.332 C 265.015 152.559 264.768 151.476 264.768 150.082 L 264.768 144.732 L 267.018 144.732 L 267.018 149.522 C 267.018 150.316 267.065 150.929 267.158 151.362 C 267.245 151.802 267.425 152.126 267.698 152.332 C 267.965 152.539 268.371 152.642 268.918 152.642 C 269.305 152.642 269.678 152.532 270.038 152.312 C 270.398 152.092 270.695 151.792 270.928 151.412 C 271.155 151.026 271.268 150.606 271.268 150.152 L 271.268 144.732 L 273.498 144.732 L 273.498 154.292 L 271.668 154.292 L 271.418 152.892 C 271.065 153.439 270.628 153.842 270.108 154.102 C 269.588 154.369 268.961 154.502 268.228 154.502 ZM 276.493 154.292 L 276.493 144.732 L 278.703 144.732 L 278.723 146.482 C 278.983 145.902 279.399 145.422 279.973 145.042 C 280.539 144.669 281.203 144.482 281.963 144.482 C 282.949 144.482 283.706 144.689 284.233 145.102 C 284.766 145.509 285.123 146.079 285.303 146.812 C 285.483 147.552 285.573 148.512 285.573 149.692 L 285.573 154.292 L 283.323 154.292 L 283.323 149.752 C 283.323 148.546 283.203 147.676 282.963 147.142 C 282.729 146.609 282.246 146.342 281.513 146.342 C 281.093 146.342 280.669 146.469 280.243 146.722 C 279.809 146.982 279.449 147.352 279.163 147.832 C 278.883 148.319 278.743 148.889 278.743 149.542 L 278.743 154.292 L 276.493 154.292 ZM 292.693 154.502 C 291.826 154.502 291.029 154.296 290.303 153.882 C 289.576 153.476 288.993 152.892 288.553 152.132 C 288.119 151.379 287.903 150.496 287.903 149.482 C 287.903 147.969 288.326 146.759 289.173 145.852 C 290.019 144.939 291.163 144.482 292.603 144.482 C 293.409 144.482 294.146 144.682 294.813 145.082 C 295.479 145.476 295.929 145.949 296.163 146.502 L 296.063 144.882 L 296.063 138.982 L 298.273 138.982 L 298.273 154.292 L 296.123 154.292 L 296.083 152.602 C 295.849 153.102 295.419 153.546 294.793 153.932 C 294.166 154.312 293.466 154.502 292.693 154.502 Z M 293.063 152.602 C 293.856 152.602 294.523 152.329 295.063 151.782 C 295.603 151.236 295.873 150.519 295.873 149.632 L 295.873 149.482 C 295.873 148.882 295.749 148.349 295.503 147.882 C 295.249 147.409 294.909 147.039 294.483 146.772 C 294.049 146.512 293.576 146.382 293.063 146.382 C 292.176 146.382 291.489 146.669 291.003 147.242 C 290.516 147.822 290.273 148.569 290.273 149.482 C 290.273 150.409 290.513 151.162 290.993 151.742 C 291.473 152.316 292.163 152.602 293.063 152.602 Z" transform="matrix(0.7866309285163879, 0, 0, 0.7866309285163879, -139.99667358398438, -29.04966926574707)" style="fill: rgb(255, 255, 255); line-height: 38.0767px; white-space: pre;"/>
      <path d="M 63.049 57.897 C 61.536 57.897 60.182 57.524 58.989 56.777 C 57.802 56.037 56.866 54.957 56.179 53.537 C 55.499 52.117 55.159 50.397 55.159 48.377 L 55.159 45.237 C 55.159 42.77 55.529 40.697 56.269 39.017 C 57.009 37.337 58.036 36.064 59.349 35.197 C 60.656 34.33 62.156 33.897 63.849 33.897 C 64.642 33.897 65.432 33.99 66.219 34.177 C 66.999 34.357 67.646 34.587 68.159 34.867 L 67.549 37.217 C 67.049 36.97 66.499 36.77 65.899 36.617 C 65.306 36.464 64.622 36.387 63.849 36.387 C 62.216 36.387 60.916 37.004 59.949 38.237 C 58.989 39.47 58.476 41.33 58.409 43.817 L 58.469 43.877 C 59.069 43.324 59.802 42.884 60.669 42.557 C 61.529 42.23 62.462 42.067 63.469 42.067 C 64.856 42.067 66.062 42.397 67.089 43.057 C 68.116 43.71 68.909 44.614 69.469 45.767 C 70.029 46.92 70.309 48.234 70.309 49.707 C 70.309 51.32 70.009 52.74 69.409 53.967 C 68.809 55.194 67.966 56.157 66.879 56.857 C 65.792 57.55 64.516 57.897 63.049 57.897 Z M 63.049 55.427 C 63.916 55.427 64.652 55.177 65.259 54.677 C 65.872 54.17 66.342 53.487 66.669 52.627 C 66.989 51.76 67.149 50.787 67.149 49.707 C 67.149 48.174 66.762 46.91 65.989 45.917 C 65.216 44.924 64.146 44.427 62.779 44.427 C 62.066 44.427 61.419 44.524 60.839 44.717 C 60.252 44.917 59.749 45.197 59.329 45.557 C 58.909 45.91 58.566 46.327 58.299 46.807 L 58.299 48.687 C 58.299 50.854 58.749 52.517 59.649 53.677 C 60.549 54.844 61.682 55.427 63.049 55.427 ZM 82.29 55.217 L 79.13 55.217 L 79.13 47.867 L 72.71 47.867 L 72.71 45.017 L 79.13 45.017 L 79.13 38.247 L 82.29 38.247 L 82.29 45.017 L 88.69 45.017 L 88.69 47.867 L 82.29 47.867 L 82.29 55.217 Z" transform="matrix(1, 0, 0, 1, 0, 0)" style="fill: rgb(255, 255, 255); white-space: pre;"/>
    </g>
  </g>
</svg>