<?xml version="1.0" encoding="utf-8"?>
<svg viewBox="6.911 319.32 89.743 89.743" xmlns="http://www.w3.org/2000/svg">
  <defs>
    <radialGradient gradientUnits="userSpaceOnUse" cx="248.453" cy="40.947" r="52.5" id="gradient-16" gradientTransform="matrix(-0.00441, 1.296723, -0.999993, -0.003401, 291.220184, -280.752943)" spreadMethod="pad">
      <stop offset="0" style="stop-color: rgb(48, 168, 204);"/>
      <stop offset="1" style="stop-color: rgb(10, 21, 98);"/>
    </radialGradient>
  </defs>
  <g transform="matrix(0.854692, 0, 0, 0.854692, -7.801673, 307.972534)" style="">
    <title>6+ ignore spells</title>
    <circle style="paint-order: fill; fill: url(#gradient-16);" cx="250.028" cy="82.284" r="52.5" transform="matrix(1, 0, 0, 0.999999, -180.313995, -16.506966)">
      <title>Background</title>
    </circle>
    <polygon points="67.852 40.069 67.852 47.97 93.08 47.97 60.74 80.311 38.447 58.017 32.859 63.604 60.74 91.485 98.669 53.558 98.669 78.787 106.57 78.787 106.57 40.069" style="fill-opacity: 0.5;"/>
    <path d="M 244.862 133.469 L 244.862 123.909 L 247.102 123.909 L 247.102 125.789 C 247.329 125.149 247.692 124.636 248.192 124.249 C 248.692 123.856 249.262 123.659 249.902 123.659 C 250.342 123.659 250.646 123.702 250.812 123.789 L 250.502 126.059 C 250.376 125.972 250.106 125.929 249.692 125.929 C 249.039 125.929 248.446 126.139 247.912 126.559 C 247.372 126.972 247.102 127.639 247.102 128.559 L 247.102 133.469 L 244.862 133.469 ZM 256.916 133.679 C 255.776 133.679 254.823 133.452 254.056 132.999 C 253.296 132.546 252.736 131.942 252.376 131.189 C 252.016 130.429 251.836 129.599 251.836 128.699 C 251.836 127.686 252.046 126.799 252.466 126.039 C 252.893 125.272 253.479 124.686 254.226 124.279 C 254.979 123.866 255.826 123.659 256.766 123.659 C 258.239 123.659 259.333 124.066 260.046 124.879 C 260.759 125.692 261.116 126.836 261.116 128.309 C 261.116 128.682 261.096 129.069 261.056 129.469 L 254.186 129.469 C 254.339 130.316 254.643 130.926 255.096 131.299 C 255.543 131.679 256.169 131.869 256.976 131.869 C 257.643 131.869 258.189 131.812 258.616 131.699 C 259.049 131.586 259.446 131.432 259.806 131.239 L 260.496 132.849 C 260.149 133.069 259.676 133.262 259.076 133.429 C 258.483 133.596 257.763 133.679 256.916 133.679 Z M 254.186 127.909 L 258.936 127.909 C 258.949 127.049 258.759 126.442 258.366 126.089 C 257.979 125.736 257.426 125.559 256.706 125.559 C 255.246 125.559 254.406 126.342 254.186 127.909 ZM 266.761 133.679 C 266.094 133.679 265.404 133.592 264.691 133.419 C 263.971 133.246 263.461 133.039 263.161 132.799 L 263.911 131.029 C 264.744 131.616 265.694 131.909 266.761 131.909 C 267.828 131.909 268.361 131.596 268.361 130.969 C 268.361 130.689 268.251 130.476 268.031 130.329 C 267.811 130.176 267.414 129.992 266.841 129.779 L 266.051 129.489 C 265.218 129.156 264.558 128.759 264.071 128.299 C 263.584 127.832 263.341 127.216 263.341 126.449 C 263.341 125.576 263.684 124.892 264.371 124.399 C 265.064 123.906 265.984 123.659 267.131 123.659 C 267.704 123.659 268.264 123.722 268.811 123.849 C 269.358 123.976 269.778 124.136 270.071 124.329 L 269.261 126.119 C 269.081 125.939 268.791 125.782 268.391 125.649 C 267.998 125.516 267.558 125.449 267.071 125.449 C 266.084 125.449 265.591 125.749 265.591 126.349 C 265.591 126.682 265.724 126.936 265.991 127.109 C 266.251 127.282 266.681 127.472 267.281 127.679 C 267.334 127.692 267.548 127.769 267.921 127.909 C 268.814 128.256 269.474 128.652 269.901 129.099 C 270.334 129.539 270.551 130.106 270.551 130.799 C 270.551 131.746 270.194 132.462 269.481 132.949 C 268.761 133.436 267.854 133.679 266.761 133.679 ZM 273.051 133.469 L 273.051 123.909 L 275.381 123.909 L 275.381 133.469 L 273.051 133.469 Z M 274.191 122.119 C 273.757 122.119 273.397 121.972 273.111 121.679 C 272.817 121.392 272.671 121.032 272.671 120.599 C 272.671 120.212 272.817 119.879 273.111 119.599 C 273.397 119.326 273.757 119.189 274.191 119.189 C 274.611 119.189 274.964 119.326 275.251 119.599 C 275.544 119.879 275.691 120.212 275.691 120.599 C 275.691 121.032 275.547 121.392 275.261 121.679 C 274.981 121.972 274.624 122.119 274.191 122.119 ZM 281.791 133.679 C 281.125 133.679 280.435 133.592 279.721 133.419 C 279.001 133.246 278.491 133.039 278.191 132.799 L 278.941 131.029 C 279.775 131.616 280.725 131.909 281.791 131.909 C 282.858 131.909 283.391 131.596 283.391 130.969 C 283.391 130.689 283.281 130.476 283.061 130.329 C 282.841 130.176 282.445 129.992 281.871 129.779 L 281.081 129.489 C 280.248 129.156 279.588 128.759 279.101 128.299 C 278.615 127.832 278.371 127.216 278.371 126.449 C 278.371 125.576 278.715 124.892 279.401 124.399 C 280.095 123.906 281.015 123.659 282.161 123.659 C 282.735 123.659 283.295 123.722 283.841 123.849 C 284.388 123.976 284.808 124.136 285.101 124.329 L 284.291 126.119 C 284.111 125.939 283.821 125.782 283.421 125.649 C 283.028 125.516 282.588 125.449 282.101 125.449 C 281.115 125.449 280.621 125.749 280.621 126.349 C 280.621 126.682 280.755 126.936 281.021 127.109 C 281.281 127.282 281.711 127.472 282.311 127.679 C 282.365 127.692 282.578 127.769 282.951 127.909 C 283.845 128.256 284.505 128.652 284.931 129.099 C 285.365 129.539 285.581 130.106 285.581 130.799 C 285.581 131.746 285.225 132.462 284.511 132.949 C 283.791 133.436 282.885 133.679 281.791 133.679 ZM 288.741 133.469 L 288.741 125.739 L 287.051 125.739 L 287.051 123.909 L 288.741 123.909 L 288.741 120.019 L 291.011 119.519 L 291.011 123.909 L 293.221 123.909 L 293.221 125.739 L 291.011 125.739 L 291.011 133.469 L 288.741 133.469 Z" transform="matrix(0.7866309285163879, 0, 0, 0.7866309285163879, -139.61366271972656, -27.989347457885742)" style="fill: rgb(255, 255, 255); line-height: 38.0767px; white-space: pre;"/>
    <path d="M 251.106 154.502 C 250.439 154.502 249.749 154.416 249.036 154.242 C 248.316 154.069 247.806 153.862 247.506 153.622 L 248.256 151.852 C 249.089 152.439 250.039 152.732 251.106 152.732 C 252.173 152.732 252.706 152.419 252.706 151.792 C 252.706 151.512 252.596 151.299 252.376 151.152 C 252.156 150.999 251.759 150.816 251.186 150.602 L 250.396 150.312 C 249.563 149.979 248.903 149.582 248.416 149.122 C 247.929 148.656 247.686 148.039 247.686 147.272 C 247.686 146.399 248.029 145.716 248.716 145.222 C 249.409 144.729 250.329 144.482 251.476 144.482 C 252.049 144.482 252.609 144.546 253.156 144.672 C 253.703 144.799 254.123 144.959 254.416 145.152 L 253.606 146.942 C 253.426 146.762 253.136 146.606 252.736 146.472 C 252.343 146.339 251.903 146.272 251.416 146.272 C 250.429 146.272 249.936 146.572 249.936 147.172 C 249.936 147.506 250.069 147.759 250.336 147.932 C 250.596 148.106 251.026 148.296 251.626 148.502 C 251.679 148.516 251.893 148.592 252.266 148.732 C 253.159 149.079 253.819 149.476 254.246 149.922 C 254.679 150.362 254.896 150.929 254.896 151.622 C 254.896 152.569 254.539 153.286 253.826 153.772 C 253.106 154.259 252.199 154.502 251.106 154.502 ZM 257.266 159.352 L 257.266 144.732 L 259.436 144.732 L 259.436 146.502 C 260.196 145.156 261.389 144.482 263.016 144.482 C 264.362 144.482 265.452 144.909 266.286 145.762 C 267.119 146.616 267.536 147.849 267.536 149.462 C 267.536 150.462 267.329 151.342 266.916 152.102 C 266.509 152.869 265.956 153.459 265.256 153.872 C 264.549 154.292 263.766 154.502 262.906 154.502 C 262.106 154.502 261.409 154.359 260.816 154.072 C 260.229 153.786 259.769 153.379 259.436 152.852 L 259.456 159.352 L 257.266 159.352 Z M 262.386 152.602 C 263.292 152.602 263.986 152.316 264.466 151.742 C 264.952 151.162 265.196 150.422 265.196 149.522 C 265.196 148.582 264.959 147.829 264.486 147.262 C 264.006 146.702 263.306 146.422 262.386 146.422 C 261.886 146.422 261.419 146.542 260.986 146.782 C 260.546 147.029 260.199 147.376 259.946 147.822 C 259.686 148.276 259.556 148.802 259.556 149.402 L 259.556 149.542 C 259.556 150.142 259.686 150.676 259.946 151.142 C 260.199 151.602 260.542 151.962 260.976 152.222 C 261.402 152.476 261.872 152.602 262.386 152.602 ZM 274.445 154.502 C 273.305 154.502 272.351 154.276 271.585 153.822 C 270.825 153.369 270.265 152.766 269.905 152.012 C 269.545 151.252 269.365 150.422 269.365 149.522 C 269.365 148.509 269.575 147.622 269.995 146.862 C 270.421 146.096 271.008 145.509 271.755 145.102 C 272.508 144.689 273.355 144.482 274.295 144.482 C 275.768 144.482 276.861 144.889 277.575 145.702 C 278.288 146.516 278.645 147.659 278.645 149.132 C 278.645 149.506 278.625 149.892 278.585 150.292 L 271.715 150.292 C 271.868 151.139 272.171 151.749 272.625 152.122 C 273.071 152.502 273.698 152.692 274.505 152.692 C 275.171 152.692 275.718 152.636 276.145 152.522 C 276.578 152.409 276.975 152.256 277.335 152.062 L 278.025 153.672 C 277.678 153.892 277.205 154.086 276.605 154.252 C 276.011 154.419 275.291 154.502 274.445 154.502 Z M 271.715 148.732 L 276.465 148.732 C 276.478 147.872 276.288 147.266 275.895 146.912 C 275.508 146.559 274.955 146.382 274.235 146.382 C 272.775 146.382 271.935 147.166 271.715 148.732 ZM 281.19 154.292 L 281.19 138.982 L 283.41 138.982 L 283.41 154.292 L 281.19 154.292 ZM 286.769 154.292 L 286.769 138.982 L 288.989 138.982 L 288.989 154.292 L 286.769 154.292 Z" transform="matrix(0.7866309285163879, 0, 0, 0.7866309285163879, -139.61366271972656, -27.989347457885742)" style="fill: rgb(255, 255, 255); line-height: 38.0767px; white-space: pre;"/>
    <path d="M 63.432 58.957 C 61.919 58.957 60.565 58.584 59.372 57.837 C 58.185 57.097 57.249 56.017 56.562 54.597 C 55.882 53.177 55.542 51.457 55.542 49.437 L 55.542 46.297 C 55.542 43.83 55.912 41.757 56.652 40.077 C 57.392 38.397 58.419 37.124 59.732 36.257 C 61.039 35.39 62.539 34.957 64.232 34.957 C 65.025 34.957 65.815 35.05 66.602 35.237 C 67.382 35.417 68.029 35.647 68.542 35.927 L 67.932 38.277 C 67.432 38.03 66.882 37.83 66.282 37.677 C 65.689 37.524 65.005 37.447 64.232 37.447 C 62.599 37.447 61.299 38.064 60.332 39.297 C 59.372 40.53 58.859 42.39 58.792 44.877 L 58.852 44.937 C 59.452 44.384 60.185 43.944 61.052 43.617 C 61.912 43.29 62.845 43.127 63.852 43.127 C 65.239 43.127 66.445 43.457 67.472 44.117 C 68.499 44.77 69.292 45.674 69.852 46.827 C 70.412 47.98 70.692 49.294 70.692 50.767 C 70.692 52.38 70.392 53.8 69.792 55.027 C 69.192 56.254 68.349 57.217 67.262 57.917 C 66.175 58.61 64.899 58.957 63.432 58.957 Z M 63.432 56.487 C 64.299 56.487 65.035 56.237 65.642 55.737 C 66.255 55.23 66.725 54.547 67.052 53.687 C 67.372 52.82 67.532 51.847 67.532 50.767 C 67.532 49.234 67.145 47.97 66.372 46.977 C 65.599 45.984 64.529 45.487 63.162 45.487 C 62.449 45.487 61.802 45.584 61.222 45.777 C 60.635 45.977 60.132 46.257 59.712 46.617 C 59.292 46.97 58.949 47.387 58.682 47.867 L 58.682 49.747 C 58.682 51.914 59.132 53.577 60.032 54.737 C 60.932 55.904 62.065 56.487 63.432 56.487 ZM 82.673 56.277 L 79.513 56.277 L 79.513 48.927 L 73.093 48.927 L 73.093 46.077 L 79.513 46.077 L 79.513 39.307 L 82.673 39.307 L 82.673 46.077 L 89.073 46.077 L 89.073 48.927 L 82.673 48.927 L 82.673 56.277 Z" transform="matrix(1, 0, 0, 1, 0, 0)" style="fill: rgb(255, 255, 255); white-space: pre;"/>
  </g>
</svg>