<?xml version="1.0" encoding="utf-8"?>
<svg viewBox="7.309 419.586 89.344 89.344" xmlns="http://www.w3.org/2000/svg">
  <defs>
    <radialGradient gradientUnits="userSpaceOnUse" cx="248.453" cy="40.947" r="52.5" id="gradient-14" gradientTransform="matrix(-0.00441, 1.296723, -0.999993, -0.003401, 291.220184, -280.752882)" spreadMethod="pad">
      <stop offset="0" style="stop-color: rgb(255, 240, 23);"/>
      <stop offset="1" style="stop-color: rgb(175, 153, 26);"/>
    </radialGradient>
  </defs>
  <g transform="matrix(0.854692, 0, 0, 0.854692, -7.602509, 408.039124)" style="">
    <title>cp</title>
    <circle style="paint-order: fill; fill: url(#gradient-14);" cx="250.028" cy="82.284" r="52.267" transform="matrix(1, 0, 0, 0.999999, -180.313995, -16.506966)">
      <title>Background</title>
    </circle>
    <g transform="matrix(13.720919, 0, 0, 13.720919, 22.880358, 18.942907)" style="">
      <title>tactics</title>
      <path class="fil0" d="M2.38615 2.20507c0.0805984,0.806516 0.815925,0.920311 1.48244,1.02332l0.0340827 0.00527165c0.558803,0.0865394 1.12047,0.173535 1.52344,0.50163 0.408295,0.332429 0.639197,0.897217 0.512343,1.92619 -0.011752,0.0963386 -0.0617402,0.179024 -0.133028,0.234803 -0.0712047,0.0557126 -0.163425,0.0842992 -0.259768,0.0725433 -0.0963386,-0.011752 -0.17902,-0.0617362 -0.234807,-0.133028 -0.0557126,-0.0712047 -0.0842953,-0.163425 -0.0725394,-0.259768 0.0869724,-0.705476 -0.0656299,-1.08417 -0.337028,-1.29932 -0.277661,-0.220114 -0.692949,-0.284433 -1.10612,-0.348421l-0.0314961 -0.00487402c-0.979378,-0.151508 -2.03767,-0.315492 -2.08983,-1.71834l-0.713835 0c-0.0589094,0 -0.106669,-0.0477598 -0.106669,-0.106669 0,-0.0297913 0.0122165,-0.0567205 0.0319094,-0.0760748l1.13591 -1.13591 -7.87402e-006 -7.87402e-006c0.0416535,-0.0416535 0.109197,-0.0416535 0.15085,0l0.000590551 0.000606299 1.13597 1.13597 7.87402e-006 -7.87402e-006c0.0416535,0.0416535 0.0416535,0.109197 0,0.15085 -0.0208268,0.0208268 -0.048126,0.0312402 -0.0754252,0.0312402l0 3.93701e-006 -0.846984 0z" style="fill-rule: nonzero; fill-opacity: 0.5;"/>
      <path class="fil0" d="M1.63557 4.4412c0.162224,-0.162224 0.386339,-0.262571 0.633866,-0.262571 0.247528,0 0.471642,0.100343 0.633866,0.262567 0.162224,0.162224 0.262571,0.386339 0.262571,0.633866 0,0.247528 -0.100343,0.471638 -0.262567,0.633866 -0.162228,0.162224 -0.386339,0.262567 -0.63387,0.262567 -0.247528,0 -0.471638,-0.100343 -0.633866,-0.262567 -0.162224,-0.162228 -0.262567,-0.386339 -0.262567,-0.633866 0,-0.247528 0.100343,-0.471638 0.262567,-0.633862z" style="fill-rule: nonzero; fill-opacity: 0.5;"/>
      <path class="fil0" d="M4.95846 2.6757l-0.366228 -0.378205 -0.383768 0.37161 -0.0741654 -0.076252 0.0742008 0.0766299c-0.0423189,0.0409764 -0.109854,0.0398898 -0.150831,-0.00242913 -0.00186614,-0.00192913 -0.00364173,-0.00390551 -0.00533465,-0.00593307l-0.350902 -0.362382 0.076252 -0.0741654 -0.0766299 0.0742008c-0.0409764,-0.0423189 -0.0398898,-0.109854 0.00242913,-0.150831 0.00192913,-0.00186614 0.00390551,-0.00364173 0.00593307,-0.00533465l0.378205 -0.366224 -0.371614 -0.383772 0.076252 -0.0741654 -0.0766299 0.0742008c-0.0409764,-0.0423189 -0.0398898,-0.109854 0.00242913,-0.150831 0.00192913,-0.00186614 0.00390551,-0.00364173 0.00593307,-0.00533465l0.362382 -0.350902 0.0741654 0.076252 -0.0742008 -0.0766299c0.0423189,-0.0409764 0.109854,-0.0398898 0.150831,0.00242913 0.00186614,0.00192913 0.00364173,0.00390551 0.00533465,0.00593307l0.366232 0.378205 0.383764 -0.37161 0.0741654 0.076252 -0.0742008 -0.0766299c0.0423189,-0.0409764 0.109854,-0.0398898 0.150831,0.00242913 0.00186614,0.00192913 0.00364567,0.00390551 0.00533465,0.00593307l0.350906 0.362378 -0.076252 0.0741654 0.0766299 -0.0742008c0.0409764,0.0423189 0.0398898,0.109854 -0.00242913,0.150831 -0.00192913,0.00186614 -0.00390551,0.00364173 -0.00593307,0.00533465l-0.378209 0.366232 0.37161 0.383764 -0.076252 0.0741654 0.0766299 -0.0742008c0.0409764,0.0423189 0.0398898,0.109854 -0.00242913,0.150831 -0.00192913,0.00186614 -0.00390551,0.00364567 -0.00593307,0.00533465l-0.362378 0.350906 -0.0741654 -0.076252 0.0742008 0.0766299c-0.0423189,0.0409764 -0.109854,0.0398898 -0.150831,-0.00242913 -0.00186614,-0.00192913 -0.00364173,-0.00390551 -0.00533465,-0.00593307z" style="fill-rule: nonzero; fill-opacity: 0.5;"/>
    </g>
    <path d="M 58.277 92.691 C 53.383 92.691 49.143 91.598 45.557 89.411 C 41.977 87.218 39.24 84.288 37.347 80.621 C 35.46 76.948 34.517 72.901 34.517 68.481 C 34.517 63.801 35.537 59.614 37.577 55.921 C 39.617 52.228 42.483 49.341 46.177 47.261 C 49.863 45.174 54.047 44.131 58.727 44.131 C 60.833 44.131 62.8 44.358 64.627 44.811 C 66.447 45.264 67.96 45.778 69.167 46.351 C 70.367 46.931 71.16 47.414 71.547 47.801 L 68.387 54.241 C 65.773 51.928 62.36 50.771 58.147 50.771 C 55.187 50.771 52.503 51.501 50.097 52.961 C 47.697 54.421 45.81 56.501 44.437 59.201 C 43.063 61.908 42.377 65.044 42.377 68.611 C 42.377 71.871 42.987 74.831 44.207 77.491 C 45.433 80.158 47.227 82.261 49.587 83.801 C 51.947 85.348 54.76 86.121 58.027 86.121 C 61.8 86.121 65.447 85.048 68.967 82.901 L 71.097 89.021 C 70.15 89.881 68.42 90.708 65.907 91.501 C 63.4 92.294 60.857 92.691 58.277 92.691 ZM 78.561 92.241 L 78.561 44.911 L 89.001 44.911 C 94.881 44.911 99.184 46.164 101.911 48.671 C 104.637 51.184 106.001 54.631 106.001 59.011 C 106.001 64.078 104.517 67.964 101.551 70.671 C 98.591 73.371 94.191 74.721 88.351 74.721 L 85.841 74.721 L 85.841 92.241 L 78.561 92.241 Z M 85.841 68.351 L 88.551 68.351 C 92.324 68.351 94.964 67.514 96.471 65.841 C 97.971 64.161 98.721 62.141 98.721 59.781 C 98.721 57.248 97.991 55.188 96.531 53.601 C 95.071 52.014 92.624 51.221 89.191 51.221 L 85.841 51.221 L 85.841 68.351 Z" transform="matrix(1, 0, 0, 1, 0, 0)" style="fill: rgb(255, 255, 255); white-space: pre;"/>
  </g>
</svg>