<?xml version="1.0" encoding="utf-8"?>
<svg viewBox="104.063 110.206 89.743 89.743" xmlns="http://www.w3.org/2000/svg">
  <defs>
    <radialGradient gradientUnits="userSpaceOnUse" cx="248.453" cy="40.947" r="52.5" id="gradient-23" gradientTransform="matrix(-0.00441, 1.296723, -0.999993, -0.003401, 291.220184, -280.75276)" spreadMethod="pad">
      <stop offset="0" style="stop-color: rgb(74, 204, 48);"/>
      <stop offset="1" style="stop-color: rgb(23, 68, 14);"/>
    </radialGradient>
  </defs>
  <g transform="matrix(0.854692, 0, 0, 0.854692, -7.376447, 502.403259)" style="">
    <title>fell back</title>
    <circle style="paint-order: fill; fill: url(#gradient-23);" cx="250.028" cy="82.284" r="52.5" transform="matrix(1, 0, 0, 0.999999, -67.142799, -488.659729)">
      <title>Background</title>
    </circle>
    <path d="M 160.607 -371.525 C 161.153 -371.36 161.721 -371.276 162.292 -371.275 C 164.734 -371.283 166.917 -372.797 167.783 -375.081 L 172.667 -388.112 L 186.532 -393.866 L 190.817 -388.155 C 192.609 -385.782 195.545 -384.561 198.492 -384.963 L 211.344 -386.585 C 215.818 -387.172 217.979 -392.383 215.232 -395.964 C 214.12 -397.413 212.394 -398.262 210.566 -398.258 C 210.31 -398.259 210.056 -398.241 209.802 -398.208 L 199.007 -396.851 L 193.316 -404.348 L 184.634 -417.465 C 188.394 -417.198 192.172 -417.391 195.886 -418.043 L 197.985 -418.414 C 201.893 -419.088 203.607 -423.739 201.07 -426.787 C 199.892 -428.202 198.049 -428.88 196.236 -428.569 L 194.665 -428.289 C 189.789 -427.423 184.798 -427.423 179.92 -428.289 L 173.794 -429.418 C 173.573 -429.461 173.351 -429.49 173.124 -429.517 L 172.645 -429.568 C 171.643 -429.696 170.627 -429.655 169.64 -429.446 C 168.251 -429.135 166.954 -428.501 165.854 -427.598 C 162.258 -424.525 161.528 -419.248 164.155 -415.315 L 173.517 -401.157 L 166.769 -398.358 C 164.667 -397.483 163.021 -395.777 162.22 -393.645 L 156.409 -378.129 C 155.779 -376.621 155.94 -374.898 156.837 -373.532 C 157.714 -372.316 159.108 -371.576 160.607 -371.525 Z M 160.421 -376.623 L 166.233 -392.146 C 166.616 -393.166 167.404 -393.983 168.411 -394.403 L 177.558 -398.193 C 178.823 -398.707 179.291 -400.258 178.521 -401.385 L 167.726 -417.68 C 166.293 -419.777 166.662 -422.615 168.582 -424.276 C 169.168 -424.762 169.861 -425.101 170.602 -425.268 C 170.876 -425.328 171.158 -425.356 171.438 -425.355 C 171.676 -425.354 171.916 -425.339 172.152 -425.312 L 172.623 -425.262 L 173.009 -425.205 L 179.135 -424.098 C 184.511 -423.143 190.011 -423.143 195.386 -424.098 L 196.943 -424.377 C 197.599 -424.487 198.129 -423.844 197.896 -423.221 C 197.788 -422.932 197.533 -422.721 197.229 -422.67 L 195.087 -422.299 C 190.293 -421.462 185.391 -421.462 180.599 -422.299 C 178.973 -422.572 177.661 -420.981 178.238 -419.436 C 178.295 -419.285 178.369 -419.141 178.457 -419.008 L 189.739 -401.964 L 189.817 -401.856 L 196.243 -393.289 C 196.706 -392.675 197.46 -392.357 198.221 -392.453 L 210.274 -393.967 C 211.477 -394.132 212.407 -392.932 211.949 -391.807 C 211.736 -391.285 211.26 -390.916 210.703 -390.839 L 197.85 -389.218 C 196.482 -389.077 195.139 -389.646 194.287 -390.725 L 188.975 -397.772 C 188.393 -398.564 187.349 -398.858 186.44 -398.486 L 170.167 -391.717 C 169.619 -391.49 169.19 -391.046 168.982 -390.489 L 163.769 -376.588 C 163.448 -375.789 162.551 -375.388 161.742 -375.681 C 161.502 -375.77 161.248 -375.816 160.992 -375.816 C 160.766 -375.789 160.537 -375.851 160.357 -375.988 C 160.295 -376.199 160.315 -376.426 160.415 -376.623 Z M 165.819 -432.894 C 165.819 -439.491 158.679 -443.613 152.967 -440.316 C 147.255 -437.017 147.255 -428.772 152.967 -425.475 C 154.268 -424.723 155.746 -424.327 157.251 -424.327 C 161.983 -424.331 165.815 -428.17 165.812 -432.902 Z M 152.931 -432.894 C 152.931 -436.193 156.501 -438.254 159.357 -436.605 C 162.213 -434.957 162.213 -430.834 159.357 -429.185 C 158.706 -428.808 157.966 -428.61 157.215 -428.61 C 154.843 -428.607 152.92 -430.531 152.924 -432.902 Z M 209.131 -414.502 C 210.78 -414.502 211.811 -412.716 210.987 -411.289 C 210.603 -410.626 209.896 -410.218 209.131 -410.218 L 195.108 -410.218 C 193.458 -410.218 192.428 -412.003 193.253 -413.431 C 193.635 -414.093 194.342 -414.502 195.108 -414.502 Z M 214.943 -402.935 L 200.927 -402.935 C 199.278 -402.935 198.248 -404.72 199.072 -406.148 C 199.455 -406.81 200.162 -407.219 200.927 -407.219 L 214.943 -407.219 C 216.592 -407.219 217.622 -405.434 216.798 -404.005 C 216.415 -403.344 215.708 -402.935 214.943 -402.935 Z" style="fill-opacity: 0.5;"/>
    <path d="M 151.847 -399.591 L 151.847 -411.641 L 157.507 -411.641 L 157.507 -410.051 L 153.667 -410.051 L 153.667 -406.641 L 156.657 -406.641 L 156.657 -405.031 L 153.667 -405.031 L 153.667 -399.591 L 151.847 -399.591 ZM 162.309 -399.431 C 161.416 -399.431 160.669 -399.608 160.069 -399.961 C 159.462 -400.314 159.019 -400.791 158.739 -401.391 C 158.452 -401.984 158.309 -402.638 158.309 -403.351 C 158.309 -404.144 158.476 -404.841 158.809 -405.441 C 159.142 -406.048 159.606 -406.511 160.199 -406.831 C 160.786 -407.151 161.452 -407.311 162.199 -407.311 C 163.359 -407.311 164.219 -406.991 164.779 -406.351 C 165.346 -405.718 165.629 -404.821 165.629 -403.661 C 165.629 -403.361 165.612 -403.054 165.579 -402.741 L 160.159 -402.741 C 160.286 -402.074 160.526 -401.594 160.879 -401.301 C 161.232 -401.001 161.726 -400.851 162.359 -400.851 C 162.886 -400.851 163.319 -400.894 163.659 -400.981 C 163.999 -401.074 164.309 -401.194 164.589 -401.341 L 165.129 -400.081 C 164.856 -399.908 164.486 -399.754 164.019 -399.621 C 163.546 -399.494 162.976 -399.431 162.309 -399.431 Z M 160.159 -403.971 L 163.899 -403.971 C 163.912 -404.651 163.766 -405.128 163.459 -405.401 C 163.152 -405.681 162.716 -405.821 162.149 -405.821 C 161.002 -405.821 160.339 -405.204 160.159 -403.971 ZM 167.624 -399.591 L 167.624 -411.641 L 169.384 -411.641 L 169.384 -399.591 L 167.624 -399.591 ZM 172.019 -399.591 L 172.019 -411.641 L 173.779 -411.641 L 173.779 -399.591 L 172.019 -399.591 ZM 184.751 -399.431 C 184.138 -399.431 183.588 -399.581 183.101 -399.881 C 182.615 -400.181 182.278 -400.528 182.091 -400.921 L 182.061 -399.591 L 180.351 -399.591 L 180.351 -411.641 L 182.091 -411.641 L 182.091 -407.001 L 182.011 -405.721 C 182.198 -406.161 182.561 -406.538 183.101 -406.851 C 183.641 -407.158 184.228 -407.311 184.861 -407.311 C 185.608 -407.311 186.255 -407.144 186.801 -406.811 C 187.355 -406.478 187.778 -406.014 188.071 -405.421 C 188.371 -404.828 188.521 -404.138 188.521 -403.351 C 188.521 -402.551 188.348 -401.854 188.001 -401.261 C 187.655 -400.674 187.195 -400.221 186.621 -399.901 C 186.048 -399.588 185.425 -399.431 184.751 -399.431 Z M 184.451 -400.901 C 185.165 -400.901 185.711 -401.128 186.091 -401.581 C 186.471 -402.034 186.661 -402.624 186.661 -403.351 C 186.661 -404.078 186.475 -404.668 186.101 -405.121 C 185.721 -405.581 185.171 -405.811 184.451 -405.811 C 183.831 -405.811 183.308 -405.594 182.881 -405.161 C 182.455 -404.728 182.241 -404.161 182.241 -403.461 L 182.241 -403.351 C 182.241 -402.878 182.341 -402.454 182.541 -402.081 C 182.741 -401.714 183.008 -401.424 183.341 -401.211 C 183.675 -401.004 184.045 -400.901 184.451 -400.901 ZM 193.73 -399.431 C 193.056 -399.431 192.433 -399.591 191.86 -399.911 C 191.28 -400.231 190.82 -400.691 190.48 -401.291 C 190.133 -401.884 189.96 -402.581 189.96 -403.381 C 189.96 -404.168 190.11 -404.854 190.41 -405.441 C 190.71 -406.034 191.14 -406.494 191.7 -406.821 C 192.26 -407.148 192.916 -407.311 193.67 -407.311 C 194.103 -407.311 194.513 -407.234 194.9 -407.081 C 195.28 -406.934 195.603 -406.748 195.87 -406.521 C 196.13 -406.294 196.303 -406.071 196.39 -405.851 L 196.42 -407.121 L 198.11 -407.121 L 198.11 -399.591 L 196.44 -399.591 L 196.41 -400.921 C 196.223 -400.528 195.883 -400.181 195.39 -399.881 C 194.896 -399.581 194.343 -399.431 193.73 -399.431 Z M 194.03 -400.901 C 194.65 -400.901 195.173 -401.118 195.6 -401.551 C 196.026 -401.984 196.24 -402.551 196.24 -403.251 L 196.24 -403.361 C 196.24 -403.834 196.143 -404.254 195.95 -404.621 C 195.75 -404.994 195.48 -405.284 195.14 -405.491 C 194.806 -405.704 194.436 -405.811 194.03 -405.811 C 193.33 -405.811 192.79 -405.581 192.41 -405.121 C 192.023 -404.668 191.83 -404.081 191.83 -403.361 C 191.83 -402.628 192.02 -402.034 192.4 -401.581 C 192.773 -401.128 193.316 -400.901 194.03 -400.901 ZM 203.995 -399.431 C 203.255 -399.431 202.585 -399.591 201.985 -399.911 C 201.392 -400.231 200.922 -400.694 200.575 -401.301 C 200.222 -401.908 200.045 -402.621 200.045 -403.441 C 200.045 -404.221 200.209 -404.904 200.535 -405.491 C 200.855 -406.071 201.309 -406.521 201.895 -406.841 C 202.475 -407.154 203.149 -407.311 203.915 -407.311 C 204.495 -407.311 204.995 -407.238 205.415 -407.091 C 205.835 -406.944 206.165 -406.761 206.405 -406.541 L 205.625 -405.121 C 205.165 -405.581 204.645 -405.811 204.065 -405.811 C 203.365 -405.811 202.832 -405.598 202.465 -405.171 C 202.099 -404.744 201.915 -404.174 201.915 -403.461 C 201.915 -402.654 202.105 -402.024 202.485 -401.571 C 202.859 -401.124 203.385 -400.901 204.065 -400.901 C 204.405 -400.901 204.735 -400.951 205.055 -401.051 C 205.382 -401.151 205.632 -401.264 205.805 -401.391 L 206.445 -400.151 C 206.205 -399.964 205.869 -399.798 205.435 -399.651 C 205.002 -399.504 204.522 -399.431 203.995 -399.431 ZM 212.087 -403.971 L 214.937 -399.591 L 212.857 -399.591 L 211.327 -402.051 L 210.907 -402.891 L 209.917 -401.821 L 209.917 -399.591 L 208.217 -399.591 L 208.217 -411.641 L 209.907 -411.641 L 209.907 -405.031 L 209.867 -403.761 L 212.737 -407.121 L 214.917 -407.121 L 212.087 -403.971 Z" transform="matrix(1, 0, 0, 1, 0, 0)" style="fill: rgb(255, 255, 255); line-height: 38.0767px; white-space: pre;"/>
  </g>
</svg>