<?xml version="1.0" encoding="utf-8"?>
<svg viewBox="692.207 9.641 89.743 89.743" xmlns="http://www.w3.org/2000/svg">
  <defs>
    <radialGradient gradientUnits="userSpaceOnUse" cx="248.453" cy="40.947" r="52.5" id="gradient-31" gradientTransform="matrix(-0.00441, 1.296723, -0.999993, -0.003401, 291.220184, -280.752913)" spreadMethod="pad">
      <stop offset="0" style="stop-color: rgb(216, 32, 32);"/>
      <stop offset="1" style="stop-color: rgb(48, 18, 18);"/>
    </radialGradient>
  </defs>
  <g style="" transform="matrix(0.854692, 0, 0, 0.854692, 677.494751, -1.706753)">
    <title>fights first</title>
    <circle style="paint-order: fill; fill: url(#gradient-31);" cx="250.028" cy="82.284" r="52.5" transform="matrix(1, 0, 0, 0.999999, -180.313995, -16.506966)">
      <title>Background</title>
    </circle>
    <g data-name="11" transform="matrix(2.380301, 0, 0, 2.380301, 31.629189, 28.296291)" style="filter: none;">
      <title>Swords</title>
      <path d="M30,1H24.24a1,1,0,0,0-.76.36L8.53,19.12,6.71,17.29a1,1,0,0,0-1.42,1.42l1.88,1.88L2.39,25.36a3,3,0,0,0,0,4.25h0a3,3,0,0,0,4.25,0l4.77-4.78,1.88,1.88a1,1,0,0,0,1.42,0,1,1,0,0,0,0-1.42l-1.83-1.82L30.64,8.52A1,1,0,0,0,31,7.76V2A1,1,0,0,0,30,1Z" style="fill-opacity: 0.5;"/>
      <path d="M14.69,8.68,8.52,1.36A1,1,0,0,0,7.76,1H2A1,1,0,0,0,1,2V7.76a1,1,0,0,0,.36.76l7.88,6.64Z" style="fill-opacity: 0.5;"/>
      <path d="M24.83,20.59l1.88-1.88a1,1,0,0,0-1.42-1.42l-1.82,1.83-1-1.14-5,4.18,1.56,1.31-1.83,1.82a1,1,0,0,0,0,1.42,1,1,0,0,0,1.42,0l1.88-1.88,4.77,4.78a3,3,0,0,0,4.25-4.25Z" style="fill-opacity: 0.5;"/>
    </g>
    <path d="M 242.065 133.469 L 242.065 118.159 L 249.255 118.159 L 249.255 120.179 L 244.375 120.179 L 244.375 124.519 L 248.165 124.519 L 248.165 126.559 L 244.375 126.559 L 244.375 133.469 L 242.065 133.469 ZM 251.421 133.469 L 251.421 123.909 L 253.751 123.909 L 253.751 133.469 L 251.421 133.469 Z M 252.561 122.119 C 252.128 122.119 251.768 121.972 251.481 121.679 C 251.188 121.392 251.041 121.032 251.041 120.599 C 251.041 120.212 251.188 119.879 251.481 119.599 C 251.768 119.326 252.128 119.189 252.561 119.189 C 252.981 119.189 253.334 119.326 253.621 119.599 C 253.914 119.879 254.061 120.212 254.061 120.599 C 254.061 121.032 253.918 121.392 253.631 121.679 C 253.351 121.972 252.994 122.119 252.561 122.119 ZM 261.512 138.469 C 260.805 138.469 260.108 138.372 259.422 138.179 C 258.735 137.979 258.245 137.796 257.952 137.629 L 258.452 135.549 C 259.372 136.149 260.372 136.449 261.452 136.449 C 262.285 136.449 262.985 136.246 263.552 135.839 C 264.125 135.439 264.418 134.656 264.432 133.489 L 264.432 131.779 C 264.138 132.326 263.665 132.779 263.012 133.139 C 262.358 133.499 261.638 133.679 260.852 133.679 C 260.018 133.679 259.255 133.472 258.562 133.059 C 257.862 132.652 257.312 132.066 256.912 131.299 C 256.512 130.539 256.312 129.652 256.312 128.639 C 256.312 127.666 256.502 126.802 256.882 126.049 C 257.262 125.289 257.805 124.702 258.512 124.289 C 259.225 123.869 260.052 123.659 260.992 123.659 C 261.545 123.659 262.065 123.756 262.552 123.949 C 263.038 124.149 263.452 124.389 263.792 124.669 C 264.132 124.956 264.358 125.239 264.472 125.519 L 264.512 123.909 L 266.632 123.909 L 266.632 133.409 C 266.632 135.029 266.218 136.279 265.392 137.159 C 264.558 138.032 263.265 138.469 261.512 138.469 Z M 261.472 131.779 C 262.265 131.779 262.932 131.506 263.472 130.959 C 264.012 130.412 264.282 129.696 264.282 128.809 L 264.282 128.659 C 264.282 128.059 264.158 127.526 263.912 127.059 C 263.658 126.586 263.318 126.216 262.892 125.949 C 262.458 125.689 261.985 125.559 261.472 125.559 C 260.585 125.559 259.898 125.846 259.412 126.419 C 258.925 126.999 258.682 127.746 258.682 128.659 C 258.682 129.586 258.922 130.339 259.402 130.919 C 259.882 131.492 260.572 131.779 261.472 131.779 ZM 269.608 133.469 L 269.608 118.159 L 271.798 118.159 L 271.798 123.909 L 271.718 125.679 C 271.978 125.099 272.402 124.616 272.988 124.229 C 273.568 123.849 274.248 123.659 275.028 123.659 C 276.015 123.659 276.772 123.866 277.298 124.279 C 277.825 124.686 278.178 125.256 278.358 125.989 C 278.538 126.729 278.628 127.689 278.628 128.869 L 278.628 133.469 L 276.398 133.469 L 276.398 128.849 C 276.398 128.042 276.355 127.409 276.268 126.949 C 276.175 126.496 275.992 126.149 275.718 125.909 C 275.452 125.676 275.062 125.559 274.548 125.559 C 274.128 125.559 273.708 125.682 273.288 125.929 C 272.862 126.182 272.512 126.549 272.238 127.029 C 271.958 127.502 271.818 128.066 271.818 128.719 L 271.818 133.469 L 269.608 133.469 ZM 282.308 133.469 L 282.308 125.739 L 280.618 125.739 L 280.618 123.909 L 282.308 123.909 L 282.308 120.019 L 284.578 119.519 L 284.578 123.909 L 286.788 123.909 L 286.788 125.739 L 284.578 125.739 L 284.578 133.469 L 282.308 133.469 ZM 291.909 133.679 C 291.242 133.679 290.552 133.592 289.839 133.419 C 289.119 133.246 288.609 133.039 288.309 132.799 L 289.059 131.029 C 289.892 131.616 290.842 131.909 291.909 131.909 C 292.976 131.909 293.509 131.596 293.509 130.969 C 293.509 130.689 293.399 130.476 293.179 130.329 C 292.959 130.176 292.562 129.992 291.989 129.779 L 291.199 129.489 C 290.366 129.156 289.706 128.759 289.219 128.299 C 288.732 127.832 288.489 127.216 288.489 126.449 C 288.489 125.576 288.832 124.892 289.519 124.399 C 290.212 123.906 291.132 123.659 292.279 123.659 C 292.852 123.659 293.412 123.722 293.959 123.849 C 294.506 123.976 294.926 124.136 295.219 124.329 L 294.409 126.119 C 294.229 125.939 293.939 125.782 293.539 125.649 C 293.146 125.516 292.706 125.449 292.219 125.449 C 291.232 125.449 290.739 125.749 290.739 126.349 C 290.739 126.682 290.872 126.936 291.139 127.109 C 291.399 127.282 291.829 127.472 292.429 127.679 C 292.482 127.692 292.696 127.769 293.069 127.909 C 293.962 128.256 294.622 128.652 295.049 129.099 C 295.482 129.539 295.699 130.106 295.699 130.799 C 295.699 131.746 295.342 132.462 294.629 132.949 C 293.909 133.436 293.002 133.679 291.909 133.679 Z" transform="matrix(0.7866309285163879, 0, 0, 0.7866309285163879, -141.49639892578125, -48.813053131103516)" style="fill: rgb(255, 255, 255); line-height: 38.0767px; white-space: pre;"/>
    <path d="M 252.287 154.292 L 252.287 146.522 L 250.747 146.522 L 250.747 144.732 L 252.287 144.732 L 252.287 142.672 C 252.287 141.426 252.59 140.459 253.197 139.772 C 253.803 139.086 254.687 138.742 255.847 138.742 C 256.32 138.742 256.857 138.872 257.457 139.132 L 257.017 141.252 C 256.917 141.146 256.767 141.039 256.567 140.932 C 256.367 140.832 256.15 140.782 255.917 140.782 C 254.983 140.782 254.51 141.386 254.497 142.592 L 254.497 144.732 L 256.747 144.732 L 256.747 146.522 L 254.497 146.522 L 254.497 154.292 L 252.287 154.292 ZM 258.145 154.292 L 258.145 144.732 L 260.475 144.732 L 260.475 154.292 L 258.145 154.292 Z M 259.285 142.942 C 258.852 142.942 258.492 142.796 258.205 142.502 C 257.912 142.216 257.765 141.856 257.765 141.422 C 257.765 141.036 257.912 140.702 258.205 140.422 C 258.492 140.149 258.852 140.012 259.285 140.012 C 259.705 140.012 260.058 140.149 260.345 140.422 C 260.638 140.702 260.785 141.036 260.785 141.422 C 260.785 141.856 260.642 142.216 260.355 142.502 C 260.075 142.796 259.718 142.942 259.285 142.942 ZM 264.494 154.292 L 264.494 144.732 L 266.734 144.732 L 266.734 146.612 C 266.96 145.972 267.324 145.459 267.824 145.072 C 268.324 144.679 268.894 144.482 269.534 144.482 C 269.974 144.482 270.277 144.526 270.444 144.612 L 270.134 146.882 C 270.007 146.796 269.737 146.752 269.324 146.752 C 268.67 146.752 268.077 146.962 267.544 147.382 C 267.004 147.796 266.734 148.462 266.734 149.382 L 266.734 154.292 L 264.494 154.292 ZM 275.317 154.502 C 274.65 154.502 273.96 154.416 273.247 154.242 C 272.527 154.069 272.017 153.862 271.717 153.622 L 272.467 151.852 C 273.3 152.439 274.25 152.732 275.317 152.732 C 276.384 152.732 276.917 152.419 276.917 151.792 C 276.917 151.512 276.807 151.299 276.587 151.152 C 276.367 150.999 275.97 150.816 275.397 150.602 L 274.607 150.312 C 273.774 149.979 273.114 149.582 272.627 149.122 C 272.14 148.656 271.897 148.039 271.897 147.272 C 271.897 146.399 272.24 145.716 272.927 145.222 C 273.62 144.729 274.54 144.482 275.687 144.482 C 276.26 144.482 276.82 144.546 277.367 144.672 C 277.914 144.799 278.334 144.959 278.627 145.152 L 277.817 146.942 C 277.637 146.762 277.347 146.606 276.947 146.472 C 276.554 146.339 276.114 146.272 275.627 146.272 C 274.64 146.272 274.147 146.572 274.147 147.172 C 274.147 147.506 274.28 147.759 274.547 147.932 C 274.807 148.106 275.237 148.296 275.837 148.502 C 275.89 148.516 276.104 148.592 276.477 148.732 C 277.37 149.079 278.03 149.476 278.457 149.922 C 278.89 150.362 279.107 150.929 279.107 151.622 C 279.107 152.569 278.75 153.286 278.037 153.772 C 277.317 154.259 276.41 154.502 275.317 154.502 ZM 282.267 154.292 L 282.267 146.562 L 280.577 146.562 L 280.577 144.732 L 282.267 144.732 L 282.267 140.842 L 284.537 140.342 L 284.537 144.732 L 286.747 144.732 L 286.747 146.562 L 284.537 146.562 L 284.537 154.292 L 282.267 154.292 Z" transform="matrix(0.7866309285163879, 0, 0, 0.7866309285163879, -141.49639892578125, -48.813053131103516)" style="fill: rgb(255, 255, 255); line-height: 38.0767px; white-space: pre;"/>
  </g>
</svg>