<?xml version="1.0" encoding="utf-8"?>
<svg viewBox="6.911 110.206 89.743 89.743" xmlns="http://www.w3.org/2000/svg">
  <defs>
    <radialGradient gradientUnits="userSpaceOnUse" cx="248.453" cy="40.947" r="52.5" id="gradient-5" gradientTransform="matrix(-0.00441, 1.296723, -0.999993, -0.003401, 291.220184, -280.75273)" spreadMethod="pad">
      <stop offset="0" style="stop-color: rgb(214, 145, 17);"/>
      <stop offset="1" style="stop-color: rgb(65, 53, 33);"/>
    </radialGradient>
  </defs>
  <g transform="matrix(0.854692, 0, 0, 0.854692, -7.801674, 99.16449)" style="">
    <title>immune to battleshock</title>
    <circle style="paint-order: fill; fill: url(#gradient-5);" cx="250.028" cy="82.284" r="52.5" transform="matrix(1, 0, 0, 0.999999, -180.313995, -16.86552)">
      <title>Background</title>
    </circle>
    <path d="M 105.067 78.512 C 106.71 93.698 91.297 104.968 77.323 98.797 C 72.316 100.99 66.625 101.015 61.598 98.867 C 55.038 101.551 47.544 100.532 41.939 96.192 C 29.862 86.842 32.436 67.925 46.572 62.142 L 39.253 38.367 C 38.015 34.355 41.029 30.294 45.228 30.318 L 93.88 30.318 C 98.08 30.294 101.094 34.355 99.855 38.367 L 92.505 62.142 C 99.423 64.82 104.269 71.135 105.067 78.512 Z M 93.88 36.557 L 84.207 36.557 C 84.207 37.176 84.115 37.791 83.935 38.383 L 80.579 49.26 L 84.129 60.805 C 84.495 60.805 84.906 60.805 85.271 60.805 C 85.637 60.805 86.033 60.805 86.414 60.805 Z M 76.616 62.142 L 77.323 62.436 L 78.038 62.157 L 77.323 59.826 Z M 60.767 36.51 L 64.582 48.941 L 68.233 60.805 C 68.599 60.805 69.01 60.805 69.376 60.805 C 69.741 60.805 70.137 60.805 70.518 60.805 L 77.984 36.518 L 60.79 36.518 Z M 61.606 60.424 L 61.078 62.157 L 61.606 62.375 L 62.142 62.157 Z M 52.694 60.805 C 53.059 60.805 53.471 60.805 53.836 60.805 C 54.201 60.805 54.598 60.805 54.978 60.805 L 58.35 49.85 L 54.792 38.367 C 54.62 37.767 54.539 37.143 54.551 36.518 L 45.228 36.518 Z M 53.836 94.276 C 54.201 94.276 54.567 94.229 54.924 94.229 C 47.71 86.6 47.71 74.665 54.924 67.036 C 54.567 66.99 54.201 66.99 53.836 66.99 C 46.314 66.998 40.217 73.094 40.209 80.617 C 40.2 88.152 46.301 94.267 53.836 94.276 Z M 69.376 94.245 C 71.767 94.245 74.117 93.615 76.189 92.419 C 85.274 87.173 85.274 74.061 76.189 68.815 C 67.104 63.57 55.748 70.127 55.748 80.617 C 55.756 88.14 61.853 94.236 69.376 94.245 Z M 85.271 94.214 C 90.14 94.214 94.639 91.616 97.073 87.4 C 102.319 78.315 95.762 66.959 85.271 66.959 C 84.797 66.961 84.322 66.986 83.85 67.036 C 91.005 74.652 91.005 86.52 83.85 94.136 C 84.321 94.196 84.796 94.233 85.271 94.245 Z M 77.712 77.361 C 77.75 77.367 77.788 77.375 77.826 77.385 C 78.571 77.587 78.818 78.519 78.271 79.063 L 74.651 82.591 L 75.505 87.57 C 75.572 87.946 75.418 88.326 75.109 88.55 C 74.799 88.771 74.392 88.801 74.052 88.628 L 69.585 86.297 L 65.11 88.628 C 65.063 88.653 65.015 88.674 64.964 88.692 C 64.242 88.946 63.516 88.324 63.657 87.57 L 64.511 82.591 L 60.891 79.063 C 60.865 79.038 60.84 79.01 60.817 78.981 C 60.333 78.38 60.681 77.481 61.443 77.361 L 66.446 76.632 L 68.637 72.102 C 68.806 71.765 69.153 71.554 69.531 71.558 C 69.908 71.554 70.255 71.765 70.424 72.102 L 72.662 76.632 L 77.689 77.361 Z" style="fill-opacity: 0.5;"/>
    <path d="M 216.927 133.469 L 216.927 118.159 L 219.267 118.159 L 219.267 133.469 L 216.927 133.469 ZM 222.637 133.469 L 222.637 123.909 L 224.887 123.909 L 224.887 125.639 C 225.194 124.986 225.64 124.492 226.227 124.159 C 226.82 123.826 227.497 123.659 228.257 123.659 C 229.964 123.672 231.014 124.262 231.407 125.429 C 231.707 124.889 232.164 124.459 232.777 124.139 C 233.39 123.819 234.037 123.659 234.717 123.659 C 235.717 123.659 236.474 123.849 236.987 124.229 C 237.5 124.616 237.844 125.159 238.017 125.859 C 238.19 126.559 238.277 127.499 238.277 128.679 L 238.277 133.469 L 236.007 133.469 L 236.007 128.659 C 236.007 127.532 235.89 126.726 235.657 126.239 C 235.43 125.759 234.99 125.519 234.337 125.519 C 233.464 125.519 232.8 125.812 232.347 126.399 C 231.9 126.992 231.677 127.766 231.677 128.719 L 231.677 133.469 L 229.427 133.469 L 229.427 128.329 C 229.427 127.589 229.397 127.039 229.337 126.679 C 229.284 126.319 229.134 126.036 228.887 125.829 C 228.634 125.622 228.23 125.519 227.677 125.519 C 227.19 125.519 226.734 125.662 226.307 125.949 C 225.887 126.242 225.547 126.636 225.287 127.129 C 225.034 127.622 224.907 128.152 224.907 128.719 L 224.907 133.469 L 222.637 133.469 ZM 241.144 133.469 L 241.144 123.909 L 243.394 123.909 L 243.394 125.639 C 243.701 124.986 244.147 124.492 244.734 124.159 C 245.327 123.826 246.004 123.659 246.764 123.659 C 248.471 123.672 249.521 124.262 249.914 125.429 C 250.214 124.889 250.671 124.459 251.284 124.139 C 251.897 123.819 252.544 123.659 253.224 123.659 C 254.224 123.659 254.981 123.849 255.494 124.229 C 256.007 124.616 256.351 125.159 256.524 125.859 C 256.697 126.559 256.784 127.499 256.784 128.679 L 256.784 133.469 L 254.514 133.469 L 254.514 128.659 C 254.514 127.532 254.397 126.726 254.164 126.239 C 253.937 125.759 253.497 125.519 252.844 125.519 C 251.971 125.519 251.307 125.812 250.854 126.399 C 250.407 126.992 250.184 127.766 250.184 128.719 L 250.184 133.469 L 247.934 133.469 L 247.934 128.329 C 247.934 127.589 247.904 127.039 247.844 126.679 C 247.791 126.319 247.641 126.036 247.394 125.829 C 247.141 125.622 246.737 125.519 246.184 125.519 C 245.697 125.519 245.241 125.662 244.814 125.949 C 244.394 126.242 244.054 126.636 243.794 127.129 C 243.541 127.622 243.414 128.152 243.414 128.719 L 243.414 133.469 L 241.144 133.469 ZM 262.961 133.679 C 261.641 133.679 260.734 133.289 260.241 132.509 C 259.748 131.736 259.501 130.652 259.501 129.259 L 259.501 123.909 L 261.751 123.909 L 261.751 128.699 C 261.751 129.492 261.798 130.106 261.891 130.539 C 261.978 130.979 262.158 131.302 262.431 131.509 C 262.698 131.716 263.104 131.819 263.651 131.819 C 264.038 131.819 264.411 131.709 264.771 131.489 C 265.131 131.269 265.428 130.969 265.661 130.589 C 265.888 130.202 266.001 129.782 266.001 129.329 L 266.001 123.909 L 268.231 123.909 L 268.231 133.469 L 266.401 133.469 L 266.151 132.069 C 265.798 132.616 265.361 133.019 264.841 133.279 C 264.321 133.546 263.694 133.679 262.961 133.679 ZM 271.226 133.469 L 271.226 123.909 L 273.436 123.909 L 273.456 125.659 C 273.716 125.079 274.132 124.599 274.706 124.219 C 275.272 123.846 275.936 123.659 276.696 123.659 C 277.682 123.659 278.439 123.866 278.966 124.279 C 279.499 124.686 279.856 125.256 280.036 125.989 C 280.216 126.729 280.306 127.689 280.306 128.869 L 280.306 133.469 L 278.056 133.469 L 278.056 128.929 C 278.056 127.722 277.936 126.852 277.696 126.319 C 277.462 125.786 276.979 125.519 276.246 125.519 C 275.826 125.519 275.402 125.646 274.976 125.899 C 274.542 126.159 274.182 126.529 273.896 127.009 C 273.616 127.496 273.476 128.066 273.476 128.719 L 273.476 133.469 L 271.226 133.469 ZM 287.716 133.679 C 286.576 133.679 285.623 133.452 284.856 132.999 C 284.096 132.546 283.536 131.942 283.176 131.189 C 282.816 130.429 282.636 129.599 282.636 128.699 C 282.636 127.686 282.846 126.799 283.266 126.039 C 283.693 125.272 284.279 124.686 285.026 124.279 C 285.779 123.866 286.626 123.659 287.566 123.659 C 289.039 123.659 290.133 124.066 290.846 124.879 C 291.559 125.692 291.916 126.836 291.916 128.309 C 291.916 128.682 291.896 129.069 291.856 129.469 L 284.986 129.469 C 285.139 130.316 285.443 130.926 285.896 131.299 C 286.343 131.679 286.969 131.869 287.776 131.869 C 288.443 131.869 288.989 131.812 289.416 131.699 C 289.849 131.586 290.246 131.432 290.606 131.239 L 291.296 132.849 C 290.949 133.069 290.476 133.262 289.876 133.429 C 289.283 133.596 288.563 133.679 287.716 133.679 Z M 284.986 127.909 L 289.736 127.909 C 289.749 127.049 289.559 126.442 289.166 126.089 C 288.779 125.736 288.226 125.559 287.506 125.559 C 286.046 125.559 285.206 126.342 284.986 127.909 ZM 300.201 133.469 L 300.201 125.739 L 298.511 125.739 L 298.511 123.909 L 300.201 123.909 L 300.201 120.019 L 302.471 119.519 L 302.471 123.909 L 304.681 123.909 L 304.681 125.739 L 302.471 125.739 L 302.471 133.469 L 300.201 133.469 ZM 310.962 133.679 C 309.982 133.679 309.108 133.456 308.342 133.009 C 307.582 132.569 306.992 131.966 306.572 131.199 C 306.158 130.432 305.952 129.586 305.952 128.659 C 305.952 127.746 306.155 126.906 306.562 126.139 C 306.968 125.372 307.555 124.769 308.322 124.329 C 309.088 123.882 309.968 123.659 310.962 123.659 C 311.962 123.659 312.842 123.882 313.602 124.329 C 314.355 124.769 314.938 125.372 315.352 126.139 C 315.758 126.906 315.962 127.746 315.962 128.659 C 315.962 129.586 315.755 130.432 315.342 131.199 C 314.922 131.966 314.335 132.569 313.582 133.009 C 312.822 133.456 311.948 133.679 310.962 133.679 Z M 311.032 131.849 C 311.832 131.849 312.465 131.549 312.932 130.949 C 313.398 130.349 313.632 129.599 313.632 128.699 C 313.632 127.799 313.382 127.039 312.882 126.419 C 312.382 125.799 311.722 125.489 310.902 125.489 C 310.115 125.489 309.482 125.796 309.002 126.409 C 308.522 127.022 308.282 127.786 308.282 128.699 C 308.282 129.586 308.538 130.332 309.052 130.939 C 309.565 131.546 310.225 131.849 311.032 131.849 Z" transform="matrix(0.7866309285163879, 0, 0, 0.7866309285163879, -141.50254821777344, -42.62044906616211)" style="fill: rgb(255, 255, 255); line-height: 38.0767px; white-space: pre;"/>
    <path d="M 220.678 158.667 C 219.904 158.667 219.208 158.477 218.588 158.097 C 217.968 157.71 217.541 157.267 217.308 156.767 L 217.268 158.457 L 215.098 158.457 L 215.098 143.147 L 217.308 143.147 L 217.308 149.047 L 217.198 150.667 C 217.438 150.113 217.901 149.64 218.588 149.247 C 219.274 148.847 220.021 148.647 220.828 148.647 C 221.768 148.647 222.591 148.86 223.298 149.287 C 223.998 149.707 224.534 150.297 224.908 151.057 C 225.281 151.81 225.468 152.687 225.468 153.687 C 225.468 154.7 225.251 155.583 224.818 156.337 C 224.378 157.083 223.794 157.657 223.068 158.057 C 222.334 158.463 221.538 158.667 220.678 158.667 Z M 220.308 156.787 C 221.208 156.787 221.901 156.5 222.388 155.927 C 222.874 155.353 223.118 154.607 223.118 153.687 C 223.118 152.76 222.878 152.007 222.398 151.427 C 221.918 150.853 221.221 150.567 220.308 150.567 C 219.514 150.567 218.848 150.84 218.308 151.387 C 217.768 151.933 217.498 152.653 217.498 153.547 L 217.498 153.687 C 217.498 154.287 217.624 154.82 217.878 155.287 C 218.138 155.76 218.478 156.13 218.898 156.397 C 219.324 156.657 219.794 156.787 220.308 156.787 ZM 232.092 158.667 C 231.226 158.667 230.429 158.46 229.702 158.047 C 228.976 157.64 228.392 157.057 227.952 156.297 C 227.519 155.543 227.302 154.66 227.302 153.647 C 227.302 152.647 227.492 151.773 227.872 151.027 C 228.252 150.273 228.796 149.69 229.502 149.277 C 230.216 148.857 231.049 148.647 232.002 148.647 C 232.562 148.647 233.082 148.743 233.562 148.937 C 234.049 149.137 234.459 149.377 234.792 149.657 C 235.126 149.943 235.349 150.227 235.462 150.507 L 235.502 148.897 L 237.652 148.897 L 237.652 158.457 L 235.522 158.457 L 235.482 156.767 C 235.249 157.267 234.819 157.71 234.192 158.097 C 233.566 158.477 232.866 158.667 232.092 158.667 Z M 232.462 156.787 C 233.256 156.787 233.922 156.513 234.462 155.967 C 235.002 155.42 235.272 154.703 235.272 153.817 L 235.272 153.667 C 235.272 153.073 235.149 152.54 234.902 152.067 C 234.649 151.593 234.309 151.223 233.882 150.957 C 233.449 150.697 232.976 150.567 232.462 150.567 C 231.576 150.567 230.889 150.853 230.402 151.427 C 229.916 152.007 229.672 152.753 229.672 153.667 C 229.672 154.6 229.912 155.353 230.392 155.927 C 230.872 156.5 231.562 156.787 232.462 156.787 ZM 241.495 158.457 L 241.495 150.727 L 239.805 150.727 L 239.805 148.897 L 241.495 148.897 L 241.495 145.007 L 243.765 144.507 L 243.765 148.897 L 245.975 148.897 L 245.975 150.727 L 243.765 150.727 L 243.765 158.457 L 241.495 158.457 ZM 248.636 158.457 L 248.636 150.727 L 246.946 150.727 L 246.946 148.897 L 248.636 148.897 L 248.636 145.007 L 250.906 144.507 L 250.906 148.897 L 253.116 148.897 L 253.116 150.727 L 250.906 150.727 L 250.906 158.457 L 248.636 158.457 ZM 255.136 158.457 L 255.136 143.147 L 257.356 143.147 L 257.356 158.457 L 255.136 158.457 ZM 265.045 158.667 C 263.905 158.667 262.952 158.44 262.185 157.987 C 261.425 157.533 260.865 156.93 260.505 156.177 C 260.145 155.417 259.965 154.587 259.965 153.687 C 259.965 152.673 260.175 151.787 260.595 151.027 C 261.022 150.26 261.609 149.673 262.355 149.267 C 263.109 148.853 263.955 148.647 264.895 148.647 C 266.369 148.647 267.462 149.053 268.175 149.867 C 268.889 150.68 269.245 151.823 269.245 153.297 C 269.245 153.67 269.225 154.057 269.185 154.457 L 262.315 154.457 C 262.469 155.303 262.772 155.913 263.225 156.287 C 263.672 156.667 264.299 156.857 265.105 156.857 C 265.772 156.857 266.319 156.8 266.745 156.687 C 267.179 156.573 267.575 156.42 267.935 156.227 L 268.625 157.837 C 268.279 158.057 267.805 158.25 267.205 158.417 C 266.612 158.583 265.892 158.667 265.045 158.667 Z M 262.315 152.897 L 267.065 152.897 C 267.079 152.037 266.889 151.43 266.495 151.077 C 266.109 150.723 265.555 150.547 264.835 150.547 C 263.375 150.547 262.535 151.33 262.315 152.897 ZM 274.89 158.667 C 274.224 158.667 273.534 158.58 272.82 158.407 C 272.1 158.233 271.59 158.027 271.29 157.787 L 272.04 156.017 C 272.874 156.603 273.824 156.897 274.89 156.897 C 275.957 156.897 276.49 156.583 276.49 155.957 C 276.49 155.677 276.38 155.463 276.16 155.317 C 275.94 155.163 275.544 154.98 274.97 154.767 L 274.18 154.477 C 273.347 154.143 272.687 153.747 272.2 153.287 C 271.714 152.82 271.47 152.203 271.47 151.437 C 271.47 150.563 271.814 149.88 272.5 149.387 C 273.194 148.893 274.114 148.647 275.26 148.647 C 275.834 148.647 276.394 148.71 276.94 148.837 C 277.487 148.963 277.907 149.123 278.2 149.317 L 277.39 151.107 C 277.21 150.927 276.92 150.77 276.52 150.637 C 276.127 150.503 275.687 150.437 275.2 150.437 C 274.214 150.437 273.72 150.737 273.72 151.337 C 273.72 151.67 273.854 151.923 274.12 152.097 C 274.38 152.27 274.81 152.46 275.41 152.667 C 275.464 152.68 275.677 152.757 276.05 152.897 C 276.944 153.243 277.604 153.64 278.03 154.087 C 278.464 154.527 278.68 155.093 278.68 155.787 C 278.68 156.733 278.324 157.45 277.61 157.937 C 276.89 158.423 275.984 158.667 274.89 158.667 ZM 281.11 158.457 L 281.11 143.147 L 283.3 143.147 L 283.3 148.897 L 283.22 150.667 C 283.48 150.087 283.903 149.603 284.49 149.217 C 285.07 148.837 285.75 148.647 286.53 148.647 C 287.517 148.647 288.273 148.853 288.8 149.267 C 289.327 149.673 289.68 150.243 289.86 150.977 C 290.04 151.717 290.13 152.677 290.13 153.857 L 290.13 158.457 L 287.9 158.457 L 287.9 153.837 C 287.9 153.03 287.857 152.397 287.77 151.937 C 287.677 151.483 287.493 151.137 287.22 150.897 C 286.953 150.663 286.563 150.547 286.05 150.547 C 285.63 150.547 285.21 150.67 284.79 150.917 C 284.363 151.17 284.013 151.537 283.74 152.017 C 283.46 152.49 283.32 153.053 283.32 153.707 L 283.32 158.457 L 281.11 158.457 ZM 297.43 158.667 C 296.45 158.667 295.577 158.443 294.81 157.997 C 294.05 157.557 293.46 156.953 293.04 156.187 C 292.627 155.42 292.42 154.573 292.42 153.647 C 292.42 152.733 292.624 151.893 293.03 151.127 C 293.437 150.36 294.024 149.757 294.79 149.317 C 295.557 148.87 296.437 148.647 297.43 148.647 C 298.43 148.647 299.31 148.87 300.07 149.317 C 300.824 149.757 301.407 150.36 301.82 151.127 C 302.227 151.893 302.43 152.733 302.43 153.647 C 302.43 154.573 302.224 155.42 301.81 156.187 C 301.39 156.953 300.804 157.557 300.05 157.997 C 299.29 158.443 298.417 158.667 297.43 158.667 Z M 297.5 156.837 C 298.3 156.837 298.934 156.537 299.4 155.937 C 299.867 155.337 300.1 154.587 300.1 153.687 C 300.1 152.787 299.85 152.027 299.35 151.407 C 298.85 150.787 298.19 150.477 297.37 150.477 C 296.584 150.477 295.95 150.783 295.47 151.397 C 294.99 152.01 294.75 152.773 294.75 153.687 C 294.75 154.573 295.007 155.32 295.52 155.927 C 296.034 156.533 296.694 156.837 297.5 156.837 ZM 309.275 158.667 C 308.335 158.667 307.485 158.46 306.725 158.047 C 305.972 157.64 305.372 157.05 304.925 156.277 C 304.485 155.51 304.265 154.607 304.265 153.567 C 304.265 152.58 304.469 151.713 304.875 150.967 C 305.282 150.227 305.859 149.657 306.605 149.257 C 307.345 148.85 308.202 148.647 309.175 148.647 C 309.909 148.647 310.545 148.74 311.085 148.927 C 311.619 149.113 312.039 149.347 312.345 149.627 L 311.345 151.437 C 310.759 150.857 310.099 150.567 309.365 150.567 C 308.479 150.567 307.802 150.837 307.335 151.377 C 306.869 151.917 306.635 152.64 306.635 153.547 C 306.635 154.573 306.875 155.37 307.355 155.937 C 307.835 156.503 308.505 156.787 309.365 156.787 C 309.792 156.787 310.212 156.727 310.625 156.607 C 311.032 156.48 311.349 156.333 311.575 156.167 L 312.385 157.747 C 312.079 157.987 311.652 158.2 311.105 158.387 C 310.552 158.573 309.942 158.667 309.275 158.667 ZM 319.547 152.897 L 323.167 158.457 L 320.527 158.457 L 318.587 155.337 L 318.047 154.267 L 316.797 155.627 L 316.797 158.457 L 314.627 158.457 L 314.627 143.147 L 316.777 143.147 L 316.777 151.547 L 316.737 153.167 L 320.377 148.897 L 323.147 148.897 L 319.547 152.897 Z" transform="matrix(0.7866309285163879, 0, 0, 0.7866309285163879, -141.50254821777344, -42.62044906616211)" style="fill: rgb(255, 255, 255); line-height: 38.0767px; white-space: pre;"/>
    <title>72 all</title>
  </g>
</svg>