<?xml version="1.0" encoding="utf-8"?>
<svg viewBox="205.876 10.716 89.743 89.743" xmlns="http://www.w3.org/2000/svg">
  <defs>
    <radialGradient gradientUnits="userSpaceOnUse" cx="248.453" cy="40.947" r="52.5" id="gradient-24" gradientTransform="matrix(-0.00441, 1.296723, -0.999993, -0.003401, 291.220184, -280.752913)" spreadMethod="pad">
      <stop offset="0" style="stop-color: rgb(216, 32, 32);"/>
      <stop offset="1" style="stop-color: rgb(48, 18, 18);"/>
    </radialGradient>
  </defs>
  <g style="" transform="matrix(0.854692, 0, 0, 0.854692, 191.163467, -0.631327)">
    <title>reroll 1s to wound</title>
    <circle style="paint-order: fill; fill: url(#gradient-24);" cx="250.028" cy="82.284" r="52.5" transform="matrix(1, 0, 0, 0.999999, -180.313995, -16.506966)">
      <title>Background</title>
    </circle>
    <g transform="matrix(1.463582, 0, 0, 1.463582, -477.099274, -73.571426)">
      <title>drops</title>
      <path d="M 379.613 104.193 C 379.613 96.283 366.053 72.693 365.483 71.693 C 365.123 71.073 364.103 71.073 363.743 71.693 C 363.173 72.693 349.613 96.283 349.613 104.193 C 349.613 112.463 356.343 119.193 364.613 119.193 C 372.883 119.193 379.613 112.463 379.613 104.193 Z M 363.613 112.193 C 363.613 111.633 364.063 111.193 364.613 111.193 C 368.473 111.193 371.613 108.053 371.613 104.193 C 371.613 103.633 372.063 103.193 372.613 103.193 C 373.163 103.193 373.613 103.633 373.613 104.193 C 373.613 109.153 369.573 113.193 364.613 113.193 C 364.063 113.193 363.613 112.743 363.613 112.193 Z" style="fill-opacity: 0.5;"/>
      <path d="M 384.743 81.553 C 384.703 81.613 381.503 87.183 378.563 93.233 C 380.363 97.603 381.613 101.583 381.613 104.193 C 381.613 108.613 379.913 112.653 377.123 115.673 C 379.333 117.893 382.373 119.193 385.613 119.193 C 392.233 119.193 397.613 113.803 397.613 107.193 C 397.613 100.913 386.933 82.333 386.483 81.553 C 386.123 80.933 385.103 80.933 384.743 81.553 Z M 390.613 107.193 C 390.613 106.633 391.063 106.193 391.613 106.193 C 392.163 106.193 392.613 106.633 392.613 107.193 C 392.613 111.053 389.473 114.193 385.613 114.193 C 385.063 114.193 384.613 113.743 384.613 113.193 C 384.613 112.633 385.063 112.193 385.613 112.193 C 388.373 112.193 390.613 109.943 390.613 107.193 Z" style="fill-opacity: 0.5;"/>
    </g>
    <path d="M 250.781 133.469 L 248.101 133.469 L 245.011 127.679 C 244.378 127.706 243.811 127.719 243.311 127.719 L 242.721 127.719 L 242.721 133.469 L 240.451 133.469 L 240.451 118.159 L 243.931 118.159 C 245.698 118.159 247.148 118.526 248.281 119.259 C 249.421 119.986 249.991 121.169 249.991 122.809 C 249.991 123.836 249.751 124.719 249.271 125.459 C 248.791 126.206 248.081 126.779 247.141 127.179 L 250.781 133.469 Z M 242.721 125.829 L 244.201 125.829 C 245.561 125.829 246.495 125.532 247.001 124.939 C 247.508 124.352 247.761 123.649 247.761 122.829 C 247.761 121.009 246.548 120.099 244.121 120.099 L 242.721 120.099 L 242.721 125.829 ZM 257.53 133.679 C 256.39 133.679 255.437 133.452 254.67 132.999 C 253.91 132.546 253.35 131.942 252.99 131.189 C 252.63 130.429 252.45 129.599 252.45 128.699 C 252.45 127.686 252.66 126.799 253.08 126.039 C 253.507 125.272 254.093 124.686 254.84 124.279 C 255.593 123.866 256.44 123.659 257.38 123.659 C 258.853 123.659 259.947 124.066 260.66 124.879 C 261.373 125.692 261.73 126.836 261.73 128.309 C 261.73 128.682 261.71 129.069 261.67 129.469 L 254.8 129.469 C 254.953 130.316 255.257 130.926 255.71 131.299 C 256.157 131.679 256.783 131.869 257.59 131.869 C 258.257 131.869 258.803 131.812 259.23 131.699 C 259.663 131.586 260.06 131.432 260.42 131.239 L 261.11 132.849 C 260.763 133.069 260.29 133.262 259.69 133.429 C 259.097 133.596 258.377 133.679 257.53 133.679 Z M 254.8 127.909 L 259.55 127.909 C 259.563 127.049 259.373 126.442 258.98 126.089 C 258.593 125.736 258.04 125.559 257.32 125.559 C 255.86 125.559 255.02 126.342 254.8 127.909 ZM 264.025 133.469 L 264.025 123.909 L 266.265 123.909 L 266.265 125.789 C 266.492 125.149 266.855 124.636 267.355 124.249 C 267.855 123.856 268.425 123.659 269.065 123.659 C 269.505 123.659 269.808 123.702 269.975 123.789 L 269.665 126.059 C 269.538 125.972 269.268 125.929 268.855 125.929 C 268.202 125.929 267.608 126.139 267.075 126.559 C 266.535 126.972 266.265 127.639 266.265 128.559 L 266.265 133.469 L 264.025 133.469 ZM 276.009 133.679 C 275.029 133.679 274.155 133.456 273.389 133.009 C 272.629 132.569 272.039 131.966 271.619 131.199 C 271.205 130.432 270.999 129.586 270.999 128.659 C 270.999 127.746 271.202 126.906 271.609 126.139 C 272.015 125.372 272.602 124.769 273.369 124.329 C 274.135 123.882 275.015 123.659 276.009 123.659 C 277.009 123.659 277.889 123.882 278.649 124.329 C 279.402 124.769 279.985 125.372 280.399 126.139 C 280.805 126.906 281.009 127.746 281.009 128.659 C 281.009 129.586 280.802 130.432 280.389 131.199 C 279.969 131.966 279.382 132.569 278.629 133.009 C 277.869 133.456 276.995 133.679 276.009 133.679 Z M 276.079 131.849 C 276.879 131.849 277.512 131.549 277.979 130.949 C 278.445 130.349 278.679 129.599 278.679 128.699 C 278.679 127.799 278.429 127.039 277.929 126.419 C 277.429 125.799 276.769 125.489 275.949 125.489 C 275.162 125.489 274.529 125.796 274.049 126.409 C 273.569 127.022 273.329 127.786 273.329 128.699 C 273.329 129.586 273.585 130.332 274.099 130.939 C 274.612 131.546 275.272 131.849 276.079 131.849 ZM 283.594 133.469 L 283.594 118.159 L 285.814 118.159 L 285.814 133.469 L 283.594 133.469 ZM 289.173 133.469 L 289.173 118.159 L 291.393 118.159 L 291.393 133.469 L 289.173 133.469 Z" transform="matrix(0.7866309285163879, 0, 0, 0.7866309285163879, -141.50254821777344, -48.813053131103516)" style="fill: rgb(255, 255, 255); line-height: 38.0767px; white-space: pre;"/>
    <path d="M 246.601 154.292 L 246.601 139.212 L 248.951 138.552 L 248.951 154.292 L 246.601 154.292 ZM 252.553 142.942 L 253.033 136.722 L 255.233 136.722 L 254.613 142.942 L 252.553 142.942 ZM 259.277 154.502 C 258.61 154.502 257.92 154.416 257.207 154.242 C 256.487 154.069 255.977 153.862 255.677 153.622 L 256.427 151.852 C 257.26 152.439 258.21 152.732 259.277 152.732 C 260.344 152.732 260.877 152.419 260.877 151.792 C 260.877 151.512 260.767 151.299 260.547 151.152 C 260.327 150.999 259.93 150.816 259.357 150.602 L 258.567 150.312 C 257.734 149.979 257.074 149.582 256.587 149.122 C 256.1 148.656 255.857 148.039 255.857 147.272 C 255.857 146.399 256.2 145.716 256.887 145.222 C 257.58 144.729 258.5 144.482 259.647 144.482 C 260.22 144.482 260.78 144.546 261.327 144.672 C 261.874 144.799 262.294 144.959 262.587 145.152 L 261.777 146.942 C 261.597 146.762 261.307 146.606 260.907 146.472 C 260.514 146.339 260.074 146.272 259.587 146.272 C 258.6 146.272 258.107 146.572 258.107 147.172 C 258.107 147.506 258.24 147.759 258.507 147.932 C 258.767 148.106 259.197 148.296 259.797 148.502 C 259.85 148.516 260.064 148.592 260.437 148.732 C 261.33 149.079 261.99 149.476 262.417 149.922 C 262.85 150.362 263.067 150.929 263.067 151.622 C 263.067 152.569 262.71 153.286 261.997 153.772 C 261.277 154.259 260.37 154.502 259.277 154.502 ZM 271.327 154.292 L 271.327 146.562 L 269.637 146.562 L 269.637 144.732 L 271.327 144.732 L 271.327 140.842 L 273.597 140.342 L 273.597 144.732 L 275.807 144.732 L 275.807 146.562 L 273.597 146.562 L 273.597 154.292 L 271.327 154.292 ZM 282.088 154.502 C 281.108 154.502 280.234 154.279 279.468 153.832 C 278.708 153.392 278.118 152.789 277.698 152.022 C 277.284 151.256 277.078 150.409 277.078 149.482 C 277.078 148.569 277.281 147.729 277.688 146.962 C 278.094 146.196 278.681 145.592 279.448 145.152 C 280.214 144.706 281.094 144.482 282.088 144.482 C 283.088 144.482 283.968 144.706 284.728 145.152 C 285.481 145.592 286.064 146.196 286.478 146.962 C 286.884 147.729 287.088 148.569 287.088 149.482 C 287.088 150.409 286.881 151.256 286.468 152.022 C 286.048 152.789 285.461 153.392 284.708 153.832 C 283.948 154.279 283.074 154.502 282.088 154.502 Z M 282.158 152.672 C 282.958 152.672 283.591 152.372 284.058 151.772 C 284.524 151.172 284.758 150.422 284.758 149.522 C 284.758 148.622 284.508 147.862 284.008 147.242 C 283.508 146.622 282.848 146.312 282.028 146.312 C 281.241 146.312 280.608 146.619 280.128 147.232 C 279.648 147.846 279.408 148.609 279.408 149.522 C 279.408 150.409 279.664 151.156 280.178 151.762 C 280.691 152.369 281.351 152.672 282.158 152.672 Z" transform="matrix(0.7866309285163879, 0, 0, 0.7866309285163879, -141.50254821777344, -48.813053131103516)" style="fill: rgb(255, 255, 255); line-height: 38.0767px; white-space: pre;"/>
    <path d="M 247.389 175.115 L 244.559 169.805 L 241.729 175.115 L 241.329 175.115 L 237.309 165.555 L 239.729 165.555 L 241.789 171.115 L 244.519 165.555 L 244.599 165.555 L 247.349 171.075 L 249.409 165.555 L 251.779 165.555 L 247.789 175.115 L 247.389 175.115 ZM 257.523 175.325 C 256.543 175.325 255.669 175.102 254.903 174.655 C 254.143 174.215 253.553 173.612 253.133 172.845 C 252.719 172.079 252.513 171.232 252.513 170.305 C 252.513 169.392 252.716 168.552 253.123 167.785 C 253.529 167.019 254.116 166.415 254.883 165.975 C 255.649 165.529 256.529 165.305 257.523 165.305 C 258.523 165.305 259.403 165.529 260.163 165.975 C 260.916 166.415 261.499 167.019 261.913 167.785 C 262.319 168.552 262.523 169.392 262.523 170.305 C 262.523 171.232 262.316 172.079 261.903 172.845 C 261.483 173.612 260.896 174.215 260.143 174.655 C 259.383 175.102 258.509 175.325 257.523 175.325 Z M 257.593 173.495 C 258.393 173.495 259.026 173.195 259.493 172.595 C 259.959 171.995 260.193 171.245 260.193 170.345 C 260.193 169.445 259.943 168.685 259.443 168.065 C 258.943 167.445 258.283 167.135 257.463 167.135 C 256.676 167.135 256.043 167.442 255.563 168.055 C 255.083 168.669 254.843 169.432 254.843 170.345 C 254.843 171.232 255.099 171.979 255.613 172.585 C 256.126 173.192 256.786 173.495 257.593 173.495 ZM 268.228 175.325 C 266.908 175.325 266.001 174.935 265.508 174.155 C 265.015 173.382 264.768 172.299 264.768 170.905 L 264.768 165.555 L 267.018 165.555 L 267.018 170.345 C 267.018 171.139 267.065 171.752 267.158 172.185 C 267.245 172.625 267.425 172.949 267.698 173.155 C 267.965 173.362 268.371 173.465 268.918 173.465 C 269.305 173.465 269.678 173.355 270.038 173.135 C 270.398 172.915 270.695 172.615 270.928 172.235 C 271.155 171.849 271.268 171.429 271.268 170.975 L 271.268 165.555 L 273.498 165.555 L 273.498 175.115 L 271.668 175.115 L 271.418 173.715 C 271.065 174.262 270.628 174.665 270.108 174.925 C 269.588 175.192 268.961 175.325 268.228 175.325 ZM 276.493 175.115 L 276.493 165.555 L 278.703 165.555 L 278.723 167.305 C 278.983 166.725 279.399 166.245 279.973 165.865 C 280.539 165.492 281.203 165.305 281.963 165.305 C 282.949 165.305 283.706 165.512 284.233 165.925 C 284.766 166.332 285.123 166.902 285.303 167.635 C 285.483 168.375 285.573 169.335 285.573 170.515 L 285.573 175.115 L 283.323 175.115 L 283.323 170.575 C 283.323 169.369 283.203 168.499 282.963 167.965 C 282.729 167.432 282.246 167.165 281.513 167.165 C 281.093 167.165 280.669 167.292 280.243 167.545 C 279.809 167.805 279.449 168.175 279.163 168.655 C 278.883 169.142 278.743 169.712 278.743 170.365 L 278.743 175.115 L 276.493 175.115 ZM 292.693 175.325 C 291.826 175.325 291.029 175.119 290.303 174.705 C 289.576 174.299 288.993 173.715 288.553 172.955 C 288.119 172.202 287.903 171.319 287.903 170.305 C 287.903 168.792 288.326 167.582 289.173 166.675 C 290.019 165.762 291.163 165.305 292.603 165.305 C 293.409 165.305 294.146 165.505 294.813 165.905 C 295.479 166.299 295.929 166.772 296.163 167.325 L 296.063 165.705 L 296.063 159.805 L 298.273 159.805 L 298.273 175.115 L 296.123 175.115 L 296.083 173.425 C 295.849 173.925 295.419 174.369 294.793 174.755 C 294.166 175.135 293.466 175.325 292.693 175.325 Z M 293.063 173.425 C 293.856 173.425 294.523 173.152 295.063 172.605 C 295.603 172.059 295.873 171.342 295.873 170.455 L 295.873 170.305 C 295.873 169.705 295.749 169.172 295.503 168.705 C 295.249 168.232 294.909 167.862 294.483 167.595 C 294.049 167.335 293.576 167.205 293.063 167.205 C 292.176 167.205 291.489 167.492 291.003 168.065 C 290.516 168.645 290.273 169.392 290.273 170.305 C 290.273 171.232 290.513 171.985 290.993 172.565 C 291.473 173.139 292.163 173.425 293.063 173.425 Z" transform="matrix(0.7866309285163879, 0, 0, 0.7866309285163879, -141.50254821777344, -48.813053131103516)" style="fill: rgb(255, 255, 255); line-height: 38.0767px; white-space: pre;"/>
  </g>
</svg>