<?xml version="1.0" encoding="utf-8"?>
<svg viewBox="594.092 10.716 89.743 89.743" xmlns="http://www.w3.org/2000/svg">
  <defs>
    <radialGradient gradientUnits="userSpaceOnUse" cx="248.453" cy="40.947" r="52.5" id="gradient-25" gradientTransform="matrix(-0.00441, 1.296723, -0.999993, -0.003401, 291.220184, -280.752913)" spreadMethod="pad">
      <stop offset="0" style="stop-color: rgb(216, 32, 32);"/>
      <stop offset="1" style="stop-color: rgb(48, 18, 18);"/>
    </radialGradient>
  </defs>
  <g style="" transform="matrix(0.854692, 0, 0, 0.854692, 579.379211, -0.631327)">
    <title>reroll to hit</title>
    <circle style="paint-order: fill; fill: url(#gradient-25);" cx="250.028" cy="82.284" r="52.5" transform="matrix(1, 0, 0, 0.999999, -180.313995, -16.506966)">
      <title>Background</title>
    </circle>
    <g data-name="11" transform="matrix(2.380301, 0, 0, 2.380301, 31.629189, 28.296291)" style="filter: none;">
      <title>Swords</title>
      <path d="M30,1H24.24a1,1,0,0,0-.76.36L8.53,19.12,6.71,17.29a1,1,0,0,0-1.42,1.42l1.88,1.88L2.39,25.36a3,3,0,0,0,0,4.25h0a3,3,0,0,0,4.25,0l4.77-4.78,1.88,1.88a1,1,0,0,0,1.42,0,1,1,0,0,0,0-1.42l-1.83-1.82L30.64,8.52A1,1,0,0,0,31,7.76V2A1,1,0,0,0,30,1Z" style="fill-opacity: 0.5;"/>
      <path d="M14.69,8.68,8.52,1.36A1,1,0,0,0,7.76,1H2A1,1,0,0,0,1,2V7.76a1,1,0,0,0,.36.76l7.88,6.64Z" style="fill-opacity: 0.5;"/>
      <path d="M24.83,20.59l1.88-1.88a1,1,0,0,0-1.42-1.42l-1.82,1.83-1-1.14-5,4.18,1.56,1.31-1.83,1.82a1,1,0,0,0,0,1.42,1,1,0,0,0,1.42,0l1.88-1.88,4.77,4.78a3,3,0,0,0,4.25-4.25Z" style="fill-opacity: 0.5;"/>
    </g>
    <path d="M 250.781 133.469 L 248.101 133.469 L 245.011 127.679 C 244.378 127.706 243.811 127.719 243.311 127.719 L 242.721 127.719 L 242.721 133.469 L 240.451 133.469 L 240.451 118.159 L 243.931 118.159 C 245.698 118.159 247.148 118.526 248.281 119.259 C 249.421 119.986 249.991 121.169 249.991 122.809 C 249.991 123.836 249.751 124.719 249.271 125.459 C 248.791 126.206 248.081 126.779 247.141 127.179 L 250.781 133.469 Z M 242.721 125.829 L 244.201 125.829 C 245.561 125.829 246.495 125.532 247.001 124.939 C 247.508 124.352 247.761 123.649 247.761 122.829 C 247.761 121.009 246.548 120.099 244.121 120.099 L 242.721 120.099 L 242.721 125.829 ZM 257.53 133.679 C 256.39 133.679 255.437 133.452 254.67 132.999 C 253.91 132.546 253.35 131.942 252.99 131.189 C 252.63 130.429 252.45 129.599 252.45 128.699 C 252.45 127.686 252.66 126.799 253.08 126.039 C 253.507 125.272 254.093 124.686 254.84 124.279 C 255.593 123.866 256.44 123.659 257.38 123.659 C 258.853 123.659 259.947 124.066 260.66 124.879 C 261.373 125.692 261.73 126.836 261.73 128.309 C 261.73 128.682 261.71 129.069 261.67 129.469 L 254.8 129.469 C 254.953 130.316 255.257 130.926 255.71 131.299 C 256.157 131.679 256.783 131.869 257.59 131.869 C 258.257 131.869 258.803 131.812 259.23 131.699 C 259.663 131.586 260.06 131.432 260.42 131.239 L 261.11 132.849 C 260.763 133.069 260.29 133.262 259.69 133.429 C 259.097 133.596 258.377 133.679 257.53 133.679 Z M 254.8 127.909 L 259.55 127.909 C 259.563 127.049 259.373 126.442 258.98 126.089 C 258.593 125.736 258.04 125.559 257.32 125.559 C 255.86 125.559 255.02 126.342 254.8 127.909 ZM 264.025 133.469 L 264.025 123.909 L 266.265 123.909 L 266.265 125.789 C 266.492 125.149 266.855 124.636 267.355 124.249 C 267.855 123.856 268.425 123.659 269.065 123.659 C 269.505 123.659 269.808 123.702 269.975 123.789 L 269.665 126.059 C 269.538 125.972 269.268 125.929 268.855 125.929 C 268.202 125.929 267.608 126.139 267.075 126.559 C 266.535 126.972 266.265 127.639 266.265 128.559 L 266.265 133.469 L 264.025 133.469 ZM 276.009 133.679 C 275.029 133.679 274.155 133.456 273.389 133.009 C 272.629 132.569 272.039 131.966 271.619 131.199 C 271.205 130.432 270.999 129.586 270.999 128.659 C 270.999 127.746 271.202 126.906 271.609 126.139 C 272.015 125.372 272.602 124.769 273.369 124.329 C 274.135 123.882 275.015 123.659 276.009 123.659 C 277.009 123.659 277.889 123.882 278.649 124.329 C 279.402 124.769 279.985 125.372 280.399 126.139 C 280.805 126.906 281.009 127.746 281.009 128.659 C 281.009 129.586 280.802 130.432 280.389 131.199 C 279.969 131.966 279.382 132.569 278.629 133.009 C 277.869 133.456 276.995 133.679 276.009 133.679 Z M 276.079 131.849 C 276.879 131.849 277.512 131.549 277.979 130.949 C 278.445 130.349 278.679 129.599 278.679 128.699 C 278.679 127.799 278.429 127.039 277.929 126.419 C 277.429 125.799 276.769 125.489 275.949 125.489 C 275.162 125.489 274.529 125.796 274.049 126.409 C 273.569 127.022 273.329 127.786 273.329 128.699 C 273.329 129.586 273.585 130.332 274.099 130.939 C 274.612 131.546 275.272 131.849 276.079 131.849 ZM 283.594 133.469 L 283.594 118.159 L 285.814 118.159 L 285.814 133.469 L 283.594 133.469 ZM 289.173 133.469 L 289.173 118.159 L 291.393 118.159 L 291.393 133.469 L 289.173 133.469 Z" transform="matrix(0.7866309285163879, 0, 0, 0.7866309285163879, -141.49639892578125, -48.813053131103516)" style="fill: rgb(255, 255, 255); line-height: 38.0767px; white-space: pre;"/>
    <path d="M 246.408 154.292 L 246.408 146.562 L 244.718 146.562 L 244.718 144.732 L 246.408 144.732 L 246.408 140.842 L 248.678 140.342 L 248.678 144.732 L 250.888 144.732 L 250.888 146.562 L 248.678 146.562 L 248.678 154.292 L 246.408 154.292 ZM 257.169 154.502 C 256.189 154.502 255.315 154.279 254.549 153.832 C 253.789 153.392 253.199 152.789 252.779 152.022 C 252.365 151.256 252.159 150.409 252.159 149.482 C 252.159 148.569 252.362 147.729 252.769 146.962 C 253.175 146.196 253.762 145.592 254.529 145.152 C 255.295 144.706 256.175 144.482 257.169 144.482 C 258.169 144.482 259.049 144.706 259.809 145.152 C 260.562 145.592 261.145 146.196 261.559 146.962 C 261.965 147.729 262.169 148.569 262.169 149.482 C 262.169 150.409 261.962 151.256 261.549 152.022 C 261.129 152.789 260.542 153.392 259.789 153.832 C 259.029 154.279 258.155 154.502 257.169 154.502 Z M 257.239 152.672 C 258.039 152.672 258.672 152.372 259.139 151.772 C 259.605 151.172 259.839 150.422 259.839 149.522 C 259.839 148.622 259.589 147.862 259.089 147.242 C 258.589 146.622 257.929 146.312 257.109 146.312 C 256.322 146.312 255.689 146.619 255.209 147.232 C 254.729 147.846 254.489 148.609 254.489 149.522 C 254.489 150.409 254.745 151.156 255.259 151.762 C 255.772 152.369 256.432 152.672 257.239 152.672 ZM 269.764 154.292 L 269.764 138.982 L 271.954 138.982 L 271.954 144.732 L 271.874 146.502 C 272.134 145.922 272.558 145.439 273.144 145.052 C 273.724 144.672 274.404 144.482 275.184 144.482 C 276.171 144.482 276.928 144.689 277.454 145.102 C 277.981 145.509 278.334 146.079 278.514 146.812 C 278.694 147.552 278.784 148.512 278.784 149.692 L 278.784 154.292 L 276.554 154.292 L 276.554 149.672 C 276.554 148.866 276.511 148.232 276.424 147.772 C 276.331 147.319 276.148 146.972 275.874 146.732 C 275.608 146.499 275.218 146.382 274.704 146.382 C 274.284 146.382 273.864 146.506 273.444 146.752 C 273.018 147.006 272.668 147.372 272.394 147.852 C 272.114 148.326 271.974 148.889 271.974 149.542 L 271.974 154.292 L 269.764 154.292 ZM 281.805 154.292 L 281.805 144.732 L 284.135 144.732 L 284.135 154.292 L 281.805 154.292 Z M 282.945 142.942 C 282.511 142.942 282.151 142.796 281.865 142.502 C 281.571 142.216 281.425 141.856 281.425 141.422 C 281.425 141.036 281.571 140.702 281.865 140.422 C 282.151 140.149 282.511 140.012 282.945 140.012 C 283.365 140.012 283.718 140.149 284.005 140.422 C 284.298 140.702 284.445 141.036 284.445 141.422 C 284.445 141.856 284.301 142.216 284.015 142.502 C 283.735 142.796 283.378 142.942 282.945 142.942 ZM 288.085 154.292 L 288.085 146.562 L 286.395 146.562 L 286.395 144.732 L 288.085 144.732 L 288.085 140.842 L 290.355 140.342 L 290.355 144.732 L 292.565 144.732 L 292.565 146.562 L 290.355 146.562 L 290.355 154.292 L 288.085 154.292 Z" transform="matrix(0.7866309285163879, 0, 0, 0.7866309285163879, -141.49639892578125, -48.813053131103516)" style="fill: rgb(255, 255, 255); line-height: 38.0767px; white-space: pre;"/>
  </g>
</svg>