<?xml version="1.0" encoding="utf-8"?>
<svg viewBox="494.125 10.716 89.743 89.743" xmlns="http://www.w3.org/2000/svg">
  <defs>
    <radialGradient gradientUnits="userSpaceOnUse" cx="248.453" cy="40.947" r="52.5" id="gradient-4" gradientTransform="matrix(-0.00441, 1.296723, -0.999993, -0.003401, 291.220184, -280.752943)" spreadMethod="pad">
      <stop offset="0" style="stop-color: rgb(74, 204, 48);"/>
      <stop offset="1" style="stop-color: rgb(23, 68, 14);"/>
    </radialGradient>
  </defs>
  <g transform="matrix(0.854692, 0, 0, 0.854692, 479.411896, -0.631327)" style="">
    <title>reroll charge rolls</title>
    <circle style="paint-order: fill; fill: url(#gradient-4);" cx="250.028" cy="82.284" r="52.5" transform="matrix(1, 0, 0, 0.999999, -180.313995, -16.506966)">
      <title>Background</title>
    </circle>
    <path d="M 47.436 100.628 C 47.982 100.793 48.55 100.877 49.121 100.878 C 51.563 100.87 53.746 99.356 54.612 97.072 L 59.496 84.041 L 73.361 78.287 L 77.646 83.998 C 79.438 86.371 82.374 87.592 85.321 87.19 L 98.173 85.568 C 102.647 84.981 104.808 79.77 102.061 76.189 C 100.949 74.74 99.223 73.891 97.395 73.895 C 97.139 73.894 96.885 73.912 96.631 73.945 L 85.836 75.302 L 80.145 67.805 L 71.463 54.688 C 75.223 54.955 79.001 54.762 82.715 54.11 L 84.814 53.739 C 88.722 53.065 90.436 48.414 87.899 45.366 C 86.721 43.951 84.878 43.273 83.065 43.584 L 81.494 43.864 C 76.618 44.73 71.627 44.73 66.749 43.864 L 60.623 42.735 C 60.402 42.692 60.18 42.663 59.953 42.636 L 59.474 42.585 C 58.472 42.457 57.456 42.498 56.469 42.707 C 55.08 43.018 53.783 43.652 52.683 44.555 C 49.087 47.628 48.357 52.905 50.984 56.838 L 60.346 70.996 L 53.598 73.795 C 51.496 74.67 49.85 76.376 49.049 78.508 L 43.238 94.024 C 42.608 95.532 42.769 97.255 43.666 98.621 C 44.543 99.837 45.937 100.577 47.436 100.628 Z M 47.25 95.53 L 53.062 80.007 C 53.445 78.987 54.233 78.17 55.24 77.75 L 64.387 73.96 C 65.652 73.446 66.12 71.895 65.35 70.768 L 54.555 54.473 C 53.122 52.376 53.491 49.538 55.411 47.877 C 55.997 47.391 56.69 47.052 57.431 46.885 C 57.705 46.825 57.987 46.797 58.267 46.798 C 58.505 46.799 58.745 46.814 58.981 46.841 L 59.452 46.891 L 59.838 46.948 L 65.964 48.055 C 71.34 49.01 76.84 49.01 82.215 48.055 L 83.772 47.776 C 84.428 47.666 84.958 48.309 84.725 48.932 C 84.617 49.221 84.362 49.432 84.058 49.483 L 81.916 49.854 C 77.122 50.691 72.22 50.691 67.428 49.854 C 65.802 49.581 64.49 51.172 65.067 52.717 C 65.124 52.868 65.198 53.012 65.286 53.145 L 76.568 70.189 L 76.646 70.297 L 83.072 78.864 C 83.535 79.478 84.289 79.796 85.05 79.7 L 97.103 78.186 C 98.306 78.021 99.236 79.221 98.778 80.346 C 98.565 80.868 98.089 81.237 97.532 81.314 L 84.679 82.935 C 83.311 83.076 81.968 82.507 81.116 81.428 L 75.804 74.381 C 75.222 73.589 74.178 73.295 73.269 73.667 L 56.996 80.436 C 56.448 80.663 56.019 81.107 55.811 81.664 L 50.598 95.565 C 50.277 96.364 49.38 96.765 48.571 96.472 C 48.331 96.383 48.077 96.337 47.821 96.337 C 47.595 96.364 47.366 96.302 47.186 96.165 C 47.124 95.954 47.144 95.727 47.244 95.53 Z M 52.648 39.259 C 52.648 32.662 45.508 28.54 39.796 31.837 C 34.084 35.136 34.084 43.381 39.796 46.678 C 41.097 47.43 42.575 47.826 44.08 47.826 C 48.812 47.822 52.644 43.983 52.641 39.251 Z M 39.76 39.259 C 39.76 35.96 43.33 33.899 46.186 35.548 C 49.042 37.196 49.042 41.319 46.186 42.968 C 45.535 43.345 44.795 43.543 44.044 43.543 C 41.672 43.546 39.749 41.622 39.753 39.251 Z M 95.96 57.651 C 97.609 57.651 98.64 59.437 97.816 60.864 C 97.432 61.527 96.725 61.935 95.96 61.935 L 81.937 61.935 C 80.287 61.935 79.257 60.15 80.082 58.722 C 80.464 58.06 81.171 57.651 81.937 57.651 Z M 101.772 69.218 L 87.756 69.218 C 86.107 69.218 85.077 67.433 85.901 66.005 C 86.284 65.343 86.991 64.934 87.756 64.934 L 101.772 64.934 C 103.421 64.934 104.451 66.719 103.627 68.148 C 103.244 68.809 102.537 69.218 101.772 69.218 Z" style="fill-opacity: 0.5;"/>
    <path d="M 250.781 133.469 L 248.101 133.469 L 245.011 127.679 C 244.378 127.706 243.811 127.719 243.311 127.719 L 242.721 127.719 L 242.721 133.469 L 240.451 133.469 L 240.451 118.159 L 243.931 118.159 C 245.698 118.159 247.148 118.526 248.281 119.259 C 249.421 119.986 249.991 121.169 249.991 122.809 C 249.991 123.836 249.751 124.719 249.271 125.459 C 248.791 126.206 248.081 126.779 247.141 127.179 L 250.781 133.469 Z M 242.721 125.829 L 244.201 125.829 C 245.561 125.829 246.495 125.532 247.001 124.939 C 247.508 124.352 247.761 123.649 247.761 122.829 C 247.761 121.009 246.548 120.099 244.121 120.099 L 242.721 120.099 L 242.721 125.829 ZM 257.53 133.679 C 256.39 133.679 255.437 133.452 254.67 132.999 C 253.91 132.546 253.35 131.942 252.99 131.189 C 252.63 130.429 252.45 129.599 252.45 128.699 C 252.45 127.686 252.66 126.799 253.08 126.039 C 253.507 125.272 254.093 124.686 254.84 124.279 C 255.593 123.866 256.44 123.659 257.38 123.659 C 258.853 123.659 259.947 124.066 260.66 124.879 C 261.373 125.692 261.73 126.836 261.73 128.309 C 261.73 128.682 261.71 129.069 261.67 129.469 L 254.8 129.469 C 254.953 130.316 255.257 130.926 255.71 131.299 C 256.157 131.679 256.783 131.869 257.59 131.869 C 258.257 131.869 258.803 131.812 259.23 131.699 C 259.663 131.586 260.06 131.432 260.42 131.239 L 261.11 132.849 C 260.763 133.069 260.29 133.262 259.69 133.429 C 259.097 133.596 258.377 133.679 257.53 133.679 Z M 254.8 127.909 L 259.55 127.909 C 259.563 127.049 259.373 126.442 258.98 126.089 C 258.593 125.736 258.04 125.559 257.32 125.559 C 255.86 125.559 255.02 126.342 254.8 127.909 ZM 264.025 133.469 L 264.025 123.909 L 266.265 123.909 L 266.265 125.789 C 266.492 125.149 266.855 124.636 267.355 124.249 C 267.855 123.856 268.425 123.659 269.065 123.659 C 269.505 123.659 269.808 123.702 269.975 123.789 L 269.665 126.059 C 269.538 125.972 269.268 125.929 268.855 125.929 C 268.202 125.929 267.608 126.139 267.075 126.559 C 266.535 126.972 266.265 127.639 266.265 128.559 L 266.265 133.469 L 264.025 133.469 ZM 276.009 133.679 C 275.029 133.679 274.155 133.456 273.389 133.009 C 272.629 132.569 272.039 131.966 271.619 131.199 C 271.205 130.432 270.999 129.586 270.999 128.659 C 270.999 127.746 271.202 126.906 271.609 126.139 C 272.015 125.372 272.602 124.769 273.369 124.329 C 274.135 123.882 275.015 123.659 276.009 123.659 C 277.009 123.659 277.889 123.882 278.649 124.329 C 279.402 124.769 279.985 125.372 280.399 126.139 C 280.805 126.906 281.009 127.746 281.009 128.659 C 281.009 129.586 280.802 130.432 280.389 131.199 C 279.969 131.966 279.382 132.569 278.629 133.009 C 277.869 133.456 276.995 133.679 276.009 133.679 Z M 276.079 131.849 C 276.879 131.849 277.512 131.549 277.979 130.949 C 278.445 130.349 278.679 129.599 278.679 128.699 C 278.679 127.799 278.429 127.039 277.929 126.419 C 277.429 125.799 276.769 125.489 275.949 125.489 C 275.162 125.489 274.529 125.796 274.049 126.409 C 273.569 127.022 273.329 127.786 273.329 128.699 C 273.329 129.586 273.585 130.332 274.099 130.939 C 274.612 131.546 275.272 131.849 276.079 131.849 ZM 283.594 133.469 L 283.594 118.159 L 285.814 118.159 L 285.814 133.469 L 283.594 133.469 ZM 289.173 133.469 L 289.173 118.159 L 291.393 118.159 L 291.393 133.469 L 289.173 133.469 Z" transform="matrix(0.7866309285163879, 0, 0, 0.7866309285163879, -141.50254821777344, -48.813053131103516)" style="fill: rgb(255, 255, 255); line-height: 38.0767px; white-space: pre;"/>
    <path d="M 239.057 154.502 C 238.117 154.502 237.267 154.296 236.507 153.882 C 235.754 153.476 235.154 152.886 234.707 152.112 C 234.267 151.346 234.047 150.442 234.047 149.402 C 234.047 148.416 234.251 147.549 234.657 146.802 C 235.064 146.062 235.641 145.492 236.387 145.092 C 237.127 144.686 237.984 144.482 238.957 144.482 C 239.691 144.482 240.327 144.576 240.867 144.762 C 241.401 144.949 241.821 145.182 242.127 145.462 L 241.127 147.272 C 240.541 146.692 239.881 146.402 239.147 146.402 C 238.261 146.402 237.584 146.672 237.117 147.212 C 236.651 147.752 236.417 148.476 236.417 149.382 C 236.417 150.409 236.657 151.206 237.137 151.772 C 237.617 152.339 238.287 152.622 239.147 152.622 C 239.574 152.622 239.994 152.562 240.407 152.442 C 240.814 152.316 241.131 152.169 241.357 152.002 L 242.167 153.582 C 241.861 153.822 241.434 154.036 240.887 154.222 C 240.334 154.409 239.724 154.502 239.057 154.502 ZM 244.408 154.292 L 244.408 138.982 L 246.598 138.982 L 246.598 144.732 L 246.518 146.502 C 246.778 145.922 247.202 145.439 247.788 145.052 C 248.368 144.672 249.048 144.482 249.828 144.482 C 250.815 144.482 251.572 144.689 252.098 145.102 C 252.625 145.509 252.978 146.079 253.158 146.812 C 253.338 147.552 253.428 148.512 253.428 149.692 L 253.428 154.292 L 251.198 154.292 L 251.198 149.672 C 251.198 148.866 251.155 148.232 251.068 147.772 C 250.975 147.319 250.792 146.972 250.518 146.732 C 250.252 146.499 249.862 146.382 249.348 146.382 C 248.928 146.382 248.508 146.506 248.088 146.752 C 247.662 147.006 247.312 147.372 247.038 147.852 C 246.758 148.326 246.618 148.889 246.618 149.542 L 246.618 154.292 L 244.408 154.292 ZM 260.508 154.502 C 259.642 154.502 258.845 154.296 258.118 153.882 C 257.392 153.476 256.808 152.892 256.368 152.132 C 255.935 151.379 255.718 150.496 255.718 149.482 C 255.718 148.482 255.908 147.609 256.288 146.862 C 256.668 146.109 257.212 145.526 257.918 145.112 C 258.632 144.692 259.465 144.482 260.418 144.482 C 260.978 144.482 261.498 144.579 261.978 144.772 C 262.465 144.972 262.875 145.212 263.208 145.492 C 263.542 145.779 263.765 146.062 263.878 146.342 L 263.918 144.732 L 266.068 144.732 L 266.068 154.292 L 263.938 154.292 L 263.898 152.602 C 263.665 153.102 263.235 153.546 262.608 153.932 C 261.982 154.312 261.282 154.502 260.508 154.502 Z M 260.878 152.622 C 261.672 152.622 262.338 152.349 262.878 151.802 C 263.418 151.256 263.688 150.539 263.688 149.652 L 263.688 149.502 C 263.688 148.909 263.565 148.376 263.318 147.902 C 263.065 147.429 262.725 147.059 262.298 146.792 C 261.865 146.532 261.392 146.402 260.878 146.402 C 259.992 146.402 259.305 146.689 258.818 147.262 C 258.332 147.842 258.088 148.589 258.088 149.502 C 258.088 150.436 258.328 151.189 258.808 151.762 C 259.288 152.336 259.978 152.622 260.878 152.622 ZM 269.021 154.292 L 269.021 144.732 L 271.261 144.732 L 271.261 146.612 C 271.488 145.972 271.851 145.459 272.351 145.072 C 272.851 144.679 273.421 144.482 274.061 144.482 C 274.501 144.482 274.805 144.526 274.971 144.612 L 274.661 146.882 C 274.535 146.796 274.265 146.752 273.851 146.752 C 273.198 146.752 272.605 146.962 272.071 147.382 C 271.531 147.796 271.261 148.462 271.261 149.382 L 271.261 154.292 L 269.021 154.292 ZM 281.195 159.292 C 280.488 159.292 279.792 159.196 279.105 159.002 C 278.418 158.802 277.928 158.619 277.635 158.452 L 278.135 156.372 C 279.055 156.972 280.055 157.272 281.135 157.272 C 281.968 157.272 282.668 157.069 283.235 156.662 C 283.808 156.262 284.102 155.479 284.115 154.312 L 284.115 152.602 C 283.822 153.149 283.348 153.602 282.695 153.962 C 282.042 154.322 281.322 154.502 280.535 154.502 C 279.702 154.502 278.938 154.296 278.245 153.882 C 277.545 153.476 276.995 152.889 276.595 152.122 C 276.195 151.362 275.995 150.476 275.995 149.462 C 275.995 148.489 276.185 147.626 276.565 146.872 C 276.945 146.112 277.488 145.526 278.195 145.112 C 278.908 144.692 279.735 144.482 280.675 144.482 C 281.228 144.482 281.748 144.579 282.235 144.772 C 282.722 144.972 283.135 145.212 283.475 145.492 C 283.815 145.779 284.042 146.062 284.155 146.342 L 284.195 144.732 L 286.315 144.732 L 286.315 154.232 C 286.315 155.852 285.902 157.102 285.075 157.982 C 284.242 158.856 282.948 159.292 281.195 159.292 Z M 281.155 152.602 C 281.948 152.602 282.615 152.329 283.155 151.782 C 283.695 151.236 283.965 150.519 283.965 149.632 L 283.965 149.482 C 283.965 148.882 283.842 148.349 283.595 147.882 C 283.342 147.409 283.002 147.039 282.575 146.772 C 282.142 146.512 281.668 146.382 281.155 146.382 C 280.268 146.382 279.582 146.669 279.095 147.242 C 278.608 147.822 278.365 148.569 278.365 149.482 C 278.365 150.409 278.605 151.162 279.085 151.742 C 279.565 152.316 280.255 152.602 281.155 152.602 ZM 293.711 154.502 C 292.571 154.502 291.618 154.276 290.851 153.822 C 290.091 153.369 289.531 152.766 289.171 152.012 C 288.811 151.252 288.631 150.422 288.631 149.522 C 288.631 148.509 288.841 147.622 289.261 146.862 C 289.688 146.096 290.275 145.509 291.021 145.102 C 291.775 144.689 292.621 144.482 293.561 144.482 C 295.035 144.482 296.128 144.889 296.841 145.702 C 297.555 146.516 297.911 147.659 297.911 149.132 C 297.911 149.506 297.891 149.892 297.851 150.292 L 290.981 150.292 C 291.135 151.139 291.438 151.749 291.891 152.122 C 292.338 152.502 292.965 152.692 293.771 152.692 C 294.438 152.692 294.985 152.636 295.411 152.522 C 295.845 152.409 296.241 152.256 296.601 152.062 L 297.291 153.672 C 296.945 153.892 296.471 154.086 295.871 154.252 C 295.278 154.419 294.558 154.502 293.711 154.502 Z M 290.981 148.732 L 295.731 148.732 C 295.745 147.872 295.555 147.266 295.161 146.912 C 294.775 146.559 294.221 146.382 293.501 146.382 C 292.041 146.382 291.201 147.166 290.981 148.732 Z" transform="matrix(0.7866309285163879, 0, 0, 0.7866309285163879, -141.50254821777344, -48.813053131103516)" style="fill: rgb(255, 255, 255); line-height: 38.0767px; white-space: pre;"/>
    <path d="M 249.984 175.115 L 249.984 165.555 L 252.224 165.555 L 252.224 167.435 C 252.45 166.795 252.814 166.282 253.314 165.895 C 253.814 165.502 254.384 165.305 255.024 165.305 C 255.464 165.305 255.767 165.349 255.934 165.435 L 255.624 167.705 C 255.497 167.619 255.227 167.575 254.814 167.575 C 254.16 167.575 253.567 167.785 253.034 168.205 C 252.494 168.619 252.224 169.285 252.224 170.205 L 252.224 175.115 L 249.984 175.115 ZM 261.967 175.325 C 260.987 175.325 260.114 175.102 259.347 174.655 C 258.587 174.215 257.997 173.612 257.577 172.845 C 257.164 172.079 256.957 171.232 256.957 170.305 C 256.957 169.392 257.161 168.552 257.567 167.785 C 257.974 167.019 258.561 166.415 259.327 165.975 C 260.094 165.529 260.974 165.305 261.967 165.305 C 262.967 165.305 263.847 165.529 264.607 165.975 C 265.361 166.415 265.944 167.019 266.357 167.785 C 266.764 168.552 266.967 169.392 266.967 170.305 C 266.967 171.232 266.761 172.079 266.347 172.845 C 265.927 173.612 265.341 174.215 264.587 174.655 C 263.827 175.102 262.954 175.325 261.967 175.325 Z M 262.037 173.495 C 262.837 173.495 263.471 173.195 263.937 172.595 C 264.404 171.995 264.637 171.245 264.637 170.345 C 264.637 169.445 264.387 168.685 263.887 168.065 C 263.387 167.445 262.727 167.135 261.907 167.135 C 261.121 167.135 260.487 167.442 260.007 168.055 C 259.527 168.669 259.287 169.432 259.287 170.345 C 259.287 171.232 259.544 171.979 260.057 172.585 C 260.571 173.192 261.231 173.495 262.037 173.495 ZM 269.552 175.115 L 269.552 159.805 L 271.772 159.805 L 271.772 175.115 L 269.552 175.115 ZM 275.132 175.115 L 275.132 159.805 L 277.352 159.805 L 277.352 175.115 L 275.132 175.115 ZM 283.811 175.325 C 283.144 175.325 282.454 175.239 281.741 175.065 C 281.021 174.892 280.511 174.685 280.211 174.445 L 280.961 172.675 C 281.794 173.262 282.744 173.555 283.811 173.555 C 284.877 173.555 285.411 173.242 285.411 172.615 C 285.411 172.335 285.301 172.122 285.081 171.975 C 284.861 171.822 284.464 171.639 283.891 171.425 L 283.101 171.135 C 282.267 170.802 281.607 170.405 281.121 169.945 C 280.634 169.479 280.391 168.862 280.391 168.095 C 280.391 167.222 280.734 166.539 281.421 166.045 C 282.114 165.552 283.034 165.305 284.181 165.305 C 284.754 165.305 285.314 165.369 285.861 165.495 C 286.407 165.622 286.827 165.782 287.121 165.975 L 286.311 167.765 C 286.131 167.585 285.841 167.429 285.441 167.295 C 285.047 167.162 284.607 167.095 284.121 167.095 C 283.134 167.095 282.641 167.395 282.641 167.995 C 282.641 168.329 282.774 168.582 283.041 168.755 C 283.301 168.929 283.731 169.119 284.331 169.325 C 284.384 169.339 284.597 169.415 284.971 169.555 C 285.864 169.902 286.524 170.299 286.951 170.745 C 287.384 171.185 287.601 171.752 287.601 172.445 C 287.601 173.392 287.244 174.109 286.531 174.595 C 285.811 175.082 284.904 175.325 283.811 175.325 Z" transform="matrix(0.7866309285163879, 0, 0, 0.7866309285163879, -141.50254821777344, -48.813053131103516)" style="fill: rgb(255, 255, 255); line-height: 38.0767px; white-space: pre;"/>
  </g>
</svg>