<?xml version="1.0" encoding="utf-8"?>
<svg viewBox="104.063 9.641 89.743 89.743" xmlns="http://www.w3.org/2000/svg">
  <defs>
    <radialGradient gradientUnits="userSpaceOnUse" cx="248.453" cy="40.947" r="52.5" id="gradient-2" gradientTransform="matrix(-0.00441, 1.296723, -0.999993, -0.003401, 291.220184, -280.752943)" spreadMethod="pad">
      <stop offset="0" style="stop-color: rgb(48, 61, 204);"/>
      <stop offset="1" style="stop-color: rgb(10, 21, 98);"/>
    </radialGradient>
  </defs>
  <g transform="matrix(0.854692, 0, 0, 0.854692, 89.350075, -1.706746)" style="">
    <title>reroll 1s to save</title>
    <circle style="paint-order: fill; fill: url(#gradient-2);" cx="250.028" cy="82.284" r="52.5" transform="matrix(1, 0, 0, 0.999999, -180.313995, -16.506966)">
      <title>Background</title>
    </circle>
    <g transform="matrix(0.702118, 0, 0, 0.702118, -165.518982, -15.47206)" style="">
      <title>Shield</title>
      <path d="M 335.256 71.905 L 335.056 71.885 Z" style="fill-opacity: 0.5;"/>
      <path d="M 335.056 117.545 L 335.056 117.545 L 335.056 117.545 L 335.056 117.545 L 335.056 117.545 L 335.056 117.545 Z" style="fill-opacity: 0.5;"/>
      <path d="M 375.056 83.315 C 362.043 77.555 349.043 71.769 336.056 65.955 C 335.459 65.652 334.754 65.652 334.156 65.955 C 321.096 71.802 308.033 77.599 294.966 83.345 C 294.31 83.52 293.884 84.152 293.966 84.825 C 294.056 93.725 293.956 102.635 294.056 111.545 C 294.075 114.462 294.312 117.374 294.766 120.255 C 296.227 129.426 299.892 138.104 305.446 145.545 C 312.546 155.115 321.626 161.955 333.126 165.415 C 334.369 165.811 335.704 165.811 336.946 165.415 C 347.567 162.243 356.902 155.77 363.596 146.935 C 371.741 136.709 376.151 124.009 376.096 110.935 C 376.096 107.085 376.096 103.245 376.096 99.395 C 376.096 94.585 376.096 89.775 376.096 84.965 C 376.199 84.235 375.759 83.538 375.056 83.315 Z M 335.056 117.565 L 335.056 117.565 L 335.056 117.565 L 335.056 117.565 L 335.056 117.565 Z M 335.256 71.905 L 335.056 71.885 Z M 309.056 141.875 C 304.199 135.355 300.994 127.755 299.716 119.725 C 299.304 117.189 299.083 114.625 299.056 112.055 C 299.056 104.245 299.056 96.435 299.056 88.625 C 298.98 88.038 299.346 87.484 299.916 87.325 C 311.343 82.259 322.786 77.172 334.246 72.065 C 334.482 71.957 334.737 71.896 334.996 71.885 L 334.996 159.575 C 334.444 159.566 333.895 159.478 333.366 159.315 C 323.558 156.35 315.009 150.217 309.056 141.875 Z" style="fill-opacity: 0.5;"/>
    </g>
    <path d="M 250.781 133.469 L 248.101 133.469 L 245.011 127.679 C 244.378 127.706 243.811 127.719 243.311 127.719 L 242.721 127.719 L 242.721 133.469 L 240.451 133.469 L 240.451 118.159 L 243.931 118.159 C 245.698 118.159 247.148 118.526 248.281 119.259 C 249.421 119.986 249.991 121.169 249.991 122.809 C 249.991 123.836 249.751 124.719 249.271 125.459 C 248.791 126.206 248.081 126.779 247.141 127.179 L 250.781 133.469 Z M 242.721 125.829 L 244.201 125.829 C 245.561 125.829 246.495 125.532 247.001 124.939 C 247.508 124.352 247.761 123.649 247.761 122.829 C 247.761 121.009 246.548 120.099 244.121 120.099 L 242.721 120.099 L 242.721 125.829 ZM 257.53 133.679 C 256.39 133.679 255.437 133.452 254.67 132.999 C 253.91 132.546 253.35 131.942 252.99 131.189 C 252.63 130.429 252.45 129.599 252.45 128.699 C 252.45 127.686 252.66 126.799 253.08 126.039 C 253.507 125.272 254.093 124.686 254.84 124.279 C 255.593 123.866 256.44 123.659 257.38 123.659 C 258.853 123.659 259.947 124.066 260.66 124.879 C 261.373 125.692 261.73 126.836 261.73 128.309 C 261.73 128.682 261.71 129.069 261.67 129.469 L 254.8 129.469 C 254.953 130.316 255.257 130.926 255.71 131.299 C 256.157 131.679 256.783 131.869 257.59 131.869 C 258.257 131.869 258.803 131.812 259.23 131.699 C 259.663 131.586 260.06 131.432 260.42 131.239 L 261.11 132.849 C 260.763 133.069 260.29 133.262 259.69 133.429 C 259.097 133.596 258.377 133.679 257.53 133.679 Z M 254.8 127.909 L 259.55 127.909 C 259.563 127.049 259.373 126.442 258.98 126.089 C 258.593 125.736 258.04 125.559 257.32 125.559 C 255.86 125.559 255.02 126.342 254.8 127.909 ZM 264.025 133.469 L 264.025 123.909 L 266.265 123.909 L 266.265 125.789 C 266.492 125.149 266.855 124.636 267.355 124.249 C 267.855 123.856 268.425 123.659 269.065 123.659 C 269.505 123.659 269.808 123.702 269.975 123.789 L 269.665 126.059 C 269.538 125.972 269.268 125.929 268.855 125.929 C 268.202 125.929 267.608 126.139 267.075 126.559 C 266.535 126.972 266.265 127.639 266.265 128.559 L 266.265 133.469 L 264.025 133.469 ZM 276.009 133.679 C 275.029 133.679 274.155 133.456 273.389 133.009 C 272.629 132.569 272.039 131.966 271.619 131.199 C 271.205 130.432 270.999 129.586 270.999 128.659 C 270.999 127.746 271.202 126.906 271.609 126.139 C 272.015 125.372 272.602 124.769 273.369 124.329 C 274.135 123.882 275.015 123.659 276.009 123.659 C 277.009 123.659 277.889 123.882 278.649 124.329 C 279.402 124.769 279.985 125.372 280.399 126.139 C 280.805 126.906 281.009 127.746 281.009 128.659 C 281.009 129.586 280.802 130.432 280.389 131.199 C 279.969 131.966 279.382 132.569 278.629 133.009 C 277.869 133.456 276.995 133.679 276.009 133.679 Z M 276.079 131.849 C 276.879 131.849 277.512 131.549 277.979 130.949 C 278.445 130.349 278.679 129.599 278.679 128.699 C 278.679 127.799 278.429 127.039 277.929 126.419 C 277.429 125.799 276.769 125.489 275.949 125.489 C 275.162 125.489 274.529 125.796 274.049 126.409 C 273.569 127.022 273.329 127.786 273.329 128.699 C 273.329 129.586 273.585 130.332 274.099 130.939 C 274.612 131.546 275.272 131.849 276.079 131.849 ZM 283.594 133.469 L 283.594 118.159 L 285.814 118.159 L 285.814 133.469 L 283.594 133.469 ZM 289.173 133.469 L 289.173 118.159 L 291.393 118.159 L 291.393 133.469 L 289.173 133.469 Z" transform="matrix(0.7866309285163879, 0, 0, 0.7866309285163879, -141.49639892578125, -48.813053131103516)" style="fill: rgb(255, 255, 255); line-height: 38.0767px; white-space: pre;"/>
    <path d="M 246.601 154.292 L 246.601 139.212 L 248.951 138.552 L 248.951 154.292 L 246.601 154.292 ZM 252.553 142.942 L 253.033 136.722 L 255.233 136.722 L 254.613 142.942 L 252.553 142.942 ZM 259.277 154.502 C 258.61 154.502 257.92 154.416 257.207 154.242 C 256.487 154.069 255.977 153.862 255.677 153.622 L 256.427 151.852 C 257.26 152.439 258.21 152.732 259.277 152.732 C 260.344 152.732 260.877 152.419 260.877 151.792 C 260.877 151.512 260.767 151.299 260.547 151.152 C 260.327 150.999 259.93 150.816 259.357 150.602 L 258.567 150.312 C 257.734 149.979 257.074 149.582 256.587 149.122 C 256.1 148.656 255.857 148.039 255.857 147.272 C 255.857 146.399 256.2 145.716 256.887 145.222 C 257.58 144.729 258.5 144.482 259.647 144.482 C 260.22 144.482 260.78 144.546 261.327 144.672 C 261.874 144.799 262.294 144.959 262.587 145.152 L 261.777 146.942 C 261.597 146.762 261.307 146.606 260.907 146.472 C 260.514 146.339 260.074 146.272 259.587 146.272 C 258.6 146.272 258.107 146.572 258.107 147.172 C 258.107 147.506 258.24 147.759 258.507 147.932 C 258.767 148.106 259.197 148.296 259.797 148.502 C 259.85 148.516 260.064 148.592 260.437 148.732 C 261.33 149.079 261.99 149.476 262.417 149.922 C 262.85 150.362 263.067 150.929 263.067 151.622 C 263.067 152.569 262.71 153.286 261.997 153.772 C 261.277 154.259 260.37 154.502 259.277 154.502 ZM 271.327 154.292 L 271.327 146.562 L 269.637 146.562 L 269.637 144.732 L 271.327 144.732 L 271.327 140.842 L 273.597 140.342 L 273.597 144.732 L 275.807 144.732 L 275.807 146.562 L 273.597 146.562 L 273.597 154.292 L 271.327 154.292 ZM 282.088 154.502 C 281.108 154.502 280.234 154.279 279.468 153.832 C 278.708 153.392 278.118 152.789 277.698 152.022 C 277.284 151.256 277.078 150.409 277.078 149.482 C 277.078 148.569 277.281 147.729 277.688 146.962 C 278.094 146.196 278.681 145.592 279.448 145.152 C 280.214 144.706 281.094 144.482 282.088 144.482 C 283.088 144.482 283.968 144.706 284.728 145.152 C 285.481 145.592 286.064 146.196 286.478 146.962 C 286.884 147.729 287.088 148.569 287.088 149.482 C 287.088 150.409 286.881 151.256 286.468 152.022 C 286.048 152.789 285.461 153.392 284.708 153.832 C 283.948 154.279 283.074 154.502 282.088 154.502 Z M 282.158 152.672 C 282.958 152.672 283.591 152.372 284.058 151.772 C 284.524 151.172 284.758 150.422 284.758 149.522 C 284.758 148.622 284.508 147.862 284.008 147.242 C 283.508 146.622 282.848 146.312 282.028 146.312 C 281.241 146.312 280.608 146.619 280.128 147.232 C 279.648 147.846 279.408 148.609 279.408 149.522 C 279.408 150.409 279.664 151.156 280.178 151.762 C 280.691 152.369 281.351 152.672 282.158 152.672 Z" transform="matrix(0.7866309285163879, 0, 0, 0.7866309285163879, -141.49639892578125, -48.813053131103516)" style="fill: rgb(255, 255, 255); line-height: 38.0767px; white-space: pre;"/>
    <path d="M 251.554 175.325 C 250.887 175.325 250.197 175.239 249.484 175.065 C 248.764 174.892 248.254 174.685 247.954 174.445 L 248.704 172.675 C 249.537 173.262 250.487 173.555 251.554 173.555 C 252.62 173.555 253.154 173.242 253.154 172.615 C 253.154 172.335 253.044 172.122 252.824 171.975 C 252.604 171.822 252.207 171.639 251.634 171.425 L 250.844 171.135 C 250.01 170.802 249.35 170.405 248.864 169.945 C 248.377 169.479 248.134 168.862 248.134 168.095 C 248.134 167.222 248.477 166.539 249.164 166.045 C 249.857 165.552 250.777 165.305 251.924 165.305 C 252.497 165.305 253.057 165.369 253.604 165.495 C 254.15 165.622 254.57 165.782 254.864 165.975 L 254.054 167.765 C 253.874 167.585 253.584 167.429 253.184 167.295 C 252.79 167.162 252.35 167.095 251.864 167.095 C 250.877 167.095 250.384 167.395 250.384 167.995 C 250.384 168.329 250.517 168.582 250.784 168.755 C 251.044 168.929 251.474 169.119 252.074 169.325 C 252.127 169.339 252.34 169.415 252.714 169.555 C 253.607 169.902 254.267 170.299 254.694 170.745 C 255.127 171.185 255.344 171.752 255.344 172.445 C 255.344 173.392 254.987 174.109 254.274 174.595 C 253.554 175.082 252.647 175.325 251.554 175.325 ZM 261.903 175.325 C 261.037 175.325 260.24 175.119 259.513 174.705 C 258.787 174.299 258.203 173.715 257.763 172.955 C 257.33 172.202 257.113 171.319 257.113 170.305 C 257.113 169.305 257.303 168.432 257.683 167.685 C 258.063 166.932 258.607 166.349 259.313 165.935 C 260.027 165.515 260.86 165.305 261.813 165.305 C 262.373 165.305 262.893 165.402 263.373 165.595 C 263.86 165.795 264.27 166.035 264.603 166.315 C 264.937 166.602 265.16 166.885 265.273 167.165 L 265.313 165.555 L 267.463 165.555 L 267.463 175.115 L 265.333 175.115 L 265.293 173.425 C 265.06 173.925 264.63 174.369 264.003 174.755 C 263.377 175.135 262.677 175.325 261.903 175.325 Z M 262.273 173.445 C 263.067 173.445 263.733 173.172 264.273 172.625 C 264.813 172.079 265.083 171.362 265.083 170.475 L 265.083 170.325 C 265.083 169.732 264.96 169.199 264.713 168.725 C 264.46 168.252 264.12 167.882 263.693 167.615 C 263.26 167.355 262.787 167.225 262.273 167.225 C 261.387 167.225 260.7 167.512 260.213 168.085 C 259.727 168.665 259.483 169.412 259.483 170.325 C 259.483 171.259 259.723 172.012 260.203 172.585 C 260.683 173.159 261.373 173.445 262.273 173.445 ZM 273.996 175.115 L 268.956 165.555 L 271.516 165.555 L 273.576 169.865 L 274.246 171.595 L 274.906 169.865 L 276.946 165.555 L 279.446 165.555 L 274.426 175.115 L 273.996 175.115 ZM 285.155 175.325 C 284.015 175.325 283.062 175.099 282.295 174.645 C 281.535 174.192 280.975 173.589 280.615 172.835 C 280.255 172.075 280.075 171.245 280.075 170.345 C 280.075 169.332 280.285 168.445 280.705 167.685 C 281.132 166.919 281.719 166.332 282.465 165.925 C 283.219 165.512 284.065 165.305 285.005 165.305 C 286.479 165.305 287.572 165.712 288.285 166.525 C 288.999 167.339 289.355 168.482 289.355 169.955 C 289.355 170.329 289.335 170.715 289.295 171.115 L 282.425 171.115 C 282.579 171.962 282.882 172.572 283.335 172.945 C 283.782 173.325 284.409 173.515 285.215 173.515 C 285.882 173.515 286.429 173.459 286.855 173.345 C 287.289 173.232 287.685 173.079 288.045 172.885 L 288.735 174.495 C 288.389 174.715 287.915 174.909 287.315 175.075 C 286.722 175.242 286.002 175.325 285.155 175.325 Z M 282.425 169.555 L 287.175 169.555 C 287.189 168.695 286.999 168.089 286.605 167.735 C 286.219 167.382 285.665 167.205 284.945 167.205 C 283.485 167.205 282.645 167.989 282.425 169.555 Z" transform="matrix(0.7866309285163879, 0, 0, 0.7866309285163879, -141.49639892578125, -48.813053131103516)" style="fill: rgb(255, 255, 255); line-height: 38.0767px; white-space: pre;"/>
  </g>
</svg>