<?xml version="1.0" encoding="utf-8"?>
<svg viewBox="302.016 10.323 89.743 89.743" xmlns="http://www.w3.org/2000/svg">
  <defs>
    <radialGradient gradientUnits="userSpaceOnUse" cx="248.453" cy="40.947" r="52.5" id="gradient-6" gradientTransform="matrix(-0.00441, 1.296723, -0.999993, -0.003401, 291.220184, -280.752943)" spreadMethod="pad">
      <stop offset="0" style="stop-color: rgb(216, 32, 32);"/>
      <stop offset="1" style="stop-color: rgb(48, 18, 18);"/>
    </radialGradient>
  </defs>
  <g style="" transform="matrix(0.854692, 0, 0, 0.854692, 287.303101, -1.024751)">
    <title>reroll to wound</title>
    <circle style="paint-order: fill; fill: url(#gradient-6);" cx="250.028" cy="82.284" r="52.5" transform="matrix(1, 0, 0, 0.999999, -180.313995, -16.506966)">
      <title>Background</title>
    </circle>
    <g transform="matrix(1.463582, 0, 0, 1.463582, -477.099274, -73.571426)">
      <title>drops</title>
      <path d="M 379.613 104.193 C 379.613 96.283 366.053 72.693 365.483 71.693 C 365.123 71.073 364.103 71.073 363.743 71.693 C 363.173 72.693 349.613 96.283 349.613 104.193 C 349.613 112.463 356.343 119.193 364.613 119.193 C 372.883 119.193 379.613 112.463 379.613 104.193 Z M 363.613 112.193 C 363.613 111.633 364.063 111.193 364.613 111.193 C 368.473 111.193 371.613 108.053 371.613 104.193 C 371.613 103.633 372.063 103.193 372.613 103.193 C 373.163 103.193 373.613 103.633 373.613 104.193 C 373.613 109.153 369.573 113.193 364.613 113.193 C 364.063 113.193 363.613 112.743 363.613 112.193 Z" style="fill-opacity: 0.5;"/>
      <path d="M 384.743 81.553 C 384.703 81.613 381.503 87.183 378.563 93.233 C 380.363 97.603 381.613 101.583 381.613 104.193 C 381.613 108.613 379.913 112.653 377.123 115.673 C 379.333 117.893 382.373 119.193 385.613 119.193 C 392.233 119.193 397.613 113.803 397.613 107.193 C 397.613 100.913 386.933 82.333 386.483 81.553 C 386.123 80.933 385.103 80.933 384.743 81.553 Z M 390.613 107.193 C 390.613 106.633 391.063 106.193 391.613 106.193 C 392.163 106.193 392.613 106.633 392.613 107.193 C 392.613 111.053 389.473 114.193 385.613 114.193 C 385.063 114.193 384.613 113.743 384.613 113.193 C 384.613 112.633 385.063 112.193 385.613 112.193 C 388.373 112.193 390.613 109.943 390.613 107.193 Z" style="fill-opacity: 0.5;"/>
    </g>
    <path d="M 250.781 133.469 L 248.101 133.469 L 245.011 127.679 C 244.378 127.706 243.811 127.719 243.311 127.719 L 242.721 127.719 L 242.721 133.469 L 240.451 133.469 L 240.451 118.159 L 243.931 118.159 C 245.698 118.159 247.148 118.526 248.281 119.259 C 249.421 119.986 249.991 121.169 249.991 122.809 C 249.991 123.836 249.751 124.719 249.271 125.459 C 248.791 126.206 248.081 126.779 247.141 127.179 L 250.781 133.469 Z M 242.721 125.829 L 244.201 125.829 C 245.561 125.829 246.495 125.532 247.001 124.939 C 247.508 124.352 247.761 123.649 247.761 122.829 C 247.761 121.009 246.548 120.099 244.121 120.099 L 242.721 120.099 L 242.721 125.829 ZM 257.53 133.679 C 256.39 133.679 255.437 133.452 254.67 132.999 C 253.91 132.546 253.35 131.942 252.99 131.189 C 252.63 130.429 252.45 129.599 252.45 128.699 C 252.45 127.686 252.66 126.799 253.08 126.039 C 253.507 125.272 254.093 124.686 254.84 124.279 C 255.593 123.866 256.44 123.659 257.38 123.659 C 258.853 123.659 259.947 124.066 260.66 124.879 C 261.373 125.692 261.73 126.836 261.73 128.309 C 261.73 128.682 261.71 129.069 261.67 129.469 L 254.8 129.469 C 254.953 130.316 255.257 130.926 255.71 131.299 C 256.157 131.679 256.783 131.869 257.59 131.869 C 258.257 131.869 258.803 131.812 259.23 131.699 C 259.663 131.586 260.06 131.432 260.42 131.239 L 261.11 132.849 C 260.763 133.069 260.29 133.262 259.69 133.429 C 259.097 133.596 258.377 133.679 257.53 133.679 Z M 254.8 127.909 L 259.55 127.909 C 259.563 127.049 259.373 126.442 258.98 126.089 C 258.593 125.736 258.04 125.559 257.32 125.559 C 255.86 125.559 255.02 126.342 254.8 127.909 ZM 264.025 133.469 L 264.025 123.909 L 266.265 123.909 L 266.265 125.789 C 266.492 125.149 266.855 124.636 267.355 124.249 C 267.855 123.856 268.425 123.659 269.065 123.659 C 269.505 123.659 269.808 123.702 269.975 123.789 L 269.665 126.059 C 269.538 125.972 269.268 125.929 268.855 125.929 C 268.202 125.929 267.608 126.139 267.075 126.559 C 266.535 126.972 266.265 127.639 266.265 128.559 L 266.265 133.469 L 264.025 133.469 ZM 276.009 133.679 C 275.029 133.679 274.155 133.456 273.389 133.009 C 272.629 132.569 272.039 131.966 271.619 131.199 C 271.205 130.432 270.999 129.586 270.999 128.659 C 270.999 127.746 271.202 126.906 271.609 126.139 C 272.015 125.372 272.602 124.769 273.369 124.329 C 274.135 123.882 275.015 123.659 276.009 123.659 C 277.009 123.659 277.889 123.882 278.649 124.329 C 279.402 124.769 279.985 125.372 280.399 126.139 C 280.805 126.906 281.009 127.746 281.009 128.659 C 281.009 129.586 280.802 130.432 280.389 131.199 C 279.969 131.966 279.382 132.569 278.629 133.009 C 277.869 133.456 276.995 133.679 276.009 133.679 Z M 276.079 131.849 C 276.879 131.849 277.512 131.549 277.979 130.949 C 278.445 130.349 278.679 129.599 278.679 128.699 C 278.679 127.799 278.429 127.039 277.929 126.419 C 277.429 125.799 276.769 125.489 275.949 125.489 C 275.162 125.489 274.529 125.796 274.049 126.409 C 273.569 127.022 273.329 127.786 273.329 128.699 C 273.329 129.586 273.585 130.332 274.099 130.939 C 274.612 131.546 275.272 131.849 276.079 131.849 ZM 283.594 133.469 L 283.594 118.159 L 285.814 118.159 L 285.814 133.469 L 283.594 133.469 ZM 289.173 133.469 L 289.173 118.159 L 291.393 118.159 L 291.393 133.469 L 289.173 133.469 Z" transform="matrix(0.7866309285163879, 0, 0, 0.7866309285163879, -141.50254821777344, -48.813053131103516)" style="fill: rgb(255, 255, 255); line-height: 38.0767px; white-space: pre;"/>
    <path d="M 227.516 154.292 L 227.516 146.562 L 225.826 146.562 L 225.826 144.732 L 227.516 144.732 L 227.516 140.842 L 229.786 140.342 L 229.786 144.732 L 231.996 144.732 L 231.996 146.562 L 229.786 146.562 L 229.786 154.292 L 227.516 154.292 ZM 238.277 154.502 C 237.297 154.502 236.423 154.279 235.657 153.832 C 234.897 153.392 234.307 152.789 233.887 152.022 C 233.473 151.256 233.267 150.409 233.267 149.482 C 233.267 148.569 233.47 147.729 233.877 146.962 C 234.283 146.196 234.87 145.592 235.637 145.152 C 236.403 144.706 237.283 144.482 238.277 144.482 C 239.277 144.482 240.157 144.706 240.917 145.152 C 241.67 145.592 242.253 146.196 242.667 146.962 C 243.073 147.729 243.277 148.569 243.277 149.482 C 243.277 150.409 243.07 151.256 242.657 152.022 C 242.237 152.789 241.65 153.392 240.897 153.832 C 240.137 154.279 239.263 154.502 238.277 154.502 Z M 238.347 152.672 C 239.147 152.672 239.78 152.372 240.247 151.772 C 240.713 151.172 240.947 150.422 240.947 149.522 C 240.947 148.622 240.697 147.862 240.197 147.242 C 239.697 146.622 239.037 146.312 238.217 146.312 C 237.43 146.312 236.797 146.619 236.317 147.232 C 235.837 147.846 235.597 148.609 235.597 149.522 C 235.597 150.409 235.853 151.156 236.367 151.762 C 236.88 152.369 237.54 152.672 238.347 152.672 ZM 259.432 154.292 L 256.602 148.982 L 253.772 154.292 L 253.372 154.292 L 249.352 144.732 L 251.772 144.732 L 253.832 150.292 L 256.562 144.732 L 256.642 144.732 L 259.392 150.252 L 261.452 144.732 L 263.822 144.732 L 259.832 154.292 L 259.432 154.292 ZM 269.566 154.502 C 268.586 154.502 267.712 154.279 266.946 153.832 C 266.186 153.392 265.596 152.789 265.176 152.022 C 264.762 151.256 264.556 150.409 264.556 149.482 C 264.556 148.569 264.759 147.729 265.166 146.962 C 265.572 146.196 266.159 145.592 266.926 145.152 C 267.692 144.706 268.572 144.482 269.566 144.482 C 270.566 144.482 271.446 144.706 272.206 145.152 C 272.959 145.592 273.542 146.196 273.956 146.962 C 274.362 147.729 274.566 148.569 274.566 149.482 C 274.566 150.409 274.359 151.256 273.946 152.022 C 273.526 152.789 272.939 153.392 272.186 153.832 C 271.426 154.279 270.552 154.502 269.566 154.502 Z M 269.636 152.672 C 270.436 152.672 271.069 152.372 271.536 151.772 C 272.002 151.172 272.236 150.422 272.236 149.522 C 272.236 148.622 271.986 147.862 271.486 147.242 C 270.986 146.622 270.326 146.312 269.506 146.312 C 268.719 146.312 268.086 146.619 267.606 147.232 C 267.126 147.846 266.886 148.609 266.886 149.522 C 266.886 150.409 267.142 151.156 267.656 151.762 C 268.169 152.369 268.829 152.672 269.636 152.672 ZM 280.271 154.502 C 278.951 154.502 278.044 154.112 277.551 153.332 C 277.058 152.559 276.811 151.476 276.811 150.082 L 276.811 144.732 L 279.061 144.732 L 279.061 149.522 C 279.061 150.316 279.108 150.929 279.201 151.362 C 279.288 151.802 279.468 152.126 279.741 152.332 C 280.008 152.539 280.414 152.642 280.961 152.642 C 281.348 152.642 281.721 152.532 282.081 152.312 C 282.441 152.092 282.738 151.792 282.971 151.412 C 283.198 151.026 283.311 150.606 283.311 150.152 L 283.311 144.732 L 285.541 144.732 L 285.541 154.292 L 283.711 154.292 L 283.461 152.892 C 283.108 153.439 282.671 153.842 282.151 154.102 C 281.631 154.369 281.004 154.502 280.271 154.502 ZM 288.536 154.292 L 288.536 144.732 L 290.746 144.732 L 290.766 146.482 C 291.026 145.902 291.442 145.422 292.016 145.042 C 292.582 144.669 293.246 144.482 294.006 144.482 C 294.992 144.482 295.749 144.689 296.276 145.102 C 296.809 145.509 297.166 146.079 297.346 146.812 C 297.526 147.552 297.616 148.512 297.616 149.692 L 297.616 154.292 L 295.366 154.292 L 295.366 149.752 C 295.366 148.546 295.246 147.676 295.006 147.142 C 294.772 146.609 294.289 146.342 293.556 146.342 C 293.136 146.342 292.712 146.469 292.286 146.722 C 291.852 146.982 291.492 147.352 291.206 147.832 C 290.926 148.319 290.786 148.889 290.786 149.542 L 290.786 154.292 L 288.536 154.292 ZM 304.736 154.502 C 303.869 154.502 303.072 154.296 302.346 153.882 C 301.619 153.476 301.036 152.892 300.596 152.132 C 300.162 151.379 299.946 150.496 299.946 149.482 C 299.946 147.969 300.369 146.759 301.216 145.852 C 302.062 144.939 303.206 144.482 304.646 144.482 C 305.452 144.482 306.189 144.682 306.856 145.082 C 307.522 145.476 307.972 145.949 308.206 146.502 L 308.106 144.882 L 308.106 138.982 L 310.316 138.982 L 310.316 154.292 L 308.166 154.292 L 308.126 152.602 C 307.892 153.102 307.462 153.546 306.836 153.932 C 306.209 154.312 305.509 154.502 304.736 154.502 Z M 305.106 152.602 C 305.899 152.602 306.566 152.329 307.106 151.782 C 307.646 151.236 307.916 150.519 307.916 149.632 L 307.916 149.482 C 307.916 148.882 307.792 148.349 307.546 147.882 C 307.292 147.409 306.952 147.039 306.526 146.772 C 306.092 146.512 305.619 146.382 305.106 146.382 C 304.219 146.382 303.532 146.669 303.046 147.242 C 302.559 147.822 302.316 148.569 302.316 149.482 C 302.316 150.409 302.556 151.162 303.036 151.742 C 303.516 152.316 304.206 152.602 305.106 152.602 Z" transform="matrix(0.7866309285163879, 0, 0, 0.7866309285163879, -141.50254821777344, -48.813053131103516)" style="fill: rgb(255, 255, 255); line-height: 38.0767px; white-space: pre;"/>
  </g>
</svg>