<?xml version="1.0" encoding="utf-8"?>
<svg viewBox="399.168 9.982 89.743 89.743" xmlns="http://www.w3.org/2000/svg">
  <defs>
    <radialGradient gradientUnits="userSpaceOnUse" cx="248.453" cy="40.947" r="52.5" id="gradient-7" gradientTransform="matrix(-0.00441, 1.296723, -0.999993, -0.003401, 291.220184, -280.752943)" spreadMethod="pad">
      <stop offset="0" style="stop-color: rgb(48, 61, 204);"/>
      <stop offset="1" style="stop-color: rgb(10, 21, 98);"/>
    </radialGradient>
  </defs>
  <g transform="matrix(0.854692, 0, 0, 0.854692, 384.454865, -1.365747)" style="">
    <title>reroll to save</title>
    <circle style="paint-order: fill; fill: url(#gradient-7);" cx="250.028" cy="82.284" r="52.5" transform="matrix(1, 0, 0, 0.999999, -180.313995, -16.506966)">
      <title>Background</title>
    </circle>
    <g transform="matrix(0.702118, 0, 0, 0.702118, -165.518982, -15.47206)" style="">
      <title>Shield</title>
      <path d="M 335.256 71.905 L 335.056 71.885 Z" style="fill-opacity: 0.5;"/>
      <path d="M 335.056 117.545 L 335.056 117.545 L 335.056 117.545 L 335.056 117.545 L 335.056 117.545 L 335.056 117.545 Z" style="fill-opacity: 0.5;"/>
      <path d="M 375.056 83.315 C 362.043 77.555 349.043 71.769 336.056 65.955 C 335.459 65.652 334.754 65.652 334.156 65.955 C 321.096 71.802 308.033 77.599 294.966 83.345 C 294.31 83.52 293.884 84.152 293.966 84.825 C 294.056 93.725 293.956 102.635 294.056 111.545 C 294.075 114.462 294.312 117.374 294.766 120.255 C 296.227 129.426 299.892 138.104 305.446 145.545 C 312.546 155.115 321.626 161.955 333.126 165.415 C 334.369 165.811 335.704 165.811 336.946 165.415 C 347.567 162.243 356.902 155.77 363.596 146.935 C 371.741 136.709 376.151 124.009 376.096 110.935 C 376.096 107.085 376.096 103.245 376.096 99.395 C 376.096 94.585 376.096 89.775 376.096 84.965 C 376.199 84.235 375.759 83.538 375.056 83.315 Z M 335.056 117.565 L 335.056 117.565 L 335.056 117.565 L 335.056 117.565 L 335.056 117.565 Z M 335.256 71.905 L 335.056 71.885 Z M 309.056 141.875 C 304.199 135.355 300.994 127.755 299.716 119.725 C 299.304 117.189 299.083 114.625 299.056 112.055 C 299.056 104.245 299.056 96.435 299.056 88.625 C 298.98 88.038 299.346 87.484 299.916 87.325 C 311.343 82.259 322.786 77.172 334.246 72.065 C 334.482 71.957 334.737 71.896 334.996 71.885 L 334.996 159.575 C 334.444 159.566 333.895 159.478 333.366 159.315 C 323.558 156.35 315.009 150.217 309.056 141.875 Z" style="fill-opacity: 0.5;"/>
    </g>
    <path d="M 250.781 133.469 L 248.101 133.469 L 245.011 127.679 C 244.378 127.706 243.811 127.719 243.311 127.719 L 242.721 127.719 L 242.721 133.469 L 240.451 133.469 L 240.451 118.159 L 243.931 118.159 C 245.698 118.159 247.148 118.526 248.281 119.259 C 249.421 119.986 249.991 121.169 249.991 122.809 C 249.991 123.836 249.751 124.719 249.271 125.459 C 248.791 126.206 248.081 126.779 247.141 127.179 L 250.781 133.469 Z M 242.721 125.829 L 244.201 125.829 C 245.561 125.829 246.495 125.532 247.001 124.939 C 247.508 124.352 247.761 123.649 247.761 122.829 C 247.761 121.009 246.548 120.099 244.121 120.099 L 242.721 120.099 L 242.721 125.829 ZM 257.53 133.679 C 256.39 133.679 255.437 133.452 254.67 132.999 C 253.91 132.546 253.35 131.942 252.99 131.189 C 252.63 130.429 252.45 129.599 252.45 128.699 C 252.45 127.686 252.66 126.799 253.08 126.039 C 253.507 125.272 254.093 124.686 254.84 124.279 C 255.593 123.866 256.44 123.659 257.38 123.659 C 258.853 123.659 259.947 124.066 260.66 124.879 C 261.373 125.692 261.73 126.836 261.73 128.309 C 261.73 128.682 261.71 129.069 261.67 129.469 L 254.8 129.469 C 254.953 130.316 255.257 130.926 255.71 131.299 C 256.157 131.679 256.783 131.869 257.59 131.869 C 258.257 131.869 258.803 131.812 259.23 131.699 C 259.663 131.586 260.06 131.432 260.42 131.239 L 261.11 132.849 C 260.763 133.069 260.29 133.262 259.69 133.429 C 259.097 133.596 258.377 133.679 257.53 133.679 Z M 254.8 127.909 L 259.55 127.909 C 259.563 127.049 259.373 126.442 258.98 126.089 C 258.593 125.736 258.04 125.559 257.32 125.559 C 255.86 125.559 255.02 126.342 254.8 127.909 ZM 264.025 133.469 L 264.025 123.909 L 266.265 123.909 L 266.265 125.789 C 266.492 125.149 266.855 124.636 267.355 124.249 C 267.855 123.856 268.425 123.659 269.065 123.659 C 269.505 123.659 269.808 123.702 269.975 123.789 L 269.665 126.059 C 269.538 125.972 269.268 125.929 268.855 125.929 C 268.202 125.929 267.608 126.139 267.075 126.559 C 266.535 126.972 266.265 127.639 266.265 128.559 L 266.265 133.469 L 264.025 133.469 ZM 276.009 133.679 C 275.029 133.679 274.155 133.456 273.389 133.009 C 272.629 132.569 272.039 131.966 271.619 131.199 C 271.205 130.432 270.999 129.586 270.999 128.659 C 270.999 127.746 271.202 126.906 271.609 126.139 C 272.015 125.372 272.602 124.769 273.369 124.329 C 274.135 123.882 275.015 123.659 276.009 123.659 C 277.009 123.659 277.889 123.882 278.649 124.329 C 279.402 124.769 279.985 125.372 280.399 126.139 C 280.805 126.906 281.009 127.746 281.009 128.659 C 281.009 129.586 280.802 130.432 280.389 131.199 C 279.969 131.966 279.382 132.569 278.629 133.009 C 277.869 133.456 276.995 133.679 276.009 133.679 Z M 276.079 131.849 C 276.879 131.849 277.512 131.549 277.979 130.949 C 278.445 130.349 278.679 129.599 278.679 128.699 C 278.679 127.799 278.429 127.039 277.929 126.419 C 277.429 125.799 276.769 125.489 275.949 125.489 C 275.162 125.489 274.529 125.796 274.049 126.409 C 273.569 127.022 273.329 127.786 273.329 128.699 C 273.329 129.586 273.585 130.332 274.099 130.939 C 274.612 131.546 275.272 131.849 276.079 131.849 ZM 283.594 133.469 L 283.594 118.159 L 285.814 118.159 L 285.814 133.469 L 283.594 133.469 ZM 289.173 133.469 L 289.173 118.159 L 291.393 118.159 L 291.393 133.469 L 289.173 133.469 Z" transform="matrix(0.7866309285163879, 0, 0, 0.7866309285163879, -141.49639892578125, -48.813053131103516)" style="fill: rgb(255, 255, 255); line-height: 38.0767px; white-space: pre;"/>
    <path d="M 237.051 154.292 L 237.051 146.562 L 235.361 146.562 L 235.361 144.732 L 237.051 144.732 L 237.051 140.842 L 239.321 140.342 L 239.321 144.732 L 241.531 144.732 L 241.531 146.562 L 239.321 146.562 L 239.321 154.292 L 237.051 154.292 ZM 247.811 154.502 C 246.831 154.502 245.958 154.279 245.191 153.832 C 244.431 153.392 243.841 152.789 243.421 152.022 C 243.008 151.256 242.801 150.409 242.801 149.482 C 242.801 148.569 243.004 147.729 243.411 146.962 C 243.818 146.196 244.404 145.592 245.171 145.152 C 245.938 144.706 246.818 144.482 247.811 144.482 C 248.811 144.482 249.691 144.706 250.451 145.152 C 251.204 145.592 251.788 146.196 252.201 146.962 C 252.608 147.729 252.811 148.569 252.811 149.482 C 252.811 150.409 252.604 151.256 252.191 152.022 C 251.771 152.789 251.184 153.392 250.431 153.832 C 249.671 154.279 248.798 154.502 247.811 154.502 Z M 247.881 152.672 C 248.681 152.672 249.314 152.372 249.781 151.772 C 250.248 151.172 250.481 150.422 250.481 149.522 C 250.481 148.622 250.231 147.862 249.731 147.242 C 249.231 146.622 248.571 146.312 247.751 146.312 C 246.964 146.312 246.331 146.619 245.851 147.232 C 245.371 147.846 245.131 148.609 245.131 149.522 C 245.131 150.409 245.388 151.156 245.901 151.762 C 246.414 152.369 247.074 152.672 247.881 152.672 ZM 263.597 154.502 C 262.93 154.502 262.24 154.416 261.527 154.242 C 260.807 154.069 260.297 153.862 259.997 153.622 L 260.747 151.852 C 261.58 152.439 262.53 152.732 263.597 152.732 C 264.663 152.732 265.197 152.419 265.197 151.792 C 265.197 151.512 265.087 151.299 264.867 151.152 C 264.647 150.999 264.25 150.816 263.677 150.602 L 262.887 150.312 C 262.053 149.979 261.393 149.582 260.907 149.122 C 260.42 148.656 260.177 148.039 260.177 147.272 C 260.177 146.399 260.52 145.716 261.207 145.222 C 261.9 144.729 262.82 144.482 263.967 144.482 C 264.54 144.482 265.1 144.546 265.647 144.672 C 266.193 144.799 266.613 144.959 266.907 145.152 L 266.097 146.942 C 265.917 146.762 265.627 146.606 265.227 146.472 C 264.833 146.339 264.393 146.272 263.907 146.272 C 262.92 146.272 262.427 146.572 262.427 147.172 C 262.427 147.506 262.56 147.759 262.827 147.932 C 263.087 148.106 263.517 148.296 264.117 148.502 C 264.17 148.516 264.383 148.592 264.757 148.732 C 265.65 149.079 266.31 149.476 266.737 149.922 C 267.17 150.362 267.387 150.929 267.387 151.622 C 267.387 152.569 267.03 153.286 266.317 153.772 C 265.597 154.259 264.69 154.502 263.597 154.502 ZM 273.946 154.502 C 273.08 154.502 272.283 154.296 271.556 153.882 C 270.83 153.476 270.246 152.892 269.806 152.132 C 269.373 151.379 269.156 150.496 269.156 149.482 C 269.156 148.482 269.346 147.609 269.726 146.862 C 270.106 146.109 270.65 145.526 271.356 145.112 C 272.07 144.692 272.903 144.482 273.856 144.482 C 274.416 144.482 274.936 144.579 275.416 144.772 C 275.903 144.972 276.313 145.212 276.646 145.492 C 276.98 145.779 277.203 146.062 277.316 146.342 L 277.356 144.732 L 279.506 144.732 L 279.506 154.292 L 277.376 154.292 L 277.336 152.602 C 277.103 153.102 276.673 153.546 276.046 153.932 C 275.42 154.312 274.72 154.502 273.946 154.502 Z M 274.316 152.622 C 275.11 152.622 275.776 152.349 276.316 151.802 C 276.856 151.256 277.126 150.539 277.126 149.652 L 277.126 149.502 C 277.126 148.909 277.003 148.376 276.756 147.902 C 276.503 147.429 276.163 147.059 275.736 146.792 C 275.303 146.532 274.83 146.402 274.316 146.402 C 273.43 146.402 272.743 146.689 272.256 147.262 C 271.77 147.842 271.526 148.589 271.526 149.502 C 271.526 150.436 271.766 151.189 272.246 151.762 C 272.726 152.336 273.416 152.622 274.316 152.622 ZM 286.039 154.292 L 280.999 144.732 L 283.559 144.732 L 285.619 149.042 L 286.289 150.772 L 286.949 149.042 L 288.989 144.732 L 291.489 144.732 L 286.469 154.292 L 286.039 154.292 ZM 297.198 154.502 C 296.058 154.502 295.105 154.276 294.338 153.822 C 293.578 153.369 293.018 152.766 292.658 152.012 C 292.298 151.252 292.118 150.422 292.118 149.522 C 292.118 148.509 292.328 147.622 292.748 146.862 C 293.175 146.096 293.762 145.509 294.508 145.102 C 295.262 144.689 296.108 144.482 297.048 144.482 C 298.522 144.482 299.615 144.889 300.328 145.702 C 301.042 146.516 301.398 147.659 301.398 149.132 C 301.398 149.506 301.378 149.892 301.338 150.292 L 294.468 150.292 C 294.622 151.139 294.925 151.749 295.378 152.122 C 295.825 152.502 296.452 152.692 297.258 152.692 C 297.925 152.692 298.472 152.636 298.898 152.522 C 299.332 152.409 299.728 152.256 300.088 152.062 L 300.778 153.672 C 300.432 153.892 299.958 154.086 299.358 154.252 C 298.765 154.419 298.045 154.502 297.198 154.502 Z M 294.468 148.732 L 299.218 148.732 C 299.232 147.872 299.042 147.266 298.648 146.912 C 298.262 146.559 297.708 146.382 296.988 146.382 C 295.528 146.382 294.688 147.166 294.468 148.732 Z" transform="matrix(0.7866309285163879, 0, 0, 0.7866309285163879, -141.49639892578125, -48.813053131103516)" style="fill: rgb(255, 255, 255); line-height: 38.0767px; white-space: pre;"/>
  </g>
</svg>