<?xml version="1.0" encoding="utf-8"?>
<svg viewBox="6.911 9.982 89.743 89.743" xmlns="http://www.w3.org/2000/svg">
  <defs>
    <radialGradient gradientUnits="userSpaceOnUse" cx="248.453" cy="40.947" r="52.5" id="gradient-1" gradientTransform="matrix(-0.00441, 1.296723, -0.999993, -0.003401, 291.220184, -280.752913)" spreadMethod="pad">
      <stop offset="0" style="stop-color: rgb(216, 32, 32);"/>
      <stop offset="1" style="stop-color: rgb(48, 18, 18);"/>
    </radialGradient>
  </defs>
  <g style="" transform="matrix(0.854692, 0, 0, 0.854692, -7.801673, -1.365746)">
    <title>reroll 1s to hit</title>
    <circle style="fill: url(#gradient-1); paint-order: fill;" cx="250.028" cy="82.284" r="52.5" transform="matrix(1, 0, 0, 0.999999, -180.313995, -16.506966)">
      <title>Background</title>
    </circle>
    <g data-name="11" transform="matrix(2.380301, 0, 0, 2.380301, 31.629189, 28.296291)" style="filter: none;">
      <title>Swords</title>
      <path d="M30,1H24.24a1,1,0,0,0-.76.36L8.53,19.12,6.71,17.29a1,1,0,0,0-1.42,1.42l1.88,1.88L2.39,25.36a3,3,0,0,0,0,4.25h0a3,3,0,0,0,4.25,0l4.77-4.78,1.88,1.88a1,1,0,0,0,1.42,0,1,1,0,0,0,0-1.42l-1.83-1.82L30.64,8.52A1,1,0,0,0,31,7.76V2A1,1,0,0,0,30,1Z" style="fill-opacity: 0.5;"/>
      <path d="M14.69,8.68,8.52,1.36A1,1,0,0,0,7.76,1H2A1,1,0,0,0,1,2V7.76a1,1,0,0,0,.36.76l7.88,6.64Z" style="fill-opacity: 0.5;"/>
      <path d="M24.83,20.59l1.88-1.88a1,1,0,0,0-1.42-1.42l-1.82,1.83-1-1.14-5,4.18,1.56,1.31-1.83,1.82a1,1,0,0,0,0,1.42,1,1,0,0,0,1.42,0l1.88-1.88,4.77,4.78a3,3,0,0,0,4.25-4.25Z" style="fill-opacity: 0.5;"/>
    </g>
    <path d="M 250.781 133.469 L 248.101 133.469 L 245.011 127.679 C 244.378 127.706 243.811 127.719 243.311 127.719 L 242.721 127.719 L 242.721 133.469 L 240.451 133.469 L 240.451 118.159 L 243.931 118.159 C 245.698 118.159 247.148 118.526 248.281 119.259 C 249.421 119.986 249.991 121.169 249.991 122.809 C 249.991 123.836 249.751 124.719 249.271 125.459 C 248.791 126.206 248.081 126.779 247.141 127.179 L 250.781 133.469 Z M 242.721 125.829 L 244.201 125.829 C 245.561 125.829 246.495 125.532 247.001 124.939 C 247.508 124.352 247.761 123.649 247.761 122.829 C 247.761 121.009 246.548 120.099 244.121 120.099 L 242.721 120.099 L 242.721 125.829 ZM 257.53 133.679 C 256.39 133.679 255.437 133.452 254.67 132.999 C 253.91 132.546 253.35 131.942 252.99 131.189 C 252.63 130.429 252.45 129.599 252.45 128.699 C 252.45 127.686 252.66 126.799 253.08 126.039 C 253.507 125.272 254.093 124.686 254.84 124.279 C 255.593 123.866 256.44 123.659 257.38 123.659 C 258.853 123.659 259.947 124.066 260.66 124.879 C 261.373 125.692 261.73 126.836 261.73 128.309 C 261.73 128.682 261.71 129.069 261.67 129.469 L 254.8 129.469 C 254.953 130.316 255.257 130.926 255.71 131.299 C 256.157 131.679 256.783 131.869 257.59 131.869 C 258.257 131.869 258.803 131.812 259.23 131.699 C 259.663 131.586 260.06 131.432 260.42 131.239 L 261.11 132.849 C 260.763 133.069 260.29 133.262 259.69 133.429 C 259.097 133.596 258.377 133.679 257.53 133.679 Z M 254.8 127.909 L 259.55 127.909 C 259.563 127.049 259.373 126.442 258.98 126.089 C 258.593 125.736 258.04 125.559 257.32 125.559 C 255.86 125.559 255.02 126.342 254.8 127.909 ZM 264.025 133.469 L 264.025 123.909 L 266.265 123.909 L 266.265 125.789 C 266.492 125.149 266.855 124.636 267.355 124.249 C 267.855 123.856 268.425 123.659 269.065 123.659 C 269.505 123.659 269.808 123.702 269.975 123.789 L 269.665 126.059 C 269.538 125.972 269.268 125.929 268.855 125.929 C 268.202 125.929 267.608 126.139 267.075 126.559 C 266.535 126.972 266.265 127.639 266.265 128.559 L 266.265 133.469 L 264.025 133.469 ZM 276.009 133.679 C 275.029 133.679 274.155 133.456 273.389 133.009 C 272.629 132.569 272.039 131.966 271.619 131.199 C 271.205 130.432 270.999 129.586 270.999 128.659 C 270.999 127.746 271.202 126.906 271.609 126.139 C 272.015 125.372 272.602 124.769 273.369 124.329 C 274.135 123.882 275.015 123.659 276.009 123.659 C 277.009 123.659 277.889 123.882 278.649 124.329 C 279.402 124.769 279.985 125.372 280.399 126.139 C 280.805 126.906 281.009 127.746 281.009 128.659 C 281.009 129.586 280.802 130.432 280.389 131.199 C 279.969 131.966 279.382 132.569 278.629 133.009 C 277.869 133.456 276.995 133.679 276.009 133.679 Z M 276.079 131.849 C 276.879 131.849 277.512 131.549 277.979 130.949 C 278.445 130.349 278.679 129.599 278.679 128.699 C 278.679 127.799 278.429 127.039 277.929 126.419 C 277.429 125.799 276.769 125.489 275.949 125.489 C 275.162 125.489 274.529 125.796 274.049 126.409 C 273.569 127.022 273.329 127.786 273.329 128.699 C 273.329 129.586 273.585 130.332 274.099 130.939 C 274.612 131.546 275.272 131.849 276.079 131.849 ZM 283.594 133.469 L 283.594 118.159 L 285.814 118.159 L 285.814 133.469 L 283.594 133.469 ZM 289.173 133.469 L 289.173 118.159 L 291.393 118.159 L 291.393 133.469 L 289.173 133.469 Z" transform="matrix(0.7866309285163879, 0, 0, 0.7866309285163879, -141.49639892578125, -48.813053131103516)" style="fill: rgb(255, 255, 255); line-height: 38.0767px; white-space: pre;"/>
    <path d="M 246.601 154.292 L 246.601 139.212 L 248.951 138.552 L 248.951 154.292 L 246.601 154.292 ZM 252.553 142.942 L 253.033 136.722 L 255.233 136.722 L 254.613 142.942 L 252.553 142.942 ZM 259.277 154.502 C 258.61 154.502 257.92 154.416 257.207 154.242 C 256.487 154.069 255.977 153.862 255.677 153.622 L 256.427 151.852 C 257.26 152.439 258.21 152.732 259.277 152.732 C 260.344 152.732 260.877 152.419 260.877 151.792 C 260.877 151.512 260.767 151.299 260.547 151.152 C 260.327 150.999 259.93 150.816 259.357 150.602 L 258.567 150.312 C 257.734 149.979 257.074 149.582 256.587 149.122 C 256.1 148.656 255.857 148.039 255.857 147.272 C 255.857 146.399 256.2 145.716 256.887 145.222 C 257.58 144.729 258.5 144.482 259.647 144.482 C 260.22 144.482 260.78 144.546 261.327 144.672 C 261.874 144.799 262.294 144.959 262.587 145.152 L 261.777 146.942 C 261.597 146.762 261.307 146.606 260.907 146.472 C 260.514 146.339 260.074 146.272 259.587 146.272 C 258.6 146.272 258.107 146.572 258.107 147.172 C 258.107 147.506 258.24 147.759 258.507 147.932 C 258.767 148.106 259.197 148.296 259.797 148.502 C 259.85 148.516 260.064 148.592 260.437 148.732 C 261.33 149.079 261.99 149.476 262.417 149.922 C 262.85 150.362 263.067 150.929 263.067 151.622 C 263.067 152.569 262.71 153.286 261.997 153.772 C 261.277 154.259 260.37 154.502 259.277 154.502 ZM 271.327 154.292 L 271.327 146.562 L 269.637 146.562 L 269.637 144.732 L 271.327 144.732 L 271.327 140.842 L 273.597 140.342 L 273.597 144.732 L 275.807 144.732 L 275.807 146.562 L 273.597 146.562 L 273.597 154.292 L 271.327 154.292 ZM 282.088 154.502 C 281.108 154.502 280.234 154.279 279.468 153.832 C 278.708 153.392 278.118 152.789 277.698 152.022 C 277.284 151.256 277.078 150.409 277.078 149.482 C 277.078 148.569 277.281 147.729 277.688 146.962 C 278.094 146.196 278.681 145.592 279.448 145.152 C 280.214 144.706 281.094 144.482 282.088 144.482 C 283.088 144.482 283.968 144.706 284.728 145.152 C 285.481 145.592 286.064 146.196 286.478 146.962 C 286.884 147.729 287.088 148.569 287.088 149.482 C 287.088 150.409 286.881 151.256 286.468 152.022 C 286.048 152.789 285.461 153.392 284.708 153.832 C 283.948 154.279 283.074 154.502 282.088 154.502 Z M 282.158 152.672 C 282.958 152.672 283.591 152.372 284.058 151.772 C 284.524 151.172 284.758 150.422 284.758 149.522 C 284.758 148.622 284.508 147.862 284.008 147.242 C 283.508 146.622 282.848 146.312 282.028 146.312 C 281.241 146.312 280.608 146.619 280.128 147.232 C 279.648 147.846 279.408 148.609 279.408 149.522 C 279.408 150.409 279.664 151.156 280.178 151.762 C 280.691 152.369 281.351 152.672 282.158 152.672 Z" transform="matrix(0.7866309285163879, 0, 0, 0.7866309285163879, -141.49639892578125, -48.813053131103516)" style="fill: rgb(255, 255, 255); line-height: 38.0767px; white-space: pre;"/>
    <path d="M 257.721 175.115 L 257.721 159.805 L 259.911 159.805 L 259.911 165.555 L 259.831 167.325 C 260.091 166.745 260.515 166.262 261.101 165.875 C 261.681 165.495 262.361 165.305 263.141 165.305 C 264.128 165.305 264.885 165.512 265.411 165.925 C 265.938 166.332 266.291 166.902 266.471 167.635 C 266.651 168.375 266.741 169.335 266.741 170.515 L 266.741 175.115 L 264.511 175.115 L 264.511 170.495 C 264.511 169.689 264.468 169.055 264.381 168.595 C 264.288 168.142 264.105 167.795 263.831 167.555 C 263.565 167.322 263.175 167.205 262.661 167.205 C 262.241 167.205 261.821 167.329 261.401 167.575 C 260.975 167.829 260.625 168.195 260.351 168.675 C 260.071 169.149 259.931 169.712 259.931 170.365 L 259.931 175.115 L 257.721 175.115 ZM 269.761 175.115 L 269.761 165.555 L 272.091 165.555 L 272.091 175.115 L 269.761 175.115 Z M 270.901 163.765 C 270.468 163.765 270.108 163.619 269.821 163.325 C 269.528 163.039 269.381 162.679 269.381 162.245 C 269.381 161.859 269.528 161.525 269.821 161.245 C 270.108 160.972 270.468 160.835 270.901 160.835 C 271.321 160.835 271.675 160.972 271.961 161.245 C 272.255 161.525 272.401 161.859 272.401 162.245 C 272.401 162.679 272.258 163.039 271.971 163.325 C 271.691 163.619 271.335 163.765 270.901 163.765 ZM 276.042 175.115 L 276.042 167.385 L 274.352 167.385 L 274.352 165.555 L 276.042 165.555 L 276.042 161.665 L 278.312 161.165 L 278.312 165.555 L 280.522 165.555 L 280.522 167.385 L 278.312 167.385 L 278.312 175.115 L 276.042 175.115 Z" transform="matrix(0.7866309285163879, 0, 0, 0.7866309285163879, -141.49639892578125, -48.813053131103516)" style="fill: rgb(255, 255, 255); line-height: 38.0767px; white-space: pre;"/>
  </g>
</svg>